%TF.GenerationSoftware,KiCad,Pcbnew,10.99.0-6e8e92d84a*%
%TF.CreationDate,2026-09-22T21:57:00-04:00*%
%TF.ProjectId,8Key,384b6579-2e6b-4696-9361-645f70636258,rev?*%
%TF.SameCoordinates,Original*%
%TF.FileFunction,Profile,NP*%
%FSLAX46Y46*%
G04 Gerber Fmt 4.6, Leading zero omitted, Abs format (unit mm)*
G04 Created by KiCad (PCBNEW 10.99.0-6e8e92d84a) date 2026-09-22 21:57:00*
%MOMM*%
%LPD*%
G01*
G04 APERTURE LIST*
%TA.AperFunction,Profile*%
%ADD10C,0.050000*%
%TD*%
G04 APERTURE END LIST*
D10*
X30956250Y-39781250D02*
G75*
G02*
X33337500Y-37400000I2381250J0D01*
G01*
X30956250Y-78581250D02*
X30956250Y-39781250D01*
X33337500Y-80962500D02*
G75*
G02*
X30956200Y-78581250I0J2381300D01*
G01*
X33337500Y-80962500D02*
X69056250Y-80962500D01*
X50625000Y-47625000D02*
G75*
G02*
X44625000Y-47625000I-3000000J0D01*
G01*
X44625000Y-47625000D02*
G75*
G02*
X50625000Y-47625000I3000000J0D01*
G01*
X50006250Y-73818750D02*
G75*
G02*
X45243750Y-73818750I-2381250J0D01*
G01*
X45243750Y-73818750D02*
G75*
G02*
X50006250Y-73818750I2381250J0D01*
G01*
X69056250Y-73818750D02*
G75*
G02*
X64293750Y-73818750I-2381250J0D01*
G01*
X64293750Y-73818750D02*
G75*
G02*
X69056250Y-73818750I2381250J0D01*
G01*
X69056250Y-80962500D02*
X88106250Y-100012500D01*
X88106250Y-83343750D02*
G75*
G02*
X83343750Y-83343750I-2381250J0D01*
G01*
X83343750Y-83343750D02*
G75*
G02*
X88106250Y-83343750I2381250J0D01*
G01*
X88106250Y-100012500D02*
X178593750Y-100012500D01*
X104775000Y-54768750D02*
G75*
G02*
X100012500Y-54768750I-2381250J0D01*
G01*
X100012500Y-54768750D02*
G75*
G02*
X104775000Y-54768750I2381250J0D01*
G01*
X109537500Y-85725000D02*
G75*
G02*
X104775000Y-85725000I-2381250J0D01*
G01*
X104775000Y-85725000D02*
G75*
G02*
X109537500Y-85725000I2381250J0D01*
G01*
X159543750Y-90487500D02*
G75*
G02*
X154781250Y-90487500I-2381250J0D01*
G01*
X154781250Y-90487500D02*
G75*
G02*
X159543750Y-90487500I2381250J0D01*
G01*
X169068750Y-54768750D02*
G75*
G02*
X164306250Y-54768750I-2381250J0D01*
G01*
X164306250Y-54768750D02*
G75*
G02*
X169068750Y-54768750I2381250J0D01*
G01*
X180975000Y-85725000D02*
G75*
G02*
X176212500Y-85725000I-2381250J0D01*
G01*
X176212500Y-85725000D02*
G75*
G02*
X180975000Y-85725000I2381250J0D01*
G01*
X178593750Y-100012500D02*
X197643750Y-80962500D01*
X197643750Y-80962500D02*
X233362500Y-80962500D01*
X202406250Y-66675000D02*
G75*
G02*
X197643750Y-66675000I-2381250J0D01*
G01*
X197643750Y-66675000D02*
G75*
G02*
X202406250Y-66675000I2381250J0D01*
G01*
X222075000Y-47625000D02*
G75*
G02*
X216075000Y-47625000I-3000000J0D01*
G01*
X216075000Y-47625000D02*
G75*
G02*
X222075000Y-47625000I3000000J0D01*
G01*
X221456250Y-69056250D02*
G75*
G02*
X216693750Y-69056250I-2381250J0D01*
G01*
X216693750Y-69056250D02*
G75*
G02*
X221456250Y-69056250I2381250J0D01*
G01*
X233362500Y-37400000D02*
X33337500Y-37400000D01*
X233362500Y-37400000D02*
G75*
G02*
X235743800Y-39781250I0J-2381300D01*
G01*
X235743750Y-78581250D02*
G75*
G02*
X233362500Y-80962450I-2381250J50D01*
G01*
X235743750Y-78581250D02*
X235743750Y-39781250D01*
M02*
