%TF.GenerationSoftware,KiCad,Pcbnew,10.99.0-6e8e92d84a*%
%TF.CreationDate,2026-09-22T21:57:00-04:00*%
%TF.ProjectId,8Key,384b6579-2e6b-4696-9361-645f70636258,rev?*%
%TF.SameCoordinates,Original*%
%TF.FileFunction,Soldermask,Top*%
%TF.FilePolarity,Negative*%
%FSLAX46Y46*%
G04 Gerber Fmt 4.6, Leading zero omitted, Abs format (unit mm)*
G04 Created by KiCad (PCBNEW 10.99.0-6e8e92d84a) date 2026-09-22 21:57:00*
%MOMM*%
%LPD*%
G01*
G04 APERTURE LIST*
G04 Aperture macros list*
%AMRoundRect*
0 Rectangle with rounded corners*
0 $1 Rounding radius*
0 $2 $3 $4 $5 $6 $7 $8 $9 X,Y pos of 4 corners*
0 Add a 4 corners polygon primitive as box body*
4,1,4,$2,$3,$4,$5,$6,$7,$8,$9,$2,$3,0*
0 Add four circle primitives for the rounded corners*
1,1,$1+$1,$2,$3*
1,1,$1+$1,$4,$5*
1,1,$1+$1,$6,$7*
1,1,$1+$1,$8,$9*
0 Add four rect primitives between the rounded corners*
20,1,$1+$1,$2,$3,$4,$5,0*
20,1,$1+$1,$4,$5,$6,$7,0*
20,1,$1+$1,$6,$7,$8,$9,0*
20,1,$1+$1,$8,$9,$2,$3,0*%
G04 Aperture macros list end*
%ADD10C,1.700000*%
%ADD11RoundRect,0.250000X0.250000X0.475000X-0.250000X0.475000X-0.250000X-0.475000X0.250000X-0.475000X0*%
%ADD12RoundRect,0.250000X-0.325000X-0.650000X0.325000X-0.650000X0.325000X0.650000X-0.325000X0.650000X0*%
%ADD13RoundRect,0.250000X-0.262500X-0.450000X0.262500X-0.450000X0.262500X0.450000X-0.262500X0.450000X0*%
%ADD14C,0.650000*%
%ADD15RoundRect,0.150000X0.150000X0.425000X-0.150000X0.425000X-0.150000X-0.425000X0.150000X-0.425000X0*%
%ADD16RoundRect,0.075000X0.075000X0.500000X-0.075000X0.500000X-0.075000X-0.500000X0.075000X-0.500000X0*%
%ADD17RoundRect,0.250000X0.840000X0.750000X-0.840000X0.750000X-0.840000X-0.750000X0.840000X-0.750000X0*%
%ADD18RoundRect,0.200000X0.200000X0.800000X-0.200000X0.800000X-0.200000X-0.800000X0.200000X-0.800000X0*%
%ADD19RoundRect,0.250000X0.475000X-0.250000X0.475000X0.250000X-0.475000X0.250000X-0.475000X-0.250000X0*%
%ADD20RoundRect,0.137500X-0.600000X-0.137500X0.600000X-0.137500X0.600000X0.137500X-0.600000X0.137500X0*%
%ADD21RoundRect,0.137500X-0.137500X-0.600000X0.137500X-0.600000X0.137500X0.600000X-0.137500X0.600000X0*%
%ADD22RoundRect,0.150000X-0.150000X0.825000X-0.150000X-0.825000X0.150000X-0.825000X0.150000X0.825000X0*%
%ADD23RoundRect,0.250000X0.262500X0.450000X-0.262500X0.450000X-0.262500X-0.450000X0.262500X-0.450000X0*%
%ADD24RoundRect,0.250000X0.450000X0.350000X-0.450000X0.350000X-0.450000X-0.350000X0.450000X-0.350000X0*%
%ADD25RoundRect,0.250000X-0.250000X-0.475000X0.250000X-0.475000X0.250000X0.475000X-0.250000X0.475000X0*%
G04 APERTURE END LIST*
D10*
%TO.C,SW2*%
X38100000Y-76200000D03*
X38100000Y-71120000D03*
X38100000Y-66040000D03*
%TD*%
D11*
%TO.C,C2*%
X129350000Y-83000000D03*
X127450000Y-83000000D03*
%TD*%
D12*
%TO.C,C7*%
X144125000Y-55400000D03*
X147075000Y-55400000D03*
%TD*%
D10*
%TO.C,SW8*%
X190500000Y-76200000D03*
X190500000Y-71120000D03*
X190500000Y-66040000D03*
%TD*%
%TO.C,SW7*%
X209550000Y-76200000D03*
X209550000Y-71120000D03*
X209550000Y-66040000D03*
%TD*%
D13*
%TO.C,R4*%
X123175000Y-67600000D03*
X125000000Y-67600000D03*
%TD*%
D14*
%TO.C,J1*%
X136490000Y-42605000D03*
X130710000Y-42605000D03*
D15*
X136800000Y-43680000D03*
X136000000Y-43680000D03*
D16*
X134850000Y-43680000D03*
X133850000Y-43680000D03*
X133350000Y-43680000D03*
X132350000Y-43680000D03*
D15*
X131200000Y-43680000D03*
X130400000Y-43680000D03*
X130400000Y-43680000D03*
X131200000Y-43680000D03*
D16*
X131850000Y-43680000D03*
X132850000Y-43680000D03*
X134350000Y-43680000D03*
X135350000Y-43680000D03*
D15*
X136000000Y-43680000D03*
X136800000Y-43680000D03*
D17*
X138710000Y-43105000D03*
X138710000Y-39175000D03*
X128490000Y-43105000D03*
X128490000Y-39175000D03*
%TD*%
D18*
%TO.C,SW1*%
X122000000Y-85600000D03*
X117800000Y-85600000D03*
%TD*%
D19*
%TO.C,C3*%
X117800000Y-66100000D03*
X117800000Y-64200000D03*
%TD*%
D20*
%TO.C,U1*%
X127737500Y-66600000D03*
X127737500Y-67400000D03*
X127737500Y-68200000D03*
X127737500Y-69000000D03*
X127737500Y-69800000D03*
X127737500Y-70600000D03*
X127737500Y-71400000D03*
X127737500Y-72200000D03*
X127737500Y-73000000D03*
X127737500Y-73800000D03*
X127737500Y-74600000D03*
D21*
X129400000Y-76262500D03*
X130200000Y-76262500D03*
X131000000Y-76262500D03*
X131800000Y-76262500D03*
X132600000Y-76262500D03*
X133400000Y-76262500D03*
X134200000Y-76262500D03*
X135000000Y-76262500D03*
X135800000Y-76262500D03*
X136600000Y-76262500D03*
X137400000Y-76262500D03*
D20*
X139062500Y-74600000D03*
X139062500Y-73800000D03*
X139062500Y-73000000D03*
X139062500Y-72200000D03*
X139062500Y-71400000D03*
X139062500Y-70600000D03*
X139062500Y-69800000D03*
X139062500Y-69000000D03*
X139062500Y-68200000D03*
X139062500Y-67400000D03*
X139062500Y-66600000D03*
D21*
X137400000Y-64937500D03*
X136600000Y-64937500D03*
X135800000Y-64937500D03*
X135000000Y-64937500D03*
X134200000Y-64937500D03*
X133400000Y-64937500D03*
X132600000Y-64937500D03*
X131800000Y-64937500D03*
X131000000Y-64937500D03*
X130200000Y-64937500D03*
X129400000Y-64937500D03*
%TD*%
D22*
%TO.C,U2*%
X135505000Y-47325000D03*
X134235000Y-47325000D03*
X132965000Y-47325000D03*
X131695000Y-47325000D03*
X131695000Y-52275000D03*
X132965000Y-52275000D03*
X134235000Y-52275000D03*
X135505000Y-52275000D03*
%TD*%
D10*
%TO.C,SW5*%
X95250000Y-95250000D03*
X95250000Y-90170000D03*
X95250000Y-85090000D03*
%TD*%
D23*
%TO.C,R6*%
X125912500Y-47800000D03*
X124087500Y-47800000D03*
%TD*%
D10*
%TO.C,SW3*%
X57150000Y-76200000D03*
X57150000Y-71120000D03*
X57150000Y-66040000D03*
%TD*%
%TO.C,SW6*%
X228600000Y-76200000D03*
X228600000Y-71120000D03*
X228600000Y-66040000D03*
%TD*%
D13*
%TO.C,R3*%
X123175000Y-69600000D03*
X125000000Y-69600000D03*
%TD*%
D24*
%TO.C,Y1*%
X134300000Y-81350000D03*
X132100000Y-81350000D03*
X132100000Y-83050000D03*
X134300000Y-83050000D03*
%TD*%
D13*
%TO.C,R5*%
X139487500Y-47600000D03*
X141312500Y-47600000D03*
%TD*%
D11*
%TO.C,C5*%
X154550000Y-58800000D03*
X152650000Y-58800000D03*
%TD*%
D10*
%TO.C,SW4*%
X76200000Y-76200000D03*
X76200000Y-71120000D03*
X76200000Y-66040000D03*
%TD*%
D11*
%TO.C,C4*%
X150900000Y-76000000D03*
X149000000Y-76000000D03*
%TD*%
D25*
%TO.C,C1*%
X137050000Y-83000000D03*
X138950000Y-83000000D03*
%TD*%
D10*
%TO.C,SW9*%
X171450000Y-95250000D03*
X171450000Y-90170000D03*
X171450000Y-85090000D03*
%TD*%
D13*
%TO.C,R2*%
X152737500Y-64200000D03*
X154562500Y-64200000D03*
%TD*%
%TO.C,R1*%
X115375000Y-79600000D03*
X117200000Y-79600000D03*
%TD*%
D25*
%TO.C,C6*%
X121700000Y-79600000D03*
X123600000Y-79600000D03*
%TD*%
M02*
