M48
; DRILL file KiCad 10.99.0-6e8e92d84a date 2026-09-22T21:57:25
; FORMAT={-:-/ absolute / metric / decimal}
; #@! TF.CreationDate,2026-09-22T21:57:25-04:00
; #@! TF.GenerationSoftware,Kicad,Pcbnew,10.99.0-6e8e92d84a
; #@! TF.FileFunction,Plated,1,2,PTH
FMAT,2
METRIC
; #@! TA.AperFunction,Plated,PTH,ViaDrill
T1C0.300
; #@! TA.AperFunction,Plated,PTH,ComponentDrill
T2C1.000
%
G90
G05
T1
X87.2Y-71.2
X118.351Y-71.6
X119.151Y-71.6
X120.0Y-71.6
X125.8Y-76.8
X129.0Y-73.4
X129.4Y-69.6
X129.4Y-78.8
X131.8Y-74.8
X133.8Y-68.2
X134.2Y-42.4
X134.2Y-74.8
X135.012Y-74.935
X135.8Y-74.8
X137.2Y-48.0
X137.4Y-55.6
X137.6Y-45.4
X139.4Y-76.0
X140.0Y-79.4
X156.6Y-74.0
X156.6Y-74.8
X158.0Y-68.4
X159.2Y-77.2
X161.2Y-73.6
X164.804Y-77.596
X171.2Y-70.6
X196.8Y-76.2
X198.8Y-71.923
T2
X38.1Y-66.04
X38.1Y-71.12
X38.1Y-76.2
X57.15Y-66.04
X57.15Y-71.12
X57.15Y-76.2
X76.2Y-66.04
X76.2Y-71.12
X76.2Y-76.2
X95.25Y-85.09
X95.25Y-90.17
X95.25Y-95.25
X171.45Y-85.09
X171.45Y-90.17
X171.45Y-95.25
X190.5Y-66.04
X190.5Y-71.12
X190.5Y-76.2
X209.55Y-66.04
X209.55Y-71.12
X209.55Y-76.2
X228.6Y-66.04
X228.6Y-71.12
X228.6Y-76.2
M30
