%TF.GenerationSoftware,KiCad,Pcbnew,10.99.0-6e8e92d84a*%
%TF.CreationDate,2026-09-22T21:57:00-04:00*%
%TF.ProjectId,8Key,384b6579-2e6b-4696-9361-645f70636258,rev?*%
%TF.SameCoordinates,Original*%
%TF.FileFunction,Copper,L1,Top*%
%TF.FilePolarity,Positive*%
%FSLAX46Y46*%
G04 Gerber Fmt 4.6, Leading zero omitted, Abs format (unit mm)*
G04 Created by KiCad (PCBNEW 10.99.0-6e8e92d84a) date 2026-09-22 21:57:00*
%MOMM*%
%LPD*%
G01*
G04 APERTURE LIST*
G04 Aperture macros list*
%AMRoundRect*
0 Rectangle with rounded corners*
0 $1 Rounding radius*
0 $2 $3 $4 $5 $6 $7 $8 $9 X,Y pos of 4 corners*
0 Add a 4 corners polygon primitive as box body*
4,1,4,$2,$3,$4,$5,$6,$7,$8,$9,$2,$3,0*
0 Add four circle primitives for the rounded corners*
1,1,$1+$1,$2,$3*
1,1,$1+$1,$4,$5*
1,1,$1+$1,$6,$7*
1,1,$1+$1,$8,$9*
0 Add four rect primitives between the rounded corners*
20,1,$1+$1,$2,$3,$4,$5,0*
20,1,$1+$1,$4,$5,$6,$7,0*
20,1,$1+$1,$6,$7,$8,$9,0*
20,1,$1+$1,$8,$9,$2,$3,0*%
G04 Aperture macros list end*
%TA.AperFunction,ComponentPad*%
%ADD10C,1.700000*%
%TD*%
%TA.AperFunction,SMDPad,CuDef*%
%ADD11RoundRect,0.250000X0.250000X0.475000X-0.250000X0.475000X-0.250000X-0.475000X0.250000X-0.475000X0*%
%TD*%
%TA.AperFunction,SMDPad,CuDef*%
%ADD12RoundRect,0.250000X-0.325000X-0.650000X0.325000X-0.650000X0.325000X0.650000X-0.325000X0.650000X0*%
%TD*%
%TA.AperFunction,SMDPad,CuDef*%
%ADD13RoundRect,0.250000X-0.262500X-0.450000X0.262500X-0.450000X0.262500X0.450000X-0.262500X0.450000X0*%
%TD*%
%TA.AperFunction,SMDPad,CuDef*%
%ADD14RoundRect,0.150000X0.150000X0.425000X-0.150000X0.425000X-0.150000X-0.425000X0.150000X-0.425000X0*%
%TD*%
%TA.AperFunction,SMDPad,CuDef*%
%ADD15RoundRect,0.075000X0.075000X0.500000X-0.075000X0.500000X-0.075000X-0.500000X0.075000X-0.500000X0*%
%TD*%
%TA.AperFunction,SMDPad,CuDef*%
%ADD16RoundRect,0.250000X0.840000X0.750000X-0.840000X0.750000X-0.840000X-0.750000X0.840000X-0.750000X0*%
%TD*%
%TA.AperFunction,SMDPad,CuDef*%
%ADD17RoundRect,0.200000X0.200000X0.800000X-0.200000X0.800000X-0.200000X-0.800000X0.200000X-0.800000X0*%
%TD*%
%TA.AperFunction,SMDPad,CuDef*%
%ADD18RoundRect,0.250000X0.475000X-0.250000X0.475000X0.250000X-0.475000X0.250000X-0.475000X-0.250000X0*%
%TD*%
%TA.AperFunction,SMDPad,CuDef*%
%ADD19RoundRect,0.137500X-0.600000X-0.137500X0.600000X-0.137500X0.600000X0.137500X-0.600000X0.137500X0*%
%TD*%
%TA.AperFunction,SMDPad,CuDef*%
%ADD20RoundRect,0.137500X-0.137500X-0.600000X0.137500X-0.600000X0.137500X0.600000X-0.137500X0.600000X0*%
%TD*%
%TA.AperFunction,SMDPad,CuDef*%
%ADD21RoundRect,0.150000X-0.150000X0.825000X-0.150000X-0.825000X0.150000X-0.825000X0.150000X0.825000X0*%
%TD*%
%TA.AperFunction,SMDPad,CuDef*%
%ADD22RoundRect,0.250000X0.262500X0.450000X-0.262500X0.450000X-0.262500X-0.450000X0.262500X-0.450000X0*%
%TD*%
%TA.AperFunction,SMDPad,CuDef*%
%ADD23RoundRect,0.250000X0.450000X0.350000X-0.450000X0.350000X-0.450000X-0.350000X0.450000X-0.350000X0*%
%TD*%
%TA.AperFunction,SMDPad,CuDef*%
%ADD24RoundRect,0.250000X-0.250000X-0.475000X0.250000X-0.475000X0.250000X0.475000X-0.250000X0.475000X0*%
%TD*%
%TA.AperFunction,ViaPad*%
%ADD25C,0.600000*%
%TD*%
%TA.AperFunction,Conductor*%
%ADD26C,0.200000*%
%TD*%
G04 APERTURE END LIST*
D10*
%TO.P,SW2,1,C_1*%
%TO.N,GND*%
X38100000Y-76200000D03*
%TO.P,SW2,2,NO_2*%
%TO.N,Net-(SW2-NO)*%
X38100000Y-71120000D03*
%TO.P,SW2,3,NC_3*%
%TO.N,Net-(SW2-NC)*%
X38100000Y-66040000D03*
%TD*%
D11*
%TO.P,C2,1*%
%TO.N,Net-(U1-XTAL2)*%
X129350000Y-83000000D03*
%TO.P,C2,2*%
%TO.N,GND*%
X127450000Y-83000000D03*
%TD*%
D12*
%TO.P,C7,1*%
%TO.N,VBUS*%
X144125000Y-55400000D03*
%TO.P,C7,2*%
%TO.N,GND*%
X147075000Y-55400000D03*
%TD*%
D10*
%TO.P,SW8,1,C_1*%
%TO.N,GND*%
X190500000Y-76200000D03*
%TO.P,SW8,2,NO_2*%
%TO.N,Net-(SW8-NO)*%
X190500000Y-71120000D03*
%TO.P,SW8,3,NC_3*%
%TO.N,Net-(SW8-NC)*%
X190500000Y-66040000D03*
%TD*%
%TO.P,SW7,1,C_1*%
%TO.N,GND*%
X209550000Y-76200000D03*
%TO.P,SW7,2,NO_2*%
%TO.N,Net-(SW7-NO)*%
X209550000Y-71120000D03*
%TO.P,SW7,3,NC_3*%
%TO.N,Net-(SW7-NC)*%
X209550000Y-66040000D03*
%TD*%
D13*
%TO.P,R4,1*%
%TO.N,D-*%
X123175000Y-67600000D03*
%TO.P,R4,2*%
%TO.N,Net-(U1-D-)*%
X125000000Y-67600000D03*
%TD*%
D14*
%TO.P,J1,A1,GND_A1*%
%TO.N,GND*%
X136800000Y-43680000D03*
%TO.P,J1,A4,VBUS_A4*%
%TO.N,VBUS*%
X136000000Y-43680000D03*
D15*
%TO.P,J1,A5,CC1_A5*%
%TO.N,Net-(J1-CC1)*%
X134850000Y-43680000D03*
%TO.P,J1,A6,D+_A6*%
%TO.N,Net-(J1-D+-PadA6)*%
X133850000Y-43680000D03*
%TO.P,J1,A7,D-_A7*%
%TO.N,Net-(J1-D--PadA7)*%
X133350000Y-43680000D03*
%TO.P,J1,A8*%
%TO.N,N/C*%
X132350000Y-43680000D03*
D14*
%TO.P,J1,A9,VBUS_A9*%
%TO.N,VBUS*%
X131200000Y-43680000D03*
%TO.P,J1,A12,GND_A12*%
%TO.N,GND*%
X130400000Y-43680000D03*
%TO.P,J1,B1,GND_B1*%
X130400000Y-43680000D03*
%TO.P,J1,B4,VBUS_B4*%
%TO.N,VBUS*%
X131200000Y-43680000D03*
D15*
%TO.P,J1,B5,CC2_B5*%
%TO.N,Net-(J1-CC2)*%
X131850000Y-43680000D03*
%TO.P,J1,B6,D+_B6*%
%TO.N,Net-(J1-D+-PadA6)*%
X132850000Y-43680000D03*
%TO.P,J1,B7,D-_B7*%
%TO.N,Net-(J1-D--PadA7)*%
X134350000Y-43680000D03*
%TO.P,J1,B8*%
%TO.N,N/C*%
X135350000Y-43680000D03*
D14*
%TO.P,J1,B9,VBUS_B9*%
%TO.N,VBUS*%
X136000000Y-43680000D03*
%TO.P,J1,B12,GND_B12*%
%TO.N,GND*%
X136800000Y-43680000D03*
D16*
%TO.P,J1,SH,SHIELD_SH*%
X138710000Y-43105000D03*
X138710000Y-39175000D03*
X128490000Y-43105000D03*
X128490000Y-39175000D03*
%TD*%
D17*
%TO.P,SW1,1,1_1*%
%TO.N,GND*%
X122000000Y-85600000D03*
%TO.P,SW1,2,2_2*%
%TO.N,Net-(U1-~{RESET})*%
X117800000Y-85600000D03*
%TD*%
D18*
%TO.P,C3,1*%
%TO.N,Net-(U1-UCAP)*%
X117800000Y-66100000D03*
%TO.P,C3,2*%
%TO.N,GND*%
X117800000Y-64200000D03*
%TD*%
D19*
%TO.P,U1,1,PE6_1*%
%TO.N,unconnected-(U1-PE6-Pad1)*%
X127737500Y-66600000D03*
%TO.P,U1,2,UVCC_2*%
%TO.N,VBUS*%
X127737500Y-67400000D03*
%TO.P,U1,3,D-_3*%
%TO.N,Net-(U1-D-)*%
X127737500Y-68200000D03*
%TO.P,U1,4,D+_4*%
%TO.N,Net-(U1-D+)*%
X127737500Y-69000000D03*
%TO.P,U1,5,UGND_5*%
%TO.N,GND*%
X127737500Y-69800000D03*
%TO.P,U1,6,UCAP_6*%
%TO.N,Net-(U1-UCAP)*%
X127737500Y-70600000D03*
%TO.P,U1,7,VBUS_7*%
%TO.N,VBUS*%
X127737500Y-71400000D03*
%TO.P,U1,8,PB0_8*%
%TO.N,Net-(SW2-NO)*%
X127737500Y-72200000D03*
%TO.P,U1,9,PB1_9*%
%TO.N,Net-(SW3-NO)*%
X127737500Y-73000000D03*
%TO.P,U1,10,PB2_10*%
%TO.N,Net-(SW4-NO)*%
X127737500Y-73800000D03*
%TO.P,U1,11,PB3_11*%
%TO.N,Net-(SW5-NO)*%
X127737500Y-74600000D03*
D20*
%TO.P,U1,12,PB7_12*%
%TO.N,Net-(SW9-NO)*%
X129400000Y-76262500D03*
%TO.P,U1,13,~{RESET}_13*%
%TO.N,Net-(U1-~{RESET})*%
X130200000Y-76262500D03*
%TO.P,U1,14,VCC_14*%
%TO.N,VBUS*%
X131000000Y-76262500D03*
%TO.P,U1,15,GND_15*%
%TO.N,GND*%
X131800000Y-76262500D03*
%TO.P,U1,16,XTAL2_16*%
%TO.N,Net-(U1-XTAL2)*%
X132600000Y-76262500D03*
%TO.P,U1,17,XTAL1_17*%
%TO.N,Net-(U1-XTAL1)*%
X133400000Y-76262500D03*
%TO.P,U1,18,PD0_18*%
%TO.N,Net-(SW2-NC)*%
X134200000Y-76262500D03*
%TO.P,U1,19,PD1_19*%
%TO.N,Net-(SW3-NC)*%
X135000000Y-76262500D03*
%TO.P,U1,20,PD2_20*%
%TO.N,Net-(SW4-NC)*%
X135800000Y-76262500D03*
%TO.P,U1,21,PD3_21*%
%TO.N,Net-(SW5-NC)*%
X136600000Y-76262500D03*
%TO.P,U1,22,PD5_22*%
%TO.N,Net-(SW7-NC)*%
X137400000Y-76262500D03*
D19*
%TO.P,U1,23,GND_23*%
%TO.N,GND*%
X139062500Y-74600000D03*
%TO.P,U1,24,AVCC_24*%
%TO.N,VBUS*%
X139062500Y-73800000D03*
%TO.P,U1,25,PD4_25*%
%TO.N,Net-(SW6-NC)*%
X139062500Y-73000000D03*
%TO.P,U1,26,PD6_26*%
%TO.N,Net-(SW8-NC)*%
X139062500Y-72200000D03*
%TO.P,U1,27,PD7_27*%
%TO.N,Net-(SW9-NC)*%
X139062500Y-71400000D03*
%TO.P,U1,28,PB4_28*%
%TO.N,Net-(SW6-NO)*%
X139062500Y-70600000D03*
%TO.P,U1,29,PB5_29*%
%TO.N,Net-(SW7-NO)*%
X139062500Y-69800000D03*
%TO.P,U1,30,PB6_30*%
%TO.N,Net-(SW8-NO)*%
X139062500Y-69000000D03*
%TO.P,U1,31,PC6_31*%
%TO.N,unconnected-(U1-PC6-Pad31)*%
X139062500Y-68200000D03*
%TO.P,U1,32,PC7_32*%
%TO.N,unconnected-(U1-PC7-Pad32)*%
X139062500Y-67400000D03*
%TO.P,U1,33,~{HWB}/PE2_33*%
%TO.N,Net-(U1-~{HWB}{slash}PE2)*%
X139062500Y-66600000D03*
D20*
%TO.P,U1,34,VCC_34*%
%TO.N,VBUS*%
X137400000Y-64937500D03*
%TO.P,U1,35,GND_35*%
%TO.N,GND*%
X136600000Y-64937500D03*
%TO.P,U1,36,PF7_36*%
%TO.N,unconnected-(U1-PF7-Pad36)*%
X135800000Y-64937500D03*
%TO.P,U1,37,PF6_37*%
%TO.N,unconnected-(U1-PF6-Pad37)*%
X135000000Y-64937500D03*
%TO.P,U1,38,PF5_38*%
%TO.N,unconnected-(U1-PF5-Pad38)*%
X134200000Y-64937500D03*
%TO.P,U1,39,PF4_39*%
%TO.N,unconnected-(U1-PF4-Pad39)*%
X133400000Y-64937500D03*
%TO.P,U1,40,PF1_40*%
%TO.N,unconnected-(U1-PF1-Pad40)*%
X132600000Y-64937500D03*
%TO.P,U1,41,PF0_41*%
%TO.N,unconnected-(U1-PF0-Pad41)*%
X131800000Y-64937500D03*
%TO.P,U1,42,AREF_42*%
%TO.N,unconnected-(U1-AREF-Pad42)*%
X131000000Y-64937500D03*
%TO.P,U1,43,GND_43*%
%TO.N,GND*%
X130200000Y-64937500D03*
%TO.P,U1,44,AVCC_44*%
%TO.N,VBUS*%
X129400000Y-64937500D03*
%TD*%
D21*
%TO.P,U2,1,VBUS_1*%
%TO.N,VBUS*%
X135505000Y-47325000D03*
%TO.P,U2,2,I/O1_2*%
%TO.N,Net-(J1-D--PadA7)*%
X134235000Y-47325000D03*
%TO.P,U2,3,I/O2_3*%
%TO.N,Net-(J1-D+-PadA6)*%
X132965000Y-47325000D03*
%TO.P,U2,4,GND_4*%
%TO.N,GND*%
X131695000Y-47325000D03*
%TO.P,U2,5,GND_5*%
X131695000Y-52275000D03*
%TO.P,U2,6,I/O2_6*%
%TO.N,D+*%
X132965000Y-52275000D03*
%TO.P,U2,7,I/O1_7*%
%TO.N,D-*%
X134235000Y-52275000D03*
%TO.P,U2,8,VBUS_8*%
%TO.N,VBUS*%
X135505000Y-52275000D03*
%TD*%
D10*
%TO.P,SW5,1,C_1*%
%TO.N,GND*%
X95250000Y-95250000D03*
%TO.P,SW5,2,NO_2*%
%TO.N,Net-(SW5-NO)*%
X95250000Y-90170000D03*
%TO.P,SW5,3,NC_3*%
%TO.N,Net-(SW5-NC)*%
X95250000Y-85090000D03*
%TD*%
D22*
%TO.P,R6,1*%
%TO.N,Net-(J1-CC2)*%
X125912500Y-47800000D03*
%TO.P,R6,2*%
%TO.N,GND*%
X124087500Y-47800000D03*
%TD*%
D10*
%TO.P,SW3,1,C_1*%
%TO.N,GND*%
X57150000Y-76200000D03*
%TO.P,SW3,2,NO_2*%
%TO.N,Net-(SW3-NO)*%
X57150000Y-71120000D03*
%TO.P,SW3,3,NC_3*%
%TO.N,Net-(SW3-NC)*%
X57150000Y-66040000D03*
%TD*%
%TO.P,SW6,1,C_1*%
%TO.N,GND*%
X228600000Y-76200000D03*
%TO.P,SW6,2,NO_2*%
%TO.N,Net-(SW6-NO)*%
X228600000Y-71120000D03*
%TO.P,SW6,3,NC_3*%
%TO.N,Net-(SW6-NC)*%
X228600000Y-66040000D03*
%TD*%
D13*
%TO.P,R3,1*%
%TO.N,D+*%
X123175000Y-69600000D03*
%TO.P,R3,2*%
%TO.N,Net-(U1-D+)*%
X125000000Y-69600000D03*
%TD*%
D23*
%TO.P,Y1,1,1_1*%
%TO.N,Net-(U1-XTAL1)*%
X134300000Y-81350000D03*
%TO.P,Y1,2,G_2*%
%TO.N,GND*%
X132100000Y-81350000D03*
%TO.P,Y1,3,3_3*%
%TO.N,Net-(U1-XTAL2)*%
X132100000Y-83050000D03*
%TO.P,Y1,4,G_4*%
%TO.N,GND*%
X134300000Y-83050000D03*
%TD*%
D13*
%TO.P,R5,1*%
%TO.N,Net-(J1-CC1)*%
X139487500Y-47600000D03*
%TO.P,R5,2*%
%TO.N,GND*%
X141312500Y-47600000D03*
%TD*%
D11*
%TO.P,C5,1*%
%TO.N,GND*%
X154550000Y-58800000D03*
%TO.P,C5,2*%
%TO.N,VBUS*%
X152650000Y-58800000D03*
%TD*%
D10*
%TO.P,SW4,1,C_1*%
%TO.N,GND*%
X76200000Y-76200000D03*
%TO.P,SW4,2,NO_2*%
%TO.N,Net-(SW4-NO)*%
X76200000Y-71120000D03*
%TO.P,SW4,3,NC_3*%
%TO.N,Net-(SW4-NC)*%
X76200000Y-66040000D03*
%TD*%
D11*
%TO.P,C4,1*%
%TO.N,GND*%
X150900000Y-76000000D03*
%TO.P,C4,2*%
%TO.N,VBUS*%
X149000000Y-76000000D03*
%TD*%
D24*
%TO.P,C1,1*%
%TO.N,Net-(U1-XTAL1)*%
X137050000Y-83000000D03*
%TO.P,C1,2*%
%TO.N,GND*%
X138950000Y-83000000D03*
%TD*%
D10*
%TO.P,SW9,1,C_1*%
%TO.N,GND*%
X171450000Y-95250000D03*
%TO.P,SW9,2,NO_2*%
%TO.N,Net-(SW9-NO)*%
X171450000Y-90170000D03*
%TO.P,SW9,3,NC_3*%
%TO.N,Net-(SW9-NC)*%
X171450000Y-85090000D03*
%TD*%
D13*
%TO.P,R2,1*%
%TO.N,Net-(U1-~{HWB}{slash}PE2)*%
X152737500Y-64200000D03*
%TO.P,R2,2*%
%TO.N,GND*%
X154562500Y-64200000D03*
%TD*%
%TO.P,R1,1*%
%TO.N,VBUS*%
X115375000Y-79600000D03*
%TO.P,R1,2*%
%TO.N,Net-(U1-~{RESET})*%
X117200000Y-79600000D03*
%TD*%
D24*
%TO.P,C6,1*%
%TO.N,GND*%
X121700000Y-79600000D03*
%TO.P,C6,2*%
%TO.N,VBUS*%
X123600000Y-79600000D03*
%TD*%
D25*
%TO.N,GND*%
X87200000Y-71200000D03*
X133800000Y-68200000D03*
X134200000Y-42400000D03*
X137200000Y-48000000D03*
X125800000Y-76800000D03*
X137400000Y-55600000D03*
X129000000Y-73400000D03*
X129400000Y-69600000D03*
X139400000Y-76000000D03*
X137600000Y-45400000D03*
X171200000Y-70600000D03*
X131800000Y-74800000D03*
%TO.N,Net-(SW2-NC)*%
X134200000Y-74800000D03*
X118351470Y-71600000D03*
%TO.N,Net-(SW8-NC)*%
X158000000Y-68400000D03*
X156600000Y-74000000D03*
%TO.N,Net-(SW7-NC)*%
X198800000Y-71922528D03*
X196800000Y-76200000D03*
X164804265Y-77595735D03*
X159200000Y-77200000D03*
%TO.N,Net-(SW9-NO)*%
X129400000Y-78800000D03*
X140000000Y-79400000D03*
%TO.N,Net-(SW3-NC)*%
X119151473Y-71600000D03*
X135011518Y-74935283D03*
%TO.N,Net-(SW4-NC)*%
X135800000Y-74800000D03*
X120000000Y-71600000D03*
%TO.N,Net-(SW6-NC)*%
X156600000Y-74800003D03*
X161200000Y-73600000D03*
%TD*%
%TO.N,GND*%
D26*
X137375000Y-43105000D02*
X138710000Y-43105000D01*
X141312500Y-45707500D02*
X138710000Y-43105000D01*
X124087500Y-47800000D02*
X124087500Y-47507500D01*
X141312500Y-47600000D02*
X141312500Y-45707500D01*
X130400000Y-43680000D02*
X129065000Y-43680000D01*
X136800000Y-43680000D02*
X137375000Y-43105000D01*
X124087500Y-47507500D02*
X128490000Y-43105000D01*
X129065000Y-43680000D02*
X128490000Y-43105000D01*
%TO.N,Net-(SW2-NO)*%
X95400000Y-72200000D02*
X92770000Y-69570000D01*
X39650000Y-69570000D02*
X38100000Y-71120000D01*
X92770000Y-69570000D02*
X39650000Y-69570000D01*
X127737500Y-72200000D02*
X95400000Y-72200000D01*
%TO.N,Net-(SW2-NC)*%
X40001470Y-67941470D02*
X114692940Y-67941470D01*
X114692940Y-67941470D02*
X118351470Y-71600000D01*
X38100000Y-66040000D02*
X40001470Y-67941470D01*
X134200000Y-74800000D02*
X134200000Y-76262500D01*
%TO.N,Net-(U1-XTAL2)*%
X132050000Y-83000000D02*
X132100000Y-83050000D01*
X133192157Y-80807843D02*
X132600000Y-80215686D01*
X133192157Y-81957843D02*
X133192157Y-80807843D01*
X129350000Y-83000000D02*
X132050000Y-83000000D01*
X132600000Y-80215686D02*
X132600000Y-76262500D01*
X132100000Y-83050000D02*
X133192157Y-81957843D01*
%TO.N,VBUS*%
X144125000Y-52025000D02*
X140300000Y-48200000D01*
X143537500Y-58800000D02*
X152650000Y-58800000D01*
X135505000Y-52275000D02*
X136325000Y-52275000D01*
X127737500Y-67400000D02*
X128474999Y-67400000D01*
X131000000Y-79600000D02*
X130600000Y-80000000D01*
X140300000Y-48200000D02*
X140300000Y-46915256D01*
X136000000Y-44095552D02*
X136000000Y-43680000D01*
X140300000Y-46915256D02*
X137939744Y-44555000D01*
X126400000Y-66000000D02*
X126400000Y-66799999D01*
X132200000Y-60200000D02*
X126400000Y-66000000D01*
X129474999Y-66474999D02*
X130600000Y-67600000D01*
X128474999Y-67400000D02*
X129400000Y-66474999D01*
X136000000Y-43680000D02*
X136000000Y-43105001D01*
X141822528Y-76000000D02*
X139622528Y-73800000D01*
X140300000Y-48300000D02*
X140300000Y-48200000D01*
X137400000Y-64937500D02*
X143537500Y-58800000D01*
X131000000Y-73925001D02*
X130437500Y-73362500D01*
X129400000Y-66474999D02*
X129400000Y-64937500D01*
X136459448Y-44555000D02*
X136000000Y-44095552D01*
X128474999Y-71400000D02*
X127737500Y-71400000D01*
X126400000Y-66799999D02*
X127000001Y-67400000D01*
X128600000Y-75200000D02*
X130437500Y-73362500D01*
X127000001Y-67400000D02*
X127737500Y-67400000D01*
X130600000Y-71200000D02*
X129437500Y-72362500D01*
X128200000Y-79600000D02*
X123600000Y-79600000D01*
X137400000Y-64937500D02*
X137400000Y-72874999D01*
X129437500Y-72362500D02*
X128474999Y-71400000D01*
X138325001Y-73800000D02*
X139062500Y-73800000D01*
X131200000Y-43200000D02*
X131200000Y-43680000D01*
X131000000Y-76262500D02*
X131000000Y-73925001D01*
X129400000Y-66474999D02*
X129474999Y-66474999D01*
X134094999Y-41200000D02*
X133200000Y-41200000D01*
X149000000Y-76000000D02*
X141822528Y-76000000D01*
X137400000Y-72874999D02*
X138325001Y-73800000D01*
X136349998Y-73925001D02*
X131000000Y-73925001D01*
X136000000Y-43105001D02*
X134094999Y-41200000D01*
X139325000Y-60200000D02*
X132200000Y-60200000D01*
X115375000Y-79600000D02*
X119775000Y-75200000D01*
X131000000Y-76262500D02*
X131000000Y-79600000D01*
X144125000Y-55400000D02*
X139325000Y-60200000D01*
X130600000Y-80000000D02*
X128600000Y-80000000D01*
X135505000Y-47325000D02*
X135505000Y-52275000D01*
X139622528Y-73800000D02*
X139062500Y-73800000D01*
X137400000Y-72874999D02*
X136349998Y-73925001D01*
X130600000Y-67600000D02*
X130600000Y-71200000D01*
X136325000Y-52275000D02*
X140300000Y-48300000D01*
X130437500Y-73362500D02*
X129437500Y-72362500D01*
X119775000Y-75200000D02*
X128600000Y-75200000D01*
X137939744Y-44555000D02*
X136459448Y-44555000D01*
X133200000Y-41200000D02*
X131200000Y-43200000D01*
X128600000Y-80000000D02*
X128200000Y-79600000D01*
X144125000Y-55400000D02*
X144125000Y-52025000D01*
%TO.N,Net-(SW8-NO)*%
X188380000Y-69000000D02*
X139062500Y-69000000D01*
X190500000Y-71120000D02*
X188380000Y-69000000D01*
%TO.N,Net-(SW8-NC)*%
X156600000Y-74000000D02*
X141422528Y-74000000D01*
X160360000Y-66040000D02*
X158000000Y-68400000D01*
X190500000Y-66040000D02*
X160360000Y-66040000D01*
X141422528Y-74000000D02*
X139622528Y-72200000D01*
X139622528Y-72200000D02*
X139062500Y-72200000D01*
%TO.N,Net-(SW7-NO)*%
X142522527Y-72522528D02*
X139799999Y-69800000D01*
X139799999Y-69800000D02*
X139062500Y-69800000D01*
X209550000Y-71120000D02*
X208147472Y-72522528D01*
X208147472Y-72522528D02*
X142522527Y-72522528D01*
%TO.N,Net-(SW7-NC)*%
X164804265Y-77595735D02*
X167008530Y-79800000D01*
X194838236Y-76200000D02*
X196800000Y-76200000D01*
X137400000Y-76999999D02*
X137400000Y-76262500D01*
X137600000Y-77200000D02*
X137400000Y-76999999D01*
X167008530Y-79800000D02*
X191238236Y-79800000D01*
X191238236Y-79800000D02*
X194838236Y-76200000D01*
X159200000Y-77200000D02*
X137600000Y-77200000D01*
X203667472Y-71922528D02*
X198800000Y-71922528D01*
X209550000Y-66040000D02*
X203667472Y-71922528D01*
%TO.N,D-*%
X133825000Y-53893198D02*
X121425000Y-66293198D01*
X134235000Y-52950000D02*
X133825000Y-53360000D01*
X122159099Y-68640901D02*
X123175000Y-67625000D01*
X133825000Y-53360000D02*
X133825000Y-53893198D01*
X134235000Y-52275000D02*
X134235000Y-52950000D01*
X123175000Y-67625000D02*
X123175000Y-67600000D01*
X121425000Y-67906802D02*
X122159099Y-68640901D01*
X121425000Y-66293198D02*
X121425000Y-67906802D01*
%TO.N,Net-(U1-D-)*%
X125600000Y-68200000D02*
X127737500Y-68200000D01*
X125000000Y-67600000D02*
X125600000Y-68200000D01*
%TO.N,Net-(J1-CC1)*%
X134850000Y-44287410D02*
X138162590Y-47600000D01*
X138162590Y-47600000D02*
X139487500Y-47600000D01*
X134850000Y-43680000D02*
X134850000Y-44287410D01*
%TO.N,Net-(J1-D+-PadA6)*%
X133050000Y-47210000D02*
X133165000Y-47325000D01*
X133850000Y-43050000D02*
X133850000Y-43680000D01*
X132850000Y-43680000D02*
X132850000Y-43072590D01*
X133605000Y-42805000D02*
X133850000Y-43050000D01*
X132850000Y-43680000D02*
X132850000Y-47210000D01*
X132850000Y-47210000D02*
X132965000Y-47325000D01*
X132850000Y-43072590D02*
X133117590Y-42805000D01*
X133117590Y-42805000D02*
X133605000Y-42805000D01*
%TO.N,Net-(J1-D--PadA7)*%
X133350000Y-44287410D02*
X133350000Y-43680000D01*
X134082410Y-44555000D02*
X134082410Y-44682410D01*
X134082410Y-44682410D02*
X134235000Y-44835000D01*
X134350000Y-44287410D02*
X134082410Y-44555000D01*
X134350000Y-43680000D02*
X134350000Y-44287410D01*
X134082410Y-44555000D02*
X133617590Y-44555000D01*
X134235000Y-44835000D02*
X134235000Y-47325000D01*
X133617590Y-44555000D02*
X133350000Y-44287410D01*
%TO.N,Net-(J1-CC2)*%
X125912500Y-47800000D02*
X128304999Y-47800000D01*
X128304999Y-47800000D02*
X131850000Y-44254999D01*
X131850000Y-44254999D02*
X131850000Y-43680000D01*
%TO.N,Net-(U1-~{RESET})*%
X130200000Y-76262500D02*
X130200000Y-78848529D01*
X128565685Y-79400000D02*
X127740685Y-78575000D01*
X118225000Y-78575000D02*
X117200000Y-79600000D01*
X129648529Y-79400000D02*
X128565685Y-79400000D01*
X127740685Y-78575000D02*
X118225000Y-78575000D01*
X117200000Y-85000000D02*
X117800000Y-85600000D01*
X117200000Y-79600000D02*
X117200000Y-85000000D01*
X130200000Y-78848529D02*
X129648529Y-79400000D01*
%TO.N,Net-(U1-UCAP)*%
X127737500Y-70600000D02*
X122300000Y-70600000D01*
X122300000Y-70600000D02*
X117800000Y-66100000D01*
%TO.N,Net-(U1-D+)*%
X125600000Y-69000000D02*
X127737500Y-69000000D01*
X125000000Y-69600000D02*
X125600000Y-69000000D01*
%TO.N,Net-(SW3-NO)*%
X127737500Y-73000000D02*
X79706346Y-73000000D01*
X79706346Y-73000000D02*
X76676346Y-69970000D01*
X58300000Y-69970000D02*
X57150000Y-71120000D01*
X76676346Y-69970000D02*
X58300000Y-69970000D01*
%TO.N,Net-(SW4-NO)*%
X127737500Y-73800000D02*
X78880000Y-73800000D01*
X78880000Y-73800000D02*
X76200000Y-71120000D01*
%TO.N,Net-(SW5-NO)*%
X127737500Y-74600000D02*
X110820000Y-74600000D01*
X110820000Y-74600000D02*
X95250000Y-90170000D01*
%TO.N,Net-(SW9-NO)*%
X160680000Y-79400000D02*
X171450000Y-90170000D01*
X129400000Y-78800000D02*
X129400000Y-76262500D01*
X140000000Y-79400000D02*
X160680000Y-79400000D01*
%TO.N,Net-(U1-XTAL1)*%
X133600000Y-80200000D02*
X133400000Y-80000000D01*
X135400000Y-80400000D02*
X135200000Y-80200000D01*
X135250000Y-81350000D02*
X135400000Y-81200000D01*
X135400000Y-81350000D02*
X134300000Y-81350000D01*
X135200000Y-80200000D02*
X133600000Y-80200000D01*
X135400000Y-81200000D02*
X135400000Y-80400000D01*
X137050000Y-83000000D02*
X135400000Y-81350000D01*
X134300000Y-81350000D02*
X135250000Y-81350000D01*
X133400000Y-80000000D02*
X133400000Y-76262500D01*
%TO.N,Net-(SW3-NC)*%
X57150000Y-66040000D02*
X58300000Y-67190000D01*
X135011518Y-74935283D02*
X135011518Y-76250982D01*
X58300000Y-67190000D02*
X115024314Y-67190000D01*
X115024314Y-67190000D02*
X119151473Y-71317159D01*
X119151473Y-71317159D02*
X119151473Y-71600000D01*
X135011518Y-76250982D02*
X135000000Y-76262500D01*
%TO.N,Net-(SW4-NC)*%
X76200000Y-66040000D02*
X114440000Y-66040000D01*
X135800000Y-74800000D02*
X135800000Y-76262500D01*
X114440000Y-66040000D02*
X120000000Y-71600000D01*
%TO.N,Net-(SW5-NC)*%
X94100000Y-86240000D02*
X95250000Y-85090000D01*
X140400000Y-80799999D02*
X140400000Y-85400000D01*
X134480000Y-91320000D02*
X94773654Y-91320000D01*
X94773654Y-91320000D02*
X94100000Y-90646346D01*
X94100000Y-90646346D02*
X94100000Y-86240000D01*
X136600000Y-76999999D02*
X140400000Y-80799999D01*
X140400000Y-85400000D02*
X134480000Y-91320000D01*
X136600000Y-76262500D02*
X136600000Y-76999999D01*
%TO.N,Net-(SW6-NC)*%
X227746346Y-73600000D02*
X161200000Y-73600000D01*
X156600000Y-74800003D02*
X141600002Y-74800003D01*
X229750000Y-71596346D02*
X227746346Y-73600000D01*
X228600000Y-66040000D02*
X228600000Y-66000000D01*
X139799999Y-73000000D02*
X139062500Y-73000000D01*
X228600000Y-66000000D02*
X229750000Y-67150000D01*
X229750000Y-67150000D02*
X229750000Y-71596346D01*
X141600002Y-74800003D02*
X139799999Y-73000000D01*
%TO.N,Net-(SW9-NC)*%
X171450000Y-85090000D02*
X159760000Y-73400000D01*
X139622528Y-71400000D02*
X139062500Y-71400000D01*
X141622528Y-73400000D02*
X139622528Y-71400000D01*
X159760000Y-73400000D02*
X141622528Y-73400000D01*
%TO.N,Net-(SW6-NO)*%
X226797472Y-72922528D02*
X142122527Y-72922528D01*
X228600000Y-71120000D02*
X226797472Y-72922528D01*
X142122527Y-72922528D02*
X139799999Y-70600000D01*
X139799999Y-70600000D02*
X139062500Y-70600000D01*
%TO.N,Net-(U1-~{HWB}{slash}PE2)*%
X139062500Y-66600000D02*
X150337500Y-66600000D01*
X150337500Y-66600000D02*
X152737500Y-64200000D01*
%TO.N,D+*%
X132965000Y-52950000D02*
X133375000Y-53360000D01*
X133375000Y-53360000D02*
X133375000Y-53706802D01*
X120975000Y-66106802D02*
X120975000Y-68093198D01*
X133375000Y-53706802D02*
X120975000Y-66106802D01*
X122481802Y-69600000D02*
X123175000Y-69600000D01*
X132965000Y-52275000D02*
X132965000Y-52950000D01*
X120975000Y-68093198D02*
X122481802Y-69600000D01*
%TD*%
%TA.AperFunction,Conductor*%
%TO.N,GND*%
G36*
X133970215Y-74247175D02*
G01*
X133991889Y-74299501D01*
X133970215Y-74351827D01*
X133954889Y-74363587D01*
X133892685Y-74399500D01*
X133799500Y-74492685D01*
X133733610Y-74606809D01*
X133733606Y-74606818D01*
X133699500Y-74734105D01*
X133699500Y-74865894D01*
X133733606Y-74993181D01*
X133733610Y-74993190D01*
X133799500Y-75107314D01*
X133877826Y-75185640D01*
X133899500Y-75237966D01*
X133899500Y-75319125D01*
X133877826Y-75371451D01*
X133867947Y-75379740D01*
X133865644Y-75381352D01*
X133852326Y-75394671D01*
X133800000Y-75416345D01*
X133747674Y-75394671D01*
X133734359Y-75381356D01*
X133713118Y-75371451D01*
X133626330Y-75330981D01*
X133626328Y-75330980D01*
X133590063Y-75326206D01*
X133577103Y-75324500D01*
X133577101Y-75324500D01*
X133222898Y-75324500D01*
X133173671Y-75330980D01*
X133173669Y-75330981D01*
X133065640Y-75381356D01*
X133052326Y-75394671D01*
X133000000Y-75416345D01*
X132947674Y-75394671D01*
X132934359Y-75381356D01*
X132913118Y-75371451D01*
X132826330Y-75330981D01*
X132826328Y-75330980D01*
X132790063Y-75326206D01*
X132777103Y-75324500D01*
X132777101Y-75324500D01*
X132520457Y-75324500D01*
X132468131Y-75302826D01*
X132456762Y-75288170D01*
X132445225Y-75268663D01*
X132331334Y-75154772D01*
X132192695Y-75072781D01*
X132050000Y-75031324D01*
X132050000Y-77493675D01*
X132192693Y-77452219D01*
X132196109Y-77450741D01*
X132252739Y-77449850D01*
X132293413Y-77489263D01*
X132299500Y-77518654D01*
X132299500Y-80255250D01*
X132319977Y-80331671D01*
X132319979Y-80331676D01*
X132340086Y-80366501D01*
X132350000Y-80403501D01*
X132350000Y-81276000D01*
X132328326Y-81328326D01*
X132276000Y-81350000D01*
X132100000Y-81350000D01*
X132100000Y-81526000D01*
X132078326Y-81578326D01*
X132026000Y-81600000D01*
X130900001Y-81600000D01*
X130900001Y-81749976D01*
X130910494Y-81852696D01*
X130965642Y-82019121D01*
X131057683Y-82168343D01*
X131057686Y-82168347D01*
X131181653Y-82292314D01*
X131181656Y-82292316D01*
X131257048Y-82338819D01*
X131290205Y-82384736D01*
X131281183Y-82440650D01*
X131277741Y-82445743D01*
X131247208Y-82487115D01*
X131247206Y-82487119D01*
X131202355Y-82615295D01*
X131200750Y-82632410D01*
X131174284Y-82682483D01*
X131127073Y-82699500D01*
X130124500Y-82699500D01*
X130072174Y-82677826D01*
X130050500Y-82625500D01*
X130050500Y-82470740D01*
X130050500Y-82470734D01*
X130047646Y-82440301D01*
X130002793Y-82312118D01*
X129993009Y-82298861D01*
X129922153Y-82202853D01*
X129922146Y-82202846D01*
X129812883Y-82122207D01*
X129812881Y-82122206D01*
X129684704Y-82077355D01*
X129684705Y-82077355D01*
X129684700Y-82077354D01*
X129684699Y-82077354D01*
X129654266Y-82074500D01*
X129045734Y-82074500D01*
X129015301Y-82077354D01*
X129015299Y-82077354D01*
X129015295Y-82077355D01*
X128887118Y-82122206D01*
X128887116Y-82122207D01*
X128777853Y-82202846D01*
X128777846Y-82202853D01*
X128697207Y-82312116D01*
X128697206Y-82312118D01*
X128652355Y-82440295D01*
X128652354Y-82440299D01*
X128652354Y-82440301D01*
X128649500Y-82470734D01*
X128649500Y-83529266D01*
X128652354Y-83559699D01*
X128652354Y-83559701D01*
X128652355Y-83559704D01*
X128697206Y-83687881D01*
X128697207Y-83687883D01*
X128777846Y-83797146D01*
X128777853Y-83797153D01*
X128887116Y-83877792D01*
X128887118Y-83877793D01*
X129015295Y-83922644D01*
X129015301Y-83922646D01*
X129045734Y-83925500D01*
X129045741Y-83925500D01*
X129654258Y-83925500D01*
X129654266Y-83925500D01*
X129684699Y-83922646D01*
X129812882Y-83877793D01*
X129922150Y-83797150D01*
X129924386Y-83794121D01*
X130002792Y-83687883D01*
X130002793Y-83687882D01*
X130047646Y-83559699D01*
X130050500Y-83529266D01*
X130050500Y-83374500D01*
X130072174Y-83322174D01*
X130124500Y-83300500D01*
X131125500Y-83300500D01*
X131177826Y-83322174D01*
X131199500Y-83374500D01*
X131199500Y-83454266D01*
X131202354Y-83484699D01*
X131202354Y-83484701D01*
X131202355Y-83484704D01*
X131247206Y-83612881D01*
X131247207Y-83612883D01*
X131327846Y-83722146D01*
X131327853Y-83722153D01*
X131437116Y-83802792D01*
X131437118Y-83802793D01*
X131565295Y-83847644D01*
X131565301Y-83847646D01*
X131595734Y-83850500D01*
X131595741Y-83850500D01*
X132604258Y-83850500D01*
X132604266Y-83850500D01*
X132634699Y-83847646D01*
X132762882Y-83802793D01*
X132872150Y-83722150D01*
X132874386Y-83719121D01*
X132897441Y-83687882D01*
X132952793Y-83612882D01*
X132972279Y-83557193D01*
X133010018Y-83514964D01*
X133066566Y-83511787D01*
X133108797Y-83549527D01*
X133112370Y-83558358D01*
X133165642Y-83719121D01*
X133257683Y-83868343D01*
X133257686Y-83868347D01*
X133381653Y-83992314D01*
X133381656Y-83992316D01*
X133530878Y-84084357D01*
X133697302Y-84139505D01*
X133800025Y-84149999D01*
X134050000Y-84149999D01*
X134550000Y-84149999D01*
X134799971Y-84149999D01*
X134799976Y-84149998D01*
X134902696Y-84139505D01*
X135069121Y-84084357D01*
X135218343Y-83992316D01*
X135218347Y-83992314D01*
X135342314Y-83868347D01*
X135342316Y-83868343D01*
X135434357Y-83719121D01*
X135489505Y-83552697D01*
X135499999Y-83449975D01*
X135500000Y-83449973D01*
X135500000Y-83300000D01*
X134550000Y-83300000D01*
X134550000Y-84149999D01*
X134050000Y-84149999D01*
X134050000Y-83124000D01*
X134071674Y-83071674D01*
X134124000Y-83050000D01*
X134300000Y-83050000D01*
X134300000Y-82874000D01*
X134321674Y-82821674D01*
X134374000Y-82800000D01*
X135499999Y-82800000D01*
X135499999Y-82650029D01*
X135499998Y-82650023D01*
X135489505Y-82547303D01*
X135434357Y-82380878D01*
X135342316Y-82231656D01*
X135342314Y-82231653D01*
X135218347Y-82107686D01*
X135218343Y-82107683D01*
X135142950Y-82061180D01*
X135109793Y-82015263D01*
X135118815Y-81959349D01*
X135122236Y-81954284D01*
X135152793Y-81912882D01*
X135197646Y-81784699D01*
X135200500Y-81754266D01*
X135200500Y-81754123D01*
X135200507Y-81754105D01*
X135200581Y-81752532D01*
X135201148Y-81752558D01*
X135222174Y-81701797D01*
X135274500Y-81680123D01*
X135326826Y-81701797D01*
X136327826Y-82702797D01*
X136349500Y-82755123D01*
X136349500Y-83529266D01*
X136352354Y-83559699D01*
X136352354Y-83559701D01*
X136352355Y-83559704D01*
X136397206Y-83687881D01*
X136397207Y-83687883D01*
X136477846Y-83797146D01*
X136477853Y-83797153D01*
X136587116Y-83877792D01*
X136587118Y-83877793D01*
X136715295Y-83922644D01*
X136715301Y-83922646D01*
X136745734Y-83925500D01*
X136745741Y-83925500D01*
X137354258Y-83925500D01*
X137354266Y-83925500D01*
X137384699Y-83922646D01*
X137512882Y-83877793D01*
X137622150Y-83797150D01*
X137624386Y-83794121D01*
X137702792Y-83687883D01*
X137702793Y-83687882D01*
X137747646Y-83559699D01*
X137750500Y-83529266D01*
X137750500Y-83524976D01*
X137950001Y-83524976D01*
X137960494Y-83627696D01*
X138015642Y-83794121D01*
X138107683Y-83943343D01*
X138107686Y-83943347D01*
X138231653Y-84067314D01*
X138231656Y-84067316D01*
X138380878Y-84159357D01*
X138547302Y-84214505D01*
X138650025Y-84224999D01*
X138650026Y-84224999D01*
X139200000Y-84224999D01*
X139249971Y-84224999D01*
X139249976Y-84224998D01*
X139352696Y-84214505D01*
X139519121Y-84159357D01*
X139668343Y-84067316D01*
X139668347Y-84067314D01*
X139792314Y-83943347D01*
X139792316Y-83943343D01*
X139884357Y-83794121D01*
X139939505Y-83627697D01*
X139949999Y-83524975D01*
X139950000Y-83524973D01*
X139950000Y-83250000D01*
X139200000Y-83250000D01*
X139200000Y-84224999D01*
X138650026Y-84224999D01*
X138699999Y-84224998D01*
X138700000Y-84224998D01*
X138700000Y-83250000D01*
X137950001Y-83250000D01*
X137950001Y-83524976D01*
X137750500Y-83524976D01*
X137750500Y-82475024D01*
X137950000Y-82475024D01*
X137950000Y-82750000D01*
X138700000Y-82750000D01*
X139200000Y-82750000D01*
X139949999Y-82750000D01*
X139949999Y-82475029D01*
X139949998Y-82475023D01*
X139939505Y-82372303D01*
X139884357Y-82205878D01*
X139792316Y-82056656D01*
X139792314Y-82056653D01*
X139668347Y-81932686D01*
X139668343Y-81932683D01*
X139519121Y-81840642D01*
X139352697Y-81785494D01*
X139249975Y-81775000D01*
X139200000Y-81775000D01*
X139200000Y-82750000D01*
X138700000Y-82750000D01*
X138700000Y-81775000D01*
X138699999Y-81774999D01*
X138650028Y-81775000D01*
X138650022Y-81775001D01*
X138547303Y-81785494D01*
X138380878Y-81840642D01*
X138231656Y-81932683D01*
X138107683Y-82056656D01*
X138015642Y-82205878D01*
X137960494Y-82372302D01*
X137950000Y-82475024D01*
X137750500Y-82475024D01*
X137750500Y-82470734D01*
X137747646Y-82440301D01*
X137702793Y-82312118D01*
X137693009Y-82298861D01*
X137622153Y-82202853D01*
X137622146Y-82202846D01*
X137512883Y-82122207D01*
X137512881Y-82122206D01*
X137384704Y-82077355D01*
X137384705Y-82077355D01*
X137384700Y-82077354D01*
X137384699Y-82077354D01*
X137354266Y-82074500D01*
X136745734Y-82074500D01*
X136725445Y-82076402D01*
X136715298Y-82077354D01*
X136638457Y-82104242D01*
X136581909Y-82101065D01*
X136561691Y-82086720D01*
X135722174Y-81247203D01*
X135700500Y-81194877D01*
X135700500Y-80360438D01*
X135688590Y-80315989D01*
X135688590Y-80315988D01*
X135680023Y-80284016D01*
X135680022Y-80284012D01*
X135654877Y-80240459D01*
X135640462Y-80215492D01*
X135640461Y-80215491D01*
X135640460Y-80215489D01*
X135384511Y-79959540D01*
X135315990Y-79919979D01*
X135315985Y-79919977D01*
X135239564Y-79899500D01*
X135239562Y-79899500D01*
X133774500Y-79899500D01*
X133722174Y-79877826D01*
X133700500Y-79825500D01*
X133700500Y-77205874D01*
X133722174Y-77153548D01*
X133732058Y-77145255D01*
X133734354Y-77143645D01*
X133734359Y-77143644D01*
X133747674Y-77130329D01*
X133800000Y-77108655D01*
X133852326Y-77130329D01*
X133865641Y-77143644D01*
X133973670Y-77194019D01*
X134022897Y-77200500D01*
X134377102Y-77200499D01*
X134426330Y-77194019D01*
X134534359Y-77143644D01*
X134547674Y-77130329D01*
X134600000Y-77108655D01*
X134652326Y-77130329D01*
X134665641Y-77143644D01*
X134773670Y-77194019D01*
X134822897Y-77200500D01*
X135177102Y-77200499D01*
X135226330Y-77194019D01*
X135334359Y-77143644D01*
X135347674Y-77130329D01*
X135400000Y-77108655D01*
X135452326Y-77130329D01*
X135465641Y-77143644D01*
X135573670Y-77194019D01*
X135622897Y-77200500D01*
X135977102Y-77200499D01*
X136026330Y-77194019D01*
X136134359Y-77143644D01*
X136147674Y-77130329D01*
X136200000Y-77108655D01*
X136252326Y-77130329D01*
X136265641Y-77143644D01*
X136353186Y-77184467D01*
X136374237Y-77199207D01*
X140077826Y-80902796D01*
X140099500Y-80955122D01*
X140099500Y-85244877D01*
X140077826Y-85297203D01*
X134377203Y-90997826D01*
X134324877Y-91019500D01*
X96064784Y-91019500D01*
X96012458Y-90997826D01*
X95990784Y-90945500D01*
X96012458Y-90893174D01*
X96065976Y-90839656D01*
X96065977Y-90839655D01*
X96180941Y-90667598D01*
X96260130Y-90476420D01*
X96300500Y-90273465D01*
X96300500Y-90066535D01*
X96260130Y-89863580D01*
X96197410Y-89712161D01*
X96197410Y-89655526D01*
X96213448Y-89631521D01*
X100281806Y-85563164D01*
X104274500Y-85563164D01*
X104274500Y-85601993D01*
X104274500Y-85886836D01*
X104288415Y-86010335D01*
X104310739Y-86208475D01*
X104382761Y-86524023D01*
X104382765Y-86524035D01*
X104489659Y-86829523D01*
X104489664Y-86829533D01*
X104630098Y-87121148D01*
X104630100Y-87121152D01*
X104630101Y-87121153D01*
X104802304Y-87395214D01*
X105004110Y-87648270D01*
X105232980Y-87877140D01*
X105486036Y-88078946D01*
X105760097Y-88251149D01*
X106051714Y-88391585D01*
X106051720Y-88391587D01*
X106051726Y-88391590D01*
X106296013Y-88477069D01*
X106357222Y-88498487D01*
X106672778Y-88570511D01*
X106994414Y-88606750D01*
X106994418Y-88606750D01*
X107318082Y-88606750D01*
X107318086Y-88606750D01*
X107639722Y-88570511D01*
X107955278Y-88498487D01*
X108123200Y-88439728D01*
X108260773Y-88391590D01*
X108260776Y-88391588D01*
X108260786Y-88391585D01*
X108552403Y-88251149D01*
X108826464Y-88078946D01*
X109079520Y-87877140D01*
X109308390Y-87648270D01*
X109510196Y-87395214D01*
X109682399Y-87121153D01*
X109822835Y-86829536D01*
X109832996Y-86800500D01*
X109889737Y-86638342D01*
X109929737Y-86524028D01*
X110001761Y-86208472D01*
X110038000Y-85886836D01*
X110038000Y-85563164D01*
X110001761Y-85241528D01*
X109929737Y-84925972D01*
X109879912Y-84783580D01*
X109822840Y-84620476D01*
X109822837Y-84620470D01*
X109822835Y-84620464D01*
X109682399Y-84328847D01*
X109510196Y-84054786D01*
X109308390Y-83801730D01*
X109079520Y-83572860D01*
X109054236Y-83552697D01*
X108826464Y-83371054D01*
X108552403Y-83198851D01*
X108552402Y-83198850D01*
X108552398Y-83198848D01*
X108288318Y-83071674D01*
X108260786Y-83058415D01*
X108260782Y-83058413D01*
X108260773Y-83058409D01*
X107955285Y-82951515D01*
X107955273Y-82951511D01*
X107639725Y-82879489D01*
X107469216Y-82860278D01*
X107318086Y-82843250D01*
X106994414Y-82843250D01*
X106843319Y-82860274D01*
X106672774Y-82879489D01*
X106357226Y-82951511D01*
X106357214Y-82951515D01*
X106051726Y-83058409D01*
X106051716Y-83058414D01*
X105760101Y-83198848D01*
X105486035Y-83371054D01*
X105232980Y-83572859D01*
X105004109Y-83801730D01*
X104802304Y-84054785D01*
X104630098Y-84328851D01*
X104489664Y-84620466D01*
X104489659Y-84620476D01*
X104382765Y-84925964D01*
X104382761Y-84925976D01*
X104310739Y-85241524D01*
X104293288Y-85396413D01*
X104274500Y-85563164D01*
X100281806Y-85563164D01*
X110922797Y-74922174D01*
X110975123Y-74900500D01*
X119470878Y-74900500D01*
X119523204Y-74922174D01*
X119544878Y-74974500D01*
X119523204Y-75026824D01*
X117677352Y-76872676D01*
X115848028Y-78701999D01*
X115795702Y-78723673D01*
X115771263Y-78719521D01*
X115722204Y-78702355D01*
X115722201Y-78702354D01*
X115714590Y-78701640D01*
X115691766Y-78699500D01*
X115058234Y-78699500D01*
X115027801Y-78702354D01*
X115027799Y-78702354D01*
X115027795Y-78702355D01*
X114899618Y-78747206D01*
X114899616Y-78747207D01*
X114790353Y-78827846D01*
X114790346Y-78827853D01*
X114709707Y-78937116D01*
X114709706Y-78937118D01*
X114664855Y-79065295D01*
X114664854Y-79065299D01*
X114664854Y-79065301D01*
X114662000Y-79095734D01*
X114662000Y-80104266D01*
X114664854Y-80134699D01*
X114664854Y-80134701D01*
X114664855Y-80134704D01*
X114709706Y-80262881D01*
X114709707Y-80262883D01*
X114790346Y-80372146D01*
X114790353Y-80372153D01*
X114899616Y-80452792D01*
X114899618Y-80452793D01*
X115027795Y-80497644D01*
X115027801Y-80497646D01*
X115058234Y-80500500D01*
X115058241Y-80500500D01*
X115691758Y-80500500D01*
X115691766Y-80500500D01*
X115722199Y-80497646D01*
X115850382Y-80452793D01*
X115959650Y-80372150D01*
X116040293Y-80262882D01*
X116085146Y-80134699D01*
X116088000Y-80104266D01*
X116088000Y-79342623D01*
X116109674Y-79290297D01*
X116226797Y-79173174D01*
X116360792Y-79039178D01*
X116413117Y-79017505D01*
X116465443Y-79039179D01*
X116487117Y-79091505D01*
X116487036Y-79094966D01*
X116487000Y-79095734D01*
X116487000Y-80104266D01*
X116489854Y-80134699D01*
X116489854Y-80134701D01*
X116489855Y-80134704D01*
X116534706Y-80262881D01*
X116534707Y-80262883D01*
X116615346Y-80372146D01*
X116615353Y-80372153D01*
X116724616Y-80452792D01*
X116724618Y-80452793D01*
X116849941Y-80496646D01*
X116892172Y-80534386D01*
X116899500Y-80566493D01*
X116899500Y-85039564D01*
X116919977Y-85115985D01*
X116919979Y-85115990D01*
X116945123Y-85159540D01*
X116959540Y-85184511D01*
X117177826Y-85402797D01*
X117199500Y-85455123D01*
X117199500Y-86431519D01*
X117214353Y-86525304D01*
X117214354Y-86525306D01*
X117230419Y-86556834D01*
X117271950Y-86638342D01*
X117361658Y-86728050D01*
X117474696Y-86785646D01*
X117568481Y-86800500D01*
X118031518Y-86800499D01*
X118031519Y-86800499D01*
X118125304Y-86785646D01*
X118125306Y-86785645D01*
X118127419Y-86784568D01*
X118238342Y-86728050D01*
X118328050Y-86638342D01*
X118385646Y-86525304D01*
X118396530Y-86456583D01*
X121100001Y-86456583D01*
X121106408Y-86527102D01*
X121106409Y-86527106D01*
X121156979Y-86689393D01*
X121244925Y-86834874D01*
X121365125Y-86955074D01*
X121510606Y-87043020D01*
X121672890Y-87093589D01*
X121672901Y-87093591D01*
X121743421Y-87099999D01*
X122250000Y-87099999D01*
X122256571Y-87099999D01*
X122256583Y-87099998D01*
X122327102Y-87093591D01*
X122327106Y-87093590D01*
X122489393Y-87043020D01*
X122634874Y-86955074D01*
X122755074Y-86834874D01*
X122843020Y-86689393D01*
X122893589Y-86527109D01*
X122893591Y-86527099D01*
X122899999Y-86456582D01*
X122900000Y-86456573D01*
X122900000Y-85850000D01*
X122250000Y-85850000D01*
X122250000Y-87099999D01*
X121743421Y-87099999D01*
X121750000Y-87099998D01*
X121750000Y-85850000D01*
X121100001Y-85850000D01*
X121100001Y-86456583D01*
X118396530Y-86456583D01*
X118400500Y-86431519D01*
X118400499Y-85592616D01*
X118400499Y-84768479D01*
X118400498Y-84768475D01*
X118398099Y-84753321D01*
X118396530Y-84743417D01*
X121100000Y-84743417D01*
X121100000Y-85350000D01*
X121750000Y-85350000D01*
X122250000Y-85350000D01*
X122899999Y-85350000D01*
X122899999Y-84743429D01*
X122899998Y-84743416D01*
X122893591Y-84672897D01*
X122893590Y-84672893D01*
X122843020Y-84510606D01*
X122755074Y-84365125D01*
X122634874Y-84244925D01*
X122489393Y-84156979D01*
X122327109Y-84106410D01*
X122327099Y-84106408D01*
X122256582Y-84100000D01*
X122250000Y-84100000D01*
X122250000Y-85350000D01*
X121750000Y-85350000D01*
X121750000Y-84100000D01*
X121749999Y-84099999D01*
X121743434Y-84100000D01*
X121743411Y-84100001D01*
X121672897Y-84106408D01*
X121672893Y-84106409D01*
X121510606Y-84156979D01*
X121365125Y-84244925D01*
X121244925Y-84365125D01*
X121156979Y-84510606D01*
X121106410Y-84672890D01*
X121106408Y-84672900D01*
X121100000Y-84743417D01*
X118396530Y-84743417D01*
X118391140Y-84709392D01*
X118385646Y-84674696D01*
X118385645Y-84674694D01*
X118385645Y-84674693D01*
X118343714Y-84592401D01*
X118328050Y-84561658D01*
X118238342Y-84471950D01*
X118125304Y-84414354D01*
X118125302Y-84414353D01*
X118125301Y-84414353D01*
X118031520Y-84399500D01*
X117574500Y-84399500D01*
X117522174Y-84377826D01*
X117500500Y-84325500D01*
X117500500Y-83524976D01*
X126450001Y-83524976D01*
X126460494Y-83627696D01*
X126515642Y-83794121D01*
X126607683Y-83943343D01*
X126607686Y-83943347D01*
X126731653Y-84067314D01*
X126731656Y-84067316D01*
X126880878Y-84159357D01*
X127047302Y-84214505D01*
X127150025Y-84224999D01*
X127150026Y-84224999D01*
X127700000Y-84224999D01*
X127749971Y-84224999D01*
X127749976Y-84224998D01*
X127852696Y-84214505D01*
X128019121Y-84159357D01*
X128168343Y-84067316D01*
X128168347Y-84067314D01*
X128292314Y-83943347D01*
X128292316Y-83943343D01*
X128384357Y-83794121D01*
X128439505Y-83627697D01*
X128449999Y-83524975D01*
X128450000Y-83524973D01*
X128450000Y-83250000D01*
X127700000Y-83250000D01*
X127700000Y-84224999D01*
X127150026Y-84224999D01*
X127199999Y-84224998D01*
X127200000Y-84224998D01*
X127200000Y-83250000D01*
X126450001Y-83250000D01*
X126450001Y-83524976D01*
X117500500Y-83524976D01*
X117500500Y-82475024D01*
X126450000Y-82475024D01*
X126450000Y-82750000D01*
X127200000Y-82750000D01*
X127700000Y-82750000D01*
X128449999Y-82750000D01*
X128449999Y-82475029D01*
X128449998Y-82475023D01*
X128439505Y-82372303D01*
X128384357Y-82205878D01*
X128292316Y-82056656D01*
X128292314Y-82056653D01*
X128168347Y-81932686D01*
X128168343Y-81932683D01*
X128019121Y-81840642D01*
X127852697Y-81785494D01*
X127749975Y-81775000D01*
X127700000Y-81775000D01*
X127700000Y-82750000D01*
X127200000Y-82750000D01*
X127200000Y-81775000D01*
X127199999Y-81774999D01*
X127150028Y-81775000D01*
X127150022Y-81775001D01*
X127047303Y-81785494D01*
X126880878Y-81840642D01*
X126731656Y-81932683D01*
X126607683Y-82056656D01*
X126515642Y-82205878D01*
X126460494Y-82372302D01*
X126450000Y-82475024D01*
X117500500Y-82475024D01*
X117500500Y-80950024D01*
X130900000Y-80950024D01*
X130900000Y-81100000D01*
X131850000Y-81100000D01*
X131850000Y-80250000D01*
X131600029Y-80250000D01*
X131600023Y-80250001D01*
X131497303Y-80260494D01*
X131330878Y-80315642D01*
X131181656Y-80407683D01*
X131057683Y-80531656D01*
X130965642Y-80680878D01*
X130910494Y-80847302D01*
X130900000Y-80950024D01*
X117500500Y-80950024D01*
X117500500Y-80566493D01*
X117522174Y-80514167D01*
X117550059Y-80496646D01*
X117635637Y-80466700D01*
X117675382Y-80452793D01*
X117784650Y-80372150D01*
X117865293Y-80262882D01*
X117910146Y-80134699D01*
X117911058Y-80124976D01*
X120700001Y-80124976D01*
X120710494Y-80227696D01*
X120765642Y-80394121D01*
X120857683Y-80543343D01*
X120857686Y-80543347D01*
X120981653Y-80667314D01*
X120981656Y-80667316D01*
X121130878Y-80759357D01*
X121297302Y-80814505D01*
X121400025Y-80824999D01*
X121400026Y-80824999D01*
X121950000Y-80824999D01*
X121999971Y-80824999D01*
X121999976Y-80824998D01*
X122102696Y-80814505D01*
X122269121Y-80759357D01*
X122418343Y-80667316D01*
X122418347Y-80667314D01*
X122542314Y-80543347D01*
X122542316Y-80543343D01*
X122634357Y-80394121D01*
X122689505Y-80227697D01*
X122699999Y-80124975D01*
X122700000Y-80124973D01*
X122700000Y-79850000D01*
X121950000Y-79850000D01*
X121950000Y-80824999D01*
X121400026Y-80824999D01*
X121449999Y-80824998D01*
X121450000Y-80824998D01*
X121450000Y-79850000D01*
X120700001Y-79850000D01*
X120700001Y-80124976D01*
X117911058Y-80124976D01*
X117913000Y-80104266D01*
X117913000Y-79342623D01*
X117934674Y-79290297D01*
X118327797Y-78897174D01*
X118380123Y-78875500D01*
X120640093Y-78875500D01*
X120692419Y-78897174D01*
X120714093Y-78949500D01*
X120711061Y-78968287D01*
X120711341Y-78968347D01*
X120710494Y-78972302D01*
X120700000Y-79075024D01*
X120700000Y-79350000D01*
X122699999Y-79350000D01*
X122699999Y-79075029D01*
X122699998Y-79075023D01*
X122689505Y-78972298D01*
X122688660Y-78968350D01*
X122690004Y-78968062D01*
X122693782Y-78916282D01*
X122736638Y-78879254D01*
X122759907Y-78875500D01*
X122855727Y-78875500D01*
X122908053Y-78897174D01*
X122929727Y-78949500D01*
X122925574Y-78973941D01*
X122902355Y-79040295D01*
X122902354Y-79040299D01*
X122902354Y-79040301D01*
X122899500Y-79070734D01*
X122899500Y-80129266D01*
X122902354Y-80159699D01*
X122902354Y-80159701D01*
X122902355Y-80159704D01*
X122947206Y-80287881D01*
X122947207Y-80287883D01*
X123027846Y-80397146D01*
X123027853Y-80397153D01*
X123137116Y-80477792D01*
X123137118Y-80477793D01*
X123265295Y-80522644D01*
X123265301Y-80522646D01*
X123295734Y-80525500D01*
X123295741Y-80525500D01*
X123904258Y-80525500D01*
X123904266Y-80525500D01*
X123934699Y-80522646D01*
X124062882Y-80477793D01*
X124169832Y-80398861D01*
X124172146Y-80397153D01*
X124172146Y-80397152D01*
X124172150Y-80397150D01*
X124174386Y-80394121D01*
X124184614Y-80380261D01*
X124252793Y-80287882D01*
X124297646Y-80159699D01*
X124300500Y-80129266D01*
X124300500Y-79974500D01*
X124322174Y-79922174D01*
X124374500Y-79900500D01*
X128044877Y-79900500D01*
X128097203Y-79922174D01*
X128359540Y-80184511D01*
X128415489Y-80240460D01*
X128484011Y-80280021D01*
X128484012Y-80280021D01*
X128484014Y-80280022D01*
X128498905Y-80284012D01*
X128560435Y-80300499D01*
X128560436Y-80300500D01*
X128560438Y-80300500D01*
X130639564Y-80300500D01*
X130639564Y-80300499D01*
X130715989Y-80280021D01*
X130784511Y-80240460D01*
X130840460Y-80184511D01*
X131240460Y-79784511D01*
X131277717Y-79719979D01*
X131277718Y-79719979D01*
X131277719Y-79719974D01*
X131280021Y-79715989D01*
X131300499Y-79639564D01*
X131300500Y-79639564D01*
X131300500Y-77518654D01*
X131322174Y-77466328D01*
X131374500Y-77444654D01*
X131403891Y-77450741D01*
X131407306Y-77452219D01*
X131549999Y-77493675D01*
X131550000Y-77493675D01*
X131550000Y-75031324D01*
X131407297Y-75072783D01*
X131403883Y-75074261D01*
X131347253Y-75075146D01*
X131306584Y-75035728D01*
X131300500Y-75006345D01*
X131300500Y-74299501D01*
X131322174Y-74247175D01*
X131374500Y-74225501D01*
X133917889Y-74225501D01*
X133970215Y-74247175D01*
G37*
%TD.AperFunction*%
%TA.AperFunction,Conductor*%
G36*
X130489823Y-73839795D02*
G01*
X130572203Y-73922174D01*
X130677826Y-74027797D01*
X130699500Y-74080123D01*
X130699500Y-75319125D01*
X130677826Y-75371451D01*
X130667947Y-75379740D01*
X130665644Y-75381352D01*
X130652326Y-75394671D01*
X130600000Y-75416345D01*
X130547674Y-75394671D01*
X130534359Y-75381356D01*
X130513118Y-75371451D01*
X130426330Y-75330981D01*
X130426328Y-75330980D01*
X130390063Y-75326206D01*
X130377103Y-75324500D01*
X130377101Y-75324500D01*
X130022898Y-75324500D01*
X129973671Y-75330980D01*
X129973669Y-75330981D01*
X129865640Y-75381356D01*
X129852326Y-75394671D01*
X129800000Y-75416345D01*
X129747674Y-75394671D01*
X129734359Y-75381356D01*
X129713118Y-75371451D01*
X129626330Y-75330981D01*
X129626328Y-75330980D01*
X129590063Y-75326206D01*
X129577103Y-75324500D01*
X129577101Y-75324500D01*
X129222898Y-75324500D01*
X129173671Y-75330980D01*
X129173669Y-75330981D01*
X129065640Y-75381356D01*
X128981356Y-75465640D01*
X128930980Y-75573671D01*
X128924500Y-75622898D01*
X128924500Y-76902101D01*
X128930980Y-76951328D01*
X128930981Y-76951330D01*
X128981356Y-77059359D01*
X129065640Y-77143643D01*
X129067942Y-77145255D01*
X129069153Y-77147156D01*
X129070219Y-77148222D01*
X129069982Y-77148458D01*
X129098375Y-77193021D01*
X129099500Y-77205874D01*
X129099500Y-78362034D01*
X129077826Y-78414360D01*
X128999500Y-78492685D01*
X128933610Y-78606809D01*
X128933606Y-78606818D01*
X128899500Y-78734105D01*
X128899500Y-78734108D01*
X128899500Y-78865892D01*
X128933608Y-78993186D01*
X128933609Y-78993189D01*
X128935263Y-78997181D01*
X128935263Y-79053818D01*
X128895215Y-79093867D01*
X128866896Y-79099500D01*
X128720808Y-79099500D01*
X128668482Y-79077826D01*
X127925194Y-78334538D01*
X127923585Y-78333609D01*
X127856672Y-78294978D01*
X127856673Y-78294978D01*
X127780249Y-78274500D01*
X127780247Y-78274500D01*
X118185438Y-78274500D01*
X118185436Y-78274500D01*
X118109011Y-78294978D01*
X118042100Y-78333609D01*
X118040491Y-78334538D01*
X118040490Y-78334538D01*
X117673028Y-78701999D01*
X117620702Y-78723673D01*
X117596263Y-78719521D01*
X117547204Y-78702355D01*
X117547201Y-78702354D01*
X117539590Y-78701640D01*
X117516766Y-78699500D01*
X116883234Y-78699500D01*
X116883233Y-78699500D01*
X116882466Y-78699536D01*
X116882366Y-78699500D01*
X116881504Y-78699500D01*
X116881504Y-78699189D01*
X116829184Y-78680333D01*
X116805086Y-78629078D01*
X116824289Y-78575796D01*
X116826658Y-78573312D01*
X119877797Y-75522174D01*
X119930123Y-75500500D01*
X128639564Y-75500500D01*
X128639564Y-75500499D01*
X128715989Y-75480021D01*
X128784511Y-75440460D01*
X128840460Y-75384511D01*
X130385174Y-73839795D01*
X130437499Y-73818122D01*
X130489823Y-73839795D01*
G37*
%TD.AperFunction*%
%TA.AperFunction,Conductor*%
G36*
X137452326Y-73352296D02*
G01*
X138009408Y-73909378D01*
X138031082Y-73961704D01*
X138009408Y-74014030D01*
X137954772Y-74068665D01*
X137872781Y-74207304D01*
X137831324Y-74349999D01*
X137831325Y-74350000D01*
X138988500Y-74350000D01*
X139040826Y-74371674D01*
X139062500Y-74424000D01*
X139062500Y-74600000D01*
X139238500Y-74600000D01*
X139290826Y-74621674D01*
X139312500Y-74674000D01*
X139312500Y-75374999D01*
X139726882Y-75374999D01*
X139763022Y-75372155D01*
X139917695Y-75327218D01*
X140056334Y-75245227D01*
X140170227Y-75131334D01*
X140254589Y-74988687D01*
X140257024Y-74990127D01*
X140291327Y-74956875D01*
X140347957Y-74957756D01*
X140370905Y-74973348D01*
X141582068Y-76184511D01*
X141638017Y-76240460D01*
X141706539Y-76280021D01*
X141706540Y-76280021D01*
X141706542Y-76280022D01*
X141744752Y-76290260D01*
X141782963Y-76300499D01*
X141782964Y-76300500D01*
X141782966Y-76300500D01*
X148225500Y-76300500D01*
X148277826Y-76322174D01*
X148299500Y-76374500D01*
X148299500Y-76529266D01*
X148302354Y-76559699D01*
X148302354Y-76559701D01*
X148302355Y-76559704D01*
X148347206Y-76687880D01*
X148347207Y-76687882D01*
X148369595Y-76718217D01*
X148416342Y-76781557D01*
X148429975Y-76836529D01*
X148400745Y-76885040D01*
X148356802Y-76899500D01*
X137949500Y-76899500D01*
X137897174Y-76877826D01*
X137875500Y-76825500D01*
X137875499Y-75622898D01*
X137869019Y-75573671D01*
X137869019Y-75573670D01*
X137818644Y-75465641D01*
X137734359Y-75381356D01*
X137626330Y-75330981D01*
X137626328Y-75330980D01*
X137590063Y-75326206D01*
X137577103Y-75324500D01*
X137577101Y-75324500D01*
X137222898Y-75324500D01*
X137173671Y-75330980D01*
X137173669Y-75330981D01*
X137065640Y-75381356D01*
X137052326Y-75394671D01*
X137000000Y-75416345D01*
X136947674Y-75394671D01*
X136934359Y-75381356D01*
X136913118Y-75371451D01*
X136826330Y-75330981D01*
X136826328Y-75330980D01*
X136790063Y-75326206D01*
X136777103Y-75324500D01*
X136777101Y-75324500D01*
X136422898Y-75324500D01*
X136373671Y-75330980D01*
X136373669Y-75330981D01*
X136265640Y-75381356D01*
X136252326Y-75394671D01*
X136200000Y-75416345D01*
X136147674Y-75394671D01*
X136134355Y-75381352D01*
X136132053Y-75379740D01*
X136130842Y-75377839D01*
X136129781Y-75376778D01*
X136130016Y-75376542D01*
X136101624Y-75331972D01*
X136100500Y-75319125D01*
X136100500Y-75237966D01*
X136122174Y-75185640D01*
X136158613Y-75149201D01*
X136200500Y-75107314D01*
X136266392Y-74993186D01*
X136300499Y-74865894D01*
X136300500Y-74865894D01*
X136300500Y-74850000D01*
X137831325Y-74850000D01*
X137872781Y-74992695D01*
X137954772Y-75131334D01*
X138068665Y-75245227D01*
X138207304Y-75327218D01*
X138361979Y-75372155D01*
X138361976Y-75372155D01*
X138398117Y-75374999D01*
X138812500Y-75374999D01*
X138812500Y-74850000D01*
X137831325Y-74850000D01*
X136300500Y-74850000D01*
X136300500Y-74734106D01*
X136300499Y-74734105D01*
X136266393Y-74606818D01*
X136266393Y-74606817D01*
X136266392Y-74606814D01*
X136200500Y-74492686D01*
X136107314Y-74399500D01*
X136045110Y-74363586D01*
X136010632Y-74318653D01*
X136018025Y-74262501D01*
X136062959Y-74228022D01*
X136082111Y-74225501D01*
X136389562Y-74225501D01*
X136389562Y-74225500D01*
X136465987Y-74205022D01*
X136534509Y-74165461D01*
X136590458Y-74109512D01*
X137347674Y-73352296D01*
X137400000Y-73330622D01*
X137452326Y-73352296D01*
G37*
%TD.AperFunction*%
%TA.AperFunction,Conductor*%
G36*
X128801825Y-72151796D02*
G01*
X129960202Y-73310173D01*
X129981876Y-73362499D01*
X129960202Y-73414825D01*
X128801825Y-74573203D01*
X128749499Y-74594877D01*
X128697173Y-74573203D01*
X128675499Y-74520877D01*
X128675499Y-74422898D01*
X128669019Y-74373671D01*
X128669019Y-74373670D01*
X128618644Y-74265641D01*
X128605329Y-74252326D01*
X128583655Y-74200000D01*
X128605329Y-74147674D01*
X128618644Y-74134359D01*
X128669019Y-74026330D01*
X128675500Y-73977103D01*
X128675499Y-73622898D01*
X128669019Y-73573670D01*
X128618644Y-73465641D01*
X128605329Y-73452326D01*
X128583655Y-73400000D01*
X128605329Y-73347674D01*
X128618644Y-73334359D01*
X128669019Y-73226330D01*
X128675500Y-73177103D01*
X128675499Y-72822898D01*
X128669019Y-72773670D01*
X128618644Y-72665641D01*
X128605329Y-72652326D01*
X128583655Y-72600000D01*
X128605329Y-72547674D01*
X128605992Y-72547011D01*
X128618644Y-72534359D01*
X128669019Y-72426330D01*
X128675500Y-72377103D01*
X128675499Y-72204120D01*
X128697173Y-72151796D01*
X128749499Y-72130122D01*
X128801825Y-72151796D01*
G37*
%TD.AperFunction*%
%TA.AperFunction,Conductor*%
G36*
X92667203Y-69892174D02*
G01*
X95215489Y-72440460D01*
X95284012Y-72480022D01*
X95360438Y-72500500D01*
X126794126Y-72500500D01*
X126846452Y-72522174D01*
X126854745Y-72532058D01*
X126856356Y-72534359D01*
X126869671Y-72547674D01*
X126891345Y-72600000D01*
X126869671Y-72652326D01*
X126856356Y-72665640D01*
X126854745Y-72667942D01*
X126852843Y-72669153D01*
X126851778Y-72670219D01*
X126851541Y-72669982D01*
X126806979Y-72698375D01*
X126794126Y-72699500D01*
X79861469Y-72699500D01*
X79809143Y-72677826D01*
X77128143Y-69996826D01*
X77106469Y-69944500D01*
X77128143Y-69892174D01*
X77180469Y-69870500D01*
X92614877Y-69870500D01*
X92667203Y-69892174D01*
G37*
%TD.AperFunction*%
%TA.AperFunction,Conductor*%
G36*
X188277203Y-69322174D02*
G01*
X189536548Y-70581519D01*
X189558222Y-70633845D01*
X189552589Y-70662164D01*
X189489870Y-70813579D01*
X189489868Y-70813586D01*
X189449500Y-71016535D01*
X189449500Y-71223464D01*
X189489868Y-71426413D01*
X189489870Y-71426420D01*
X189569059Y-71617598D01*
X189678141Y-71780853D01*
X189684023Y-71789655D01*
X189830345Y-71935977D01*
X190002402Y-72050941D01*
X190071738Y-72079661D01*
X190111786Y-72119710D01*
X190111786Y-72176347D01*
X190071737Y-72216395D01*
X190043419Y-72222028D01*
X142677650Y-72222028D01*
X142625324Y-72200354D01*
X139999207Y-69574237D01*
X139984466Y-69553185D01*
X139982981Y-69550000D01*
X139943644Y-69465641D01*
X139930329Y-69452326D01*
X139908655Y-69400000D01*
X139930329Y-69347674D01*
X139936418Y-69341585D01*
X139943644Y-69334359D01*
X139943645Y-69334354D01*
X139945255Y-69332058D01*
X139947156Y-69330846D01*
X139948222Y-69329781D01*
X139948458Y-69330017D01*
X139993021Y-69301625D01*
X140005874Y-69300500D01*
X188224877Y-69300500D01*
X188277203Y-69322174D01*
G37*
%TD.AperFunction*%
%TA.AperFunction,Conductor*%
G36*
X129489825Y-66914796D02*
G01*
X130277826Y-67702797D01*
X130299500Y-67755123D01*
X130299500Y-71044876D01*
X130277826Y-71097202D01*
X129489825Y-71885203D01*
X129437499Y-71906877D01*
X129385173Y-71885203D01*
X128674207Y-71174237D01*
X128659466Y-71153185D01*
X128618644Y-71065641D01*
X128605329Y-71052326D01*
X128583655Y-71000000D01*
X128605329Y-70947674D01*
X128618644Y-70934359D01*
X128669019Y-70826330D01*
X128675500Y-70777103D01*
X128675499Y-70520455D01*
X128697173Y-70468130D01*
X128711833Y-70456759D01*
X128731335Y-70445226D01*
X128845227Y-70331334D01*
X128927218Y-70192695D01*
X128968675Y-70050000D01*
X126506325Y-70050000D01*
X126547780Y-70192693D01*
X126549259Y-70196109D01*
X126550150Y-70252739D01*
X126510737Y-70293413D01*
X126481346Y-70299500D01*
X125756773Y-70299500D01*
X125704447Y-70277826D01*
X125682773Y-70225500D01*
X125686926Y-70201059D01*
X125710144Y-70134704D01*
X125710143Y-70134704D01*
X125710146Y-70134699D01*
X125713000Y-70104266D01*
X125713000Y-69374500D01*
X125734674Y-69322174D01*
X125787000Y-69300500D01*
X126481346Y-69300500D01*
X126533672Y-69322174D01*
X126555346Y-69374500D01*
X126549259Y-69403891D01*
X126547780Y-69407306D01*
X126506324Y-69549999D01*
X126506325Y-69550000D01*
X128968675Y-69550000D01*
X128968675Y-69549999D01*
X128927218Y-69407304D01*
X128845227Y-69268665D01*
X128731333Y-69154771D01*
X128711830Y-69143237D01*
X128677824Y-69097945D01*
X128675499Y-69079547D01*
X128675499Y-68822898D01*
X128669019Y-68773670D01*
X128618644Y-68665641D01*
X128605329Y-68652326D01*
X128583655Y-68600000D01*
X128605329Y-68547674D01*
X128618644Y-68534359D01*
X128669019Y-68426330D01*
X128675500Y-68377103D01*
X128675499Y-68022898D01*
X128669019Y-67973670D01*
X128618644Y-67865641D01*
X128605329Y-67852326D01*
X128583655Y-67800000D01*
X128605329Y-67747674D01*
X128618644Y-67734359D01*
X128659468Y-67646808D01*
X128674203Y-67625765D01*
X128715459Y-67584511D01*
X129385173Y-66914795D01*
X129437499Y-66893122D01*
X129489825Y-66914796D01*
G37*
%TD.AperFunction*%
%TA.AperFunction,Conductor*%
G36*
X135656798Y-44400691D02*
G01*
X135723332Y-44433217D01*
X135748607Y-44445573D01*
X135816740Y-44455500D01*
X135904325Y-44455500D01*
X135956651Y-44477174D01*
X136274937Y-44795460D01*
X136343460Y-44835022D01*
X136419886Y-44855500D01*
X137784621Y-44855500D01*
X137836947Y-44877174D01*
X139532947Y-46573174D01*
X139554621Y-46625500D01*
X139532947Y-46677826D01*
X139480621Y-46699500D01*
X139170734Y-46699500D01*
X139140301Y-46702354D01*
X139140299Y-46702354D01*
X139140295Y-46702355D01*
X139012118Y-46747206D01*
X139012116Y-46747207D01*
X138902853Y-46827846D01*
X138902846Y-46827853D01*
X138822207Y-46937116D01*
X138822206Y-46937118D01*
X138777355Y-47065295D01*
X138777354Y-47065299D01*
X138777354Y-47065301D01*
X138774500Y-47095734D01*
X138774500Y-47095740D01*
X138774500Y-47225500D01*
X138752826Y-47277826D01*
X138700500Y-47299500D01*
X138317713Y-47299500D01*
X138265387Y-47277826D01*
X135533060Y-44545499D01*
X135530735Y-44539887D01*
X135525555Y-44536719D01*
X135520174Y-44514390D01*
X135511386Y-44493173D01*
X135513709Y-44487562D01*
X135512287Y-44481658D01*
X135524271Y-44462064D01*
X135533060Y-44440847D01*
X135541471Y-44433943D01*
X135541840Y-44433342D01*
X135542356Y-44433217D01*
X135544273Y-44431645D01*
X135546853Y-44429921D01*
X135583186Y-44405643D01*
X135638734Y-44394594D01*
X135656798Y-44400691D01*
G37*
%TD.AperFunction*%
%TA.AperFunction,Conductor*%
G36*
X136778326Y-43452773D02*
G01*
X136800000Y-43505099D01*
X136800000Y-44002901D01*
X136778326Y-44055227D01*
X136633812Y-44199741D01*
X136581486Y-44221415D01*
X136529160Y-44199741D01*
X136522174Y-44192755D01*
X136500500Y-44140429D01*
X136500500Y-43656599D01*
X136522174Y-43604273D01*
X136673674Y-43452773D01*
X136726000Y-43431099D01*
X136778326Y-43452773D01*
G37*
%TD.AperFunction*%
%TA.AperFunction,Conductor*%
G36*
X133992202Y-41522174D02*
G01*
X135255619Y-42785591D01*
X135277293Y-42837917D01*
X135255619Y-42890243D01*
X135217730Y-42910495D01*
X135167504Y-42920485D01*
X135141112Y-42938120D01*
X135085563Y-42949169D01*
X135058888Y-42938120D01*
X135032495Y-42920485D01*
X135021113Y-42918221D01*
X134952133Y-42904500D01*
X134952131Y-42904500D01*
X134747869Y-42904500D01*
X134667504Y-42920485D01*
X134641112Y-42938120D01*
X134585563Y-42949169D01*
X134558888Y-42938120D01*
X134532495Y-42920485D01*
X134521113Y-42918221D01*
X134452133Y-42904500D01*
X134452131Y-42904500D01*
X134247872Y-42904500D01*
X134178883Y-42918221D01*
X134123334Y-42907169D01*
X134100363Y-42882642D01*
X134090460Y-42865489D01*
X134034511Y-42809540D01*
X133789511Y-42564540D01*
X133720990Y-42524979D01*
X133720985Y-42524977D01*
X133644564Y-42504500D01*
X133644562Y-42504500D01*
X133078028Y-42504500D01*
X133078026Y-42504500D01*
X133001604Y-42524977D01*
X133001599Y-42524979D01*
X132933078Y-42564540D01*
X132665489Y-42832130D01*
X132665488Y-42832129D01*
X132609542Y-42888075D01*
X132606587Y-42891928D01*
X132604432Y-42890274D01*
X132566375Y-42919456D01*
X132532813Y-42920548D01*
X132482272Y-42910495D01*
X132452133Y-42904500D01*
X132452132Y-42904500D01*
X132247869Y-42904500D01*
X132167504Y-42920485D01*
X132141112Y-42938120D01*
X132085563Y-42949169D01*
X132058889Y-42938121D01*
X132052738Y-42934011D01*
X132032495Y-42920485D01*
X132032492Y-42920484D01*
X132030732Y-42919308D01*
X131999265Y-42872216D01*
X132010313Y-42816667D01*
X132019512Y-42805457D01*
X133302797Y-41522174D01*
X133355123Y-41500500D01*
X133939876Y-41500500D01*
X133992202Y-41522174D01*
G37*
%TD.AperFunction*%
%TA.AperFunction,Conductor*%
G36*
X127012059Y-37922174D02*
G01*
X127033733Y-37974500D01*
X127022716Y-38013348D01*
X126965642Y-38105878D01*
X126910494Y-38272302D01*
X126900000Y-38375024D01*
X126900000Y-39974970D01*
X126900001Y-39974976D01*
X126910494Y-40077696D01*
X126965642Y-40244121D01*
X127004433Y-40307012D01*
X128114773Y-39196674D01*
X128167099Y-39175000D01*
X128812901Y-39175000D01*
X128865227Y-39196674D01*
X129975566Y-40307013D01*
X129975566Y-40307012D01*
X130014357Y-40244121D01*
X130069505Y-40077697D01*
X130079999Y-39974975D01*
X130079999Y-38375029D01*
X130079998Y-38375023D01*
X130069505Y-38272303D01*
X130014357Y-38105878D01*
X129957284Y-38013348D01*
X129948262Y-37957435D01*
X129981419Y-37911517D01*
X130020267Y-37900500D01*
X137179733Y-37900500D01*
X137232059Y-37922174D01*
X137253733Y-37974500D01*
X137242716Y-38013348D01*
X137185642Y-38105878D01*
X137130494Y-38272302D01*
X137120000Y-38375024D01*
X137120000Y-39974970D01*
X137120001Y-39974976D01*
X137130494Y-40077696D01*
X137185642Y-40244121D01*
X137224433Y-40307012D01*
X138334773Y-39196674D01*
X138387099Y-39175000D01*
X139032901Y-39175000D01*
X139085227Y-39196674D01*
X140195566Y-40307013D01*
X140195566Y-40307012D01*
X140234357Y-40244121D01*
X140289505Y-40077697D01*
X140299999Y-39974975D01*
X140299999Y-38375029D01*
X140299998Y-38375023D01*
X140289505Y-38272303D01*
X140234357Y-38105878D01*
X140177284Y-38013348D01*
X140168262Y-37957435D01*
X140201419Y-37911517D01*
X140240267Y-37900500D01*
X233296608Y-37900500D01*
X233360071Y-37900500D01*
X233364910Y-37900657D01*
X233603151Y-37916273D01*
X233612747Y-37917536D01*
X233844516Y-37963638D01*
X233853862Y-37966142D01*
X234077642Y-38042106D01*
X234086579Y-38045808D01*
X234298534Y-38150332D01*
X234306899Y-38155162D01*
X234503399Y-38286459D01*
X234511069Y-38292344D01*
X234605346Y-38375023D01*
X234688744Y-38448161D01*
X234695588Y-38455005D01*
X234851401Y-38632675D01*
X234857294Y-38640355D01*
X234988582Y-38836841D01*
X234993422Y-38845224D01*
X235097940Y-39057167D01*
X235101644Y-39066109D01*
X235177606Y-39289885D01*
X235180111Y-39299235D01*
X235226212Y-39531001D01*
X235227476Y-39540598D01*
X235243092Y-39778839D01*
X235243250Y-39783679D01*
X235243250Y-78578820D01*
X235243092Y-78583660D01*
X235227476Y-78821901D01*
X235226212Y-78831498D01*
X235180111Y-79063264D01*
X235177606Y-79072614D01*
X235101644Y-79296390D01*
X235097940Y-79305332D01*
X234993422Y-79517275D01*
X234988582Y-79525658D01*
X234857294Y-79722144D01*
X234851401Y-79729824D01*
X234695588Y-79907494D01*
X234688744Y-79914338D01*
X234511074Y-80070151D01*
X234503394Y-80076044D01*
X234306908Y-80207332D01*
X234298525Y-80212172D01*
X234086582Y-80316690D01*
X234077640Y-80320394D01*
X233853864Y-80396356D01*
X233844514Y-80398861D01*
X233612748Y-80444962D01*
X233603151Y-80446226D01*
X233364911Y-80461842D01*
X233360071Y-80462000D01*
X197709642Y-80462000D01*
X197577857Y-80462000D01*
X197518918Y-80477792D01*
X197450568Y-80496106D01*
X197450559Y-80496110D01*
X197336435Y-80562000D01*
X178408110Y-99490326D01*
X178355784Y-99512000D01*
X88344216Y-99512000D01*
X88291890Y-99490326D01*
X83945315Y-95143751D01*
X93900000Y-95143751D01*
X93900000Y-95356248D01*
X93933241Y-95566123D01*
X93933244Y-95566136D01*
X93998904Y-95768217D01*
X93998906Y-95768221D01*
X94095375Y-95957550D01*
X94095378Y-95957556D01*
X94134728Y-96011716D01*
X94767037Y-95379407D01*
X94784075Y-95442993D01*
X94849901Y-95557007D01*
X94942993Y-95650099D01*
X95057007Y-95715925D01*
X95120590Y-95732962D01*
X94488282Y-96365270D01*
X94542449Y-96404624D01*
X94731778Y-96501093D01*
X94731782Y-96501095D01*
X94933863Y-96566755D01*
X94933876Y-96566758D01*
X95143751Y-96600000D01*
X95356249Y-96600000D01*
X95566123Y-96566758D01*
X95566136Y-96566755D01*
X95768217Y-96501095D01*
X95768221Y-96501093D01*
X95957554Y-96404623D01*
X95957561Y-96404618D01*
X96011716Y-96365270D01*
X96011717Y-96365270D01*
X95379409Y-95732962D01*
X95442993Y-95715925D01*
X95557007Y-95650099D01*
X95650099Y-95557007D01*
X95715925Y-95442993D01*
X95732962Y-95379409D01*
X96365270Y-96011717D01*
X96365270Y-96011716D01*
X96404618Y-95957561D01*
X96404623Y-95957554D01*
X96501093Y-95768221D01*
X96501095Y-95768217D01*
X96566755Y-95566136D01*
X96566758Y-95566123D01*
X96600000Y-95356248D01*
X96600000Y-95143751D01*
X170100000Y-95143751D01*
X170100000Y-95356248D01*
X170133241Y-95566123D01*
X170133244Y-95566136D01*
X170198904Y-95768217D01*
X170198906Y-95768221D01*
X170295375Y-95957550D01*
X170295378Y-95957556D01*
X170334728Y-96011716D01*
X170967037Y-95379407D01*
X170984075Y-95442993D01*
X171049901Y-95557007D01*
X171142993Y-95650099D01*
X171257007Y-95715925D01*
X171320590Y-95732962D01*
X170688282Y-96365270D01*
X170742449Y-96404624D01*
X170931778Y-96501093D01*
X170931782Y-96501095D01*
X171133863Y-96566755D01*
X171133876Y-96566758D01*
X171343751Y-96600000D01*
X171556249Y-96600000D01*
X171766123Y-96566758D01*
X171766136Y-96566755D01*
X171968217Y-96501095D01*
X171968221Y-96501093D01*
X172157554Y-96404623D01*
X172157561Y-96404618D01*
X172211716Y-96365270D01*
X172211717Y-96365270D01*
X171579409Y-95732962D01*
X171642993Y-95715925D01*
X171757007Y-95650099D01*
X171850099Y-95557007D01*
X171915925Y-95442993D01*
X171932962Y-95379409D01*
X172565270Y-96011717D01*
X172565270Y-96011716D01*
X172604618Y-95957561D01*
X172604623Y-95957554D01*
X172701093Y-95768221D01*
X172701095Y-95768217D01*
X172766755Y-95566136D01*
X172766758Y-95566123D01*
X172800000Y-95356248D01*
X172800000Y-95143751D01*
X172766758Y-94933876D01*
X172766755Y-94933863D01*
X172701095Y-94731782D01*
X172701093Y-94731778D01*
X172604624Y-94542449D01*
X172604625Y-94542449D01*
X172565269Y-94488282D01*
X171932962Y-95120590D01*
X171915925Y-95057007D01*
X171850099Y-94942993D01*
X171757007Y-94849901D01*
X171642993Y-94784075D01*
X171579407Y-94767037D01*
X172211716Y-94134728D01*
X172157556Y-94095378D01*
X172157550Y-94095375D01*
X171968221Y-93998906D01*
X171968217Y-93998904D01*
X171766136Y-93933244D01*
X171766123Y-93933241D01*
X171556249Y-93900000D01*
X171343751Y-93900000D01*
X171133876Y-93933241D01*
X171133863Y-93933244D01*
X170931785Y-93998903D01*
X170742450Y-94095374D01*
X170688282Y-94134729D01*
X171320590Y-94767037D01*
X171257007Y-94784075D01*
X171142993Y-94849901D01*
X171049901Y-94942993D01*
X170984075Y-95057007D01*
X170967037Y-95120590D01*
X170334729Y-94488282D01*
X170295374Y-94542450D01*
X170198903Y-94731785D01*
X170133244Y-94933863D01*
X170133241Y-94933876D01*
X170100000Y-95143751D01*
X96600000Y-95143751D01*
X96566758Y-94933876D01*
X96566755Y-94933863D01*
X96501095Y-94731782D01*
X96501093Y-94731778D01*
X96404624Y-94542449D01*
X96404625Y-94542449D01*
X96365269Y-94488282D01*
X95732962Y-95120590D01*
X95715925Y-95057007D01*
X95650099Y-94942993D01*
X95557007Y-94849901D01*
X95442993Y-94784075D01*
X95379407Y-94767037D01*
X96011716Y-94134728D01*
X95957556Y-94095378D01*
X95957550Y-94095375D01*
X95768221Y-93998906D01*
X95768217Y-93998904D01*
X95566136Y-93933244D01*
X95566123Y-93933241D01*
X95356249Y-93900000D01*
X95143751Y-93900000D01*
X94933876Y-93933241D01*
X94933863Y-93933244D01*
X94731785Y-93998903D01*
X94542450Y-94095374D01*
X94488282Y-94134729D01*
X95120590Y-94767037D01*
X95057007Y-94784075D01*
X94942993Y-94849901D01*
X94849901Y-94942993D01*
X94784075Y-95057007D01*
X94767037Y-95120590D01*
X94134729Y-94488282D01*
X94095374Y-94542450D01*
X93998903Y-94731785D01*
X93933244Y-94933863D01*
X93933241Y-94933876D01*
X93900000Y-95143751D01*
X83945315Y-95143751D01*
X71983478Y-83181914D01*
X82843250Y-83181914D01*
X82843250Y-83220743D01*
X82843250Y-83505586D01*
X82863789Y-83687881D01*
X82879489Y-83827225D01*
X82951511Y-84142773D01*
X82951515Y-84142785D01*
X83058409Y-84448273D01*
X83058413Y-84448282D01*
X83058415Y-84448286D01*
X83088427Y-84510606D01*
X83198848Y-84739898D01*
X83198850Y-84739902D01*
X83198851Y-84739903D01*
X83216808Y-84768482D01*
X83371054Y-85013964D01*
X83552527Y-85241524D01*
X83572860Y-85267020D01*
X83801730Y-85495890D01*
X84054786Y-85697696D01*
X84328847Y-85869899D01*
X84620464Y-86010335D01*
X84620470Y-86010337D01*
X84620476Y-86010340D01*
X84853609Y-86091916D01*
X84925972Y-86117237D01*
X84925975Y-86117237D01*
X84925976Y-86117238D01*
X84955664Y-86124014D01*
X85241528Y-86189261D01*
X85563164Y-86225500D01*
X85563168Y-86225500D01*
X85886832Y-86225500D01*
X85886836Y-86225500D01*
X86208472Y-86189261D01*
X86524028Y-86117237D01*
X86691950Y-86058478D01*
X86829523Y-86010340D01*
X86829526Y-86010338D01*
X86829536Y-86010335D01*
X87121153Y-85869899D01*
X87395214Y-85697696D01*
X87648270Y-85495890D01*
X87877140Y-85267020D01*
X88078946Y-85013964D01*
X88251149Y-84739903D01*
X88391585Y-84448286D01*
X88401363Y-84420344D01*
X88462744Y-84244925D01*
X88498487Y-84142778D01*
X88570511Y-83827222D01*
X88606750Y-83505586D01*
X88606750Y-83181914D01*
X88570511Y-82860278D01*
X88498487Y-82544722D01*
X88462071Y-82440650D01*
X88391590Y-82239226D01*
X88391587Y-82239220D01*
X88391585Y-82239214D01*
X88261132Y-81968327D01*
X88251151Y-81947601D01*
X88251150Y-81947600D01*
X88251149Y-81947597D01*
X88078946Y-81673536D01*
X87877140Y-81420480D01*
X87648270Y-81191610D01*
X87395214Y-80989804D01*
X87121153Y-80817601D01*
X87121152Y-80817600D01*
X87121148Y-80817598D01*
X86946288Y-80733390D01*
X86829536Y-80677165D01*
X86829532Y-80677163D01*
X86829523Y-80677159D01*
X86524035Y-80570265D01*
X86524023Y-80570261D01*
X86208475Y-80498239D01*
X86070628Y-80482708D01*
X85886836Y-80462000D01*
X85563164Y-80462000D01*
X85423004Y-80477792D01*
X85241524Y-80498239D01*
X84925976Y-80570261D01*
X84925964Y-80570265D01*
X84620476Y-80677159D01*
X84620466Y-80677164D01*
X84328851Y-80817598D01*
X84054785Y-80989804D01*
X83801730Y-81191609D01*
X83572859Y-81420480D01*
X83371054Y-81673535D01*
X83198848Y-81947601D01*
X83058414Y-82239216D01*
X83058409Y-82239226D01*
X82951515Y-82544714D01*
X82951511Y-82544726D01*
X82879489Y-82860274D01*
X82858781Y-83044070D01*
X82843250Y-83181914D01*
X71983478Y-83181914D01*
X69363564Y-80562000D01*
X69249440Y-80496110D01*
X69249431Y-80496106D01*
X69122144Y-80462000D01*
X69122142Y-80462000D01*
X33339929Y-80462000D01*
X33335089Y-80461842D01*
X33096848Y-80446226D01*
X33087251Y-80444962D01*
X32855485Y-80398861D01*
X32846135Y-80396356D01*
X32622359Y-80320394D01*
X32613417Y-80316690D01*
X32431190Y-80226826D01*
X32401470Y-80212169D01*
X32393095Y-80207334D01*
X32196602Y-80076042D01*
X32188925Y-80070151D01*
X32157267Y-80042388D01*
X32091272Y-79984511D01*
X32011255Y-79914338D01*
X32004411Y-79907494D01*
X31932504Y-79825500D01*
X31848594Y-79729819D01*
X31842709Y-79722149D01*
X31711412Y-79525649D01*
X31706582Y-79517284D01*
X31602058Y-79305329D01*
X31598355Y-79296390D01*
X31592053Y-79277826D01*
X31522392Y-79072612D01*
X31519888Y-79063264D01*
X31515320Y-79040301D01*
X31473786Y-78831497D01*
X31472523Y-78821901D01*
X31456908Y-78583660D01*
X31456750Y-78578820D01*
X31456750Y-76093751D01*
X36750000Y-76093751D01*
X36750000Y-76306248D01*
X36783241Y-76516123D01*
X36783244Y-76516136D01*
X36848904Y-76718217D01*
X36848906Y-76718221D01*
X36945375Y-76907550D01*
X36945378Y-76907556D01*
X36984728Y-76961716D01*
X37617037Y-76329407D01*
X37634075Y-76392993D01*
X37699901Y-76507007D01*
X37792993Y-76600099D01*
X37907007Y-76665925D01*
X37970590Y-76682962D01*
X37338282Y-77315270D01*
X37392449Y-77354624D01*
X37581778Y-77451093D01*
X37581782Y-77451095D01*
X37783863Y-77516755D01*
X37783876Y-77516758D01*
X37993751Y-77550000D01*
X38206249Y-77550000D01*
X38416123Y-77516758D01*
X38416136Y-77516755D01*
X38618217Y-77451095D01*
X38618221Y-77451093D01*
X38807554Y-77354623D01*
X38807561Y-77354618D01*
X38861716Y-77315270D01*
X38861717Y-77315270D01*
X38229409Y-76682962D01*
X38292993Y-76665925D01*
X38407007Y-76600099D01*
X38500099Y-76507007D01*
X38565925Y-76392993D01*
X38582962Y-76329409D01*
X39215270Y-76961717D01*
X39215270Y-76961716D01*
X39254618Y-76907561D01*
X39254623Y-76907554D01*
X39351093Y-76718221D01*
X39351095Y-76718217D01*
X39416755Y-76516136D01*
X39416758Y-76516123D01*
X39450000Y-76306248D01*
X39450000Y-76093751D01*
X39416758Y-75883876D01*
X39416755Y-75883863D01*
X39351095Y-75681782D01*
X39351093Y-75681778D01*
X39254624Y-75492449D01*
X39254625Y-75492449D01*
X39215269Y-75438282D01*
X38582962Y-76070590D01*
X38565925Y-76007007D01*
X38500099Y-75892993D01*
X38407007Y-75799901D01*
X38292993Y-75734075D01*
X38229407Y-75717037D01*
X38861716Y-75084728D01*
X38807556Y-75045378D01*
X38807550Y-75045375D01*
X38618221Y-74948906D01*
X38618217Y-74948904D01*
X38416136Y-74883244D01*
X38416123Y-74883241D01*
X38206249Y-74850000D01*
X37993751Y-74850000D01*
X37783876Y-74883241D01*
X37783863Y-74883244D01*
X37581785Y-74948903D01*
X37392450Y-75045374D01*
X37338282Y-75084729D01*
X37970590Y-75717037D01*
X37907007Y-75734075D01*
X37792993Y-75799901D01*
X37699901Y-75892993D01*
X37634075Y-76007007D01*
X37617037Y-76070590D01*
X36984729Y-75438282D01*
X36945374Y-75492450D01*
X36848903Y-75681785D01*
X36783244Y-75883863D01*
X36783241Y-75883876D01*
X36750000Y-76093751D01*
X31456750Y-76093751D01*
X31456750Y-73656914D01*
X44743250Y-73656914D01*
X44743250Y-73695743D01*
X44743250Y-73980586D01*
X44760576Y-74134359D01*
X44779489Y-74302225D01*
X44851511Y-74617773D01*
X44851515Y-74617785D01*
X44958409Y-74923273D01*
X44958413Y-74923282D01*
X44958415Y-74923286D01*
X45014845Y-75040463D01*
X45098848Y-75214898D01*
X45098850Y-75214901D01*
X45098851Y-75214903D01*
X45197751Y-75372302D01*
X45271054Y-75488964D01*
X45466151Y-75733608D01*
X45472860Y-75742020D01*
X45701730Y-75970890D01*
X45954786Y-76172696D01*
X46228847Y-76344899D01*
X46520464Y-76485335D01*
X46520470Y-76485337D01*
X46520476Y-76485340D01*
X46732984Y-76559699D01*
X46825972Y-76592237D01*
X47141528Y-76664261D01*
X47463164Y-76700500D01*
X47463168Y-76700500D01*
X47786832Y-76700500D01*
X47786836Y-76700500D01*
X48108472Y-76664261D01*
X48424028Y-76592237D01*
X48616257Y-76524973D01*
X48729523Y-76485340D01*
X48729526Y-76485338D01*
X48729536Y-76485335D01*
X49021153Y-76344899D01*
X49295214Y-76172696D01*
X49394208Y-76093751D01*
X55800000Y-76093751D01*
X55800000Y-76306248D01*
X55833241Y-76516123D01*
X55833244Y-76516136D01*
X55898904Y-76718217D01*
X55898906Y-76718221D01*
X55995375Y-76907550D01*
X55995378Y-76907556D01*
X56034728Y-76961716D01*
X56667037Y-76329407D01*
X56684075Y-76392993D01*
X56749901Y-76507007D01*
X56842993Y-76600099D01*
X56957007Y-76665925D01*
X57020590Y-76682962D01*
X56388282Y-77315270D01*
X56442449Y-77354624D01*
X56631778Y-77451093D01*
X56631782Y-77451095D01*
X56833863Y-77516755D01*
X56833876Y-77516758D01*
X57043751Y-77550000D01*
X57256249Y-77550000D01*
X57466123Y-77516758D01*
X57466136Y-77516755D01*
X57668217Y-77451095D01*
X57668221Y-77451093D01*
X57857554Y-77354623D01*
X57857561Y-77354618D01*
X57911716Y-77315270D01*
X57911717Y-77315270D01*
X57279409Y-76682962D01*
X57342993Y-76665925D01*
X57457007Y-76600099D01*
X57550099Y-76507007D01*
X57615925Y-76392993D01*
X57632962Y-76329409D01*
X58265270Y-76961717D01*
X58265270Y-76961716D01*
X58304618Y-76907561D01*
X58304623Y-76907554D01*
X58401093Y-76718221D01*
X58401095Y-76718217D01*
X58466755Y-76516136D01*
X58466758Y-76516123D01*
X58500000Y-76306248D01*
X58500000Y-76093751D01*
X58466758Y-75883876D01*
X58466755Y-75883863D01*
X58401095Y-75681782D01*
X58401093Y-75681778D01*
X58304624Y-75492449D01*
X58304625Y-75492449D01*
X58265269Y-75438282D01*
X57632962Y-76070590D01*
X57615925Y-76007007D01*
X57550099Y-75892993D01*
X57457007Y-75799901D01*
X57342993Y-75734075D01*
X57279407Y-75717037D01*
X57911716Y-75084728D01*
X57857556Y-75045378D01*
X57857550Y-75045375D01*
X57668221Y-74948906D01*
X57668217Y-74948904D01*
X57466136Y-74883244D01*
X57466123Y-74883241D01*
X57256249Y-74850000D01*
X57043751Y-74850000D01*
X56833876Y-74883241D01*
X56833863Y-74883244D01*
X56631785Y-74948903D01*
X56442450Y-75045374D01*
X56388282Y-75084729D01*
X57020590Y-75717037D01*
X56957007Y-75734075D01*
X56842993Y-75799901D01*
X56749901Y-75892993D01*
X56684075Y-76007007D01*
X56667037Y-76070590D01*
X56034729Y-75438282D01*
X55995374Y-75492450D01*
X55898903Y-75681785D01*
X55833244Y-75883863D01*
X55833241Y-75883876D01*
X55800000Y-76093751D01*
X49394208Y-76093751D01*
X49470401Y-76032989D01*
X49470403Y-76032988D01*
X49548264Y-75970895D01*
X49548265Y-75970893D01*
X49548270Y-75970890D01*
X49777140Y-75742020D01*
X49978946Y-75488964D01*
X50151149Y-75214903D01*
X50291585Y-74923286D01*
X50291975Y-74922174D01*
X50378814Y-74674000D01*
X50398487Y-74617778D01*
X50470511Y-74302222D01*
X50506750Y-73980586D01*
X50506750Y-73656914D01*
X63793250Y-73656914D01*
X63793250Y-73695743D01*
X63793250Y-73980586D01*
X63810576Y-74134359D01*
X63829489Y-74302225D01*
X63901511Y-74617773D01*
X63901515Y-74617785D01*
X64008409Y-74923273D01*
X64008413Y-74923282D01*
X64008415Y-74923286D01*
X64064845Y-75040463D01*
X64148848Y-75214898D01*
X64148850Y-75214901D01*
X64148851Y-75214903D01*
X64247751Y-75372302D01*
X64321054Y-75488964D01*
X64516151Y-75733608D01*
X64522860Y-75742020D01*
X64751730Y-75970890D01*
X65004786Y-76172696D01*
X65278847Y-76344899D01*
X65570464Y-76485335D01*
X65570470Y-76485337D01*
X65570476Y-76485340D01*
X65782984Y-76559699D01*
X65875972Y-76592237D01*
X66191528Y-76664261D01*
X66513164Y-76700500D01*
X66513168Y-76700500D01*
X66836832Y-76700500D01*
X66836836Y-76700500D01*
X67158472Y-76664261D01*
X67474028Y-76592237D01*
X67666257Y-76524973D01*
X67779523Y-76485340D01*
X67779526Y-76485338D01*
X67779536Y-76485335D01*
X68071153Y-76344899D01*
X68345214Y-76172696D01*
X68444208Y-76093751D01*
X74850000Y-76093751D01*
X74850000Y-76306248D01*
X74883241Y-76516123D01*
X74883244Y-76516136D01*
X74948904Y-76718217D01*
X74948906Y-76718221D01*
X75045375Y-76907550D01*
X75045378Y-76907556D01*
X75084728Y-76961716D01*
X75717037Y-76329407D01*
X75734075Y-76392993D01*
X75799901Y-76507007D01*
X75892993Y-76600099D01*
X76007007Y-76665925D01*
X76070590Y-76682962D01*
X75438282Y-77315270D01*
X75492449Y-77354624D01*
X75681778Y-77451093D01*
X75681782Y-77451095D01*
X75883863Y-77516755D01*
X75883876Y-77516758D01*
X76093751Y-77550000D01*
X76306249Y-77550000D01*
X76516123Y-77516758D01*
X76516136Y-77516755D01*
X76718217Y-77451095D01*
X76718221Y-77451093D01*
X76907554Y-77354623D01*
X76907561Y-77354618D01*
X76961716Y-77315270D01*
X76961717Y-77315270D01*
X76329409Y-76682962D01*
X76392993Y-76665925D01*
X76507007Y-76600099D01*
X76600099Y-76507007D01*
X76665925Y-76392993D01*
X76682962Y-76329409D01*
X77315270Y-76961717D01*
X77315270Y-76961716D01*
X77354618Y-76907561D01*
X77354623Y-76907554D01*
X77451093Y-76718221D01*
X77451095Y-76718217D01*
X77516755Y-76516136D01*
X77516758Y-76516123D01*
X77550000Y-76306248D01*
X77550000Y-76093751D01*
X77516758Y-75883876D01*
X77516755Y-75883863D01*
X77451095Y-75681782D01*
X77451093Y-75681778D01*
X77354624Y-75492449D01*
X77354625Y-75492449D01*
X77315269Y-75438282D01*
X76682962Y-76070590D01*
X76665925Y-76007007D01*
X76600099Y-75892993D01*
X76507007Y-75799901D01*
X76392993Y-75734075D01*
X76329407Y-75717037D01*
X76961716Y-75084728D01*
X76907556Y-75045378D01*
X76907550Y-75045375D01*
X76718221Y-74948906D01*
X76718217Y-74948904D01*
X76516136Y-74883244D01*
X76516123Y-74883241D01*
X76306249Y-74850000D01*
X76093751Y-74850000D01*
X75883876Y-74883241D01*
X75883863Y-74883244D01*
X75681785Y-74948903D01*
X75492450Y-75045374D01*
X75438282Y-75084729D01*
X76070590Y-75717037D01*
X76007007Y-75734075D01*
X75892993Y-75799901D01*
X75799901Y-75892993D01*
X75734075Y-76007007D01*
X75717037Y-76070590D01*
X75084729Y-75438282D01*
X75045374Y-75492450D01*
X74948903Y-75681785D01*
X74883244Y-75883863D01*
X74883241Y-75883876D01*
X74850000Y-76093751D01*
X68444208Y-76093751D01*
X68520401Y-76032989D01*
X68520403Y-76032988D01*
X68598264Y-75970895D01*
X68598265Y-75970893D01*
X68598270Y-75970890D01*
X68827140Y-75742020D01*
X69028946Y-75488964D01*
X69201149Y-75214903D01*
X69341585Y-74923286D01*
X69341975Y-74922174D01*
X69428814Y-74674000D01*
X69448487Y-74617778D01*
X69520511Y-74302222D01*
X69556750Y-73980586D01*
X69556750Y-73656914D01*
X69520511Y-73335278D01*
X69448487Y-73019722D01*
X69427069Y-72958513D01*
X69341590Y-72714226D01*
X69341587Y-72714220D01*
X69341585Y-72714214D01*
X69201149Y-72422597D01*
X69028946Y-72148536D01*
X68827140Y-71895480D01*
X68598270Y-71666610D01*
X68588075Y-71658480D01*
X68345214Y-71464804D01*
X68108372Y-71315987D01*
X68071153Y-71292601D01*
X68071152Y-71292600D01*
X68071148Y-71292598D01*
X67896288Y-71208390D01*
X67779536Y-71152165D01*
X67779532Y-71152163D01*
X67779523Y-71152159D01*
X67474035Y-71045265D01*
X67474023Y-71045261D01*
X67158475Y-70973239D01*
X67017477Y-70957353D01*
X66836836Y-70937000D01*
X66513164Y-70937000D01*
X66352346Y-70955119D01*
X66191524Y-70973239D01*
X65875976Y-71045261D01*
X65875964Y-71045265D01*
X65570476Y-71152159D01*
X65570466Y-71152164D01*
X65278851Y-71292598D01*
X65004785Y-71464804D01*
X64751730Y-71666609D01*
X64522859Y-71895480D01*
X64321054Y-72148535D01*
X64148848Y-72422601D01*
X64008414Y-72714216D01*
X64008409Y-72714226D01*
X63901515Y-73019714D01*
X63901511Y-73019726D01*
X63829489Y-73335274D01*
X63816301Y-73452326D01*
X63793250Y-73656914D01*
X50506750Y-73656914D01*
X50470511Y-73335278D01*
X50398487Y-73019722D01*
X50377069Y-72958513D01*
X50291590Y-72714226D01*
X50291587Y-72714220D01*
X50291585Y-72714214D01*
X50151149Y-72422597D01*
X49978946Y-72148536D01*
X49777140Y-71895480D01*
X49548270Y-71666610D01*
X49538075Y-71658480D01*
X49295214Y-71464804D01*
X49058372Y-71315987D01*
X49021153Y-71292601D01*
X49021152Y-71292600D01*
X49021148Y-71292598D01*
X48846288Y-71208390D01*
X48729536Y-71152165D01*
X48729532Y-71152163D01*
X48729523Y-71152159D01*
X48424035Y-71045265D01*
X48424023Y-71045261D01*
X48108475Y-70973239D01*
X47967477Y-70957353D01*
X47786836Y-70937000D01*
X47463164Y-70937000D01*
X47302346Y-70955119D01*
X47141524Y-70973239D01*
X46825976Y-71045261D01*
X46825964Y-71045265D01*
X46520476Y-71152159D01*
X46520466Y-71152164D01*
X46228851Y-71292598D01*
X45954785Y-71464804D01*
X45701730Y-71666609D01*
X45472859Y-71895480D01*
X45271054Y-72148535D01*
X45098848Y-72422601D01*
X44958414Y-72714216D01*
X44958409Y-72714226D01*
X44851515Y-73019714D01*
X44851511Y-73019726D01*
X44779489Y-73335274D01*
X44766301Y-73452326D01*
X44743250Y-73656914D01*
X31456750Y-73656914D01*
X31456750Y-65936535D01*
X37049500Y-65936535D01*
X37049500Y-66143464D01*
X37089868Y-66346413D01*
X37089870Y-66346420D01*
X37169059Y-66537598D01*
X37279144Y-66702354D01*
X37284023Y-66709655D01*
X37430345Y-66855977D01*
X37602402Y-66970941D01*
X37793580Y-67050130D01*
X37996535Y-67090500D01*
X37996536Y-67090500D01*
X38203464Y-67090500D01*
X38203465Y-67090500D01*
X38406420Y-67050130D01*
X38557836Y-66987411D01*
X38614474Y-66987411D01*
X38638480Y-67003451D01*
X39816959Y-68181930D01*
X39816961Y-68181931D01*
X39816962Y-68181932D01*
X39860050Y-68206809D01*
X39885482Y-68221492D01*
X39961908Y-68241970D01*
X40041032Y-68241970D01*
X114537817Y-68241970D01*
X114590143Y-68263644D01*
X117829296Y-71502797D01*
X117850970Y-71555123D01*
X117850970Y-71665892D01*
X117884132Y-71789654D01*
X117885079Y-71793189D01*
X117886733Y-71797181D01*
X117886733Y-71853818D01*
X117846685Y-71893867D01*
X117818366Y-71899500D01*
X95555123Y-71899500D01*
X95502797Y-71877826D01*
X94230497Y-70605526D01*
X92954511Y-69329540D01*
X92954508Y-69329538D01*
X92954506Y-69329536D01*
X92937952Y-69319979D01*
X92885987Y-69289978D01*
X92885988Y-69289978D01*
X92809564Y-69269500D01*
X92809562Y-69269500D01*
X39610438Y-69269500D01*
X39610436Y-69269500D01*
X39534011Y-69289978D01*
X39482048Y-69319979D01*
X39465493Y-69329536D01*
X38638480Y-70156547D01*
X38586154Y-70178221D01*
X38557836Y-70172588D01*
X38406424Y-70109871D01*
X38406413Y-70109868D01*
X38253516Y-70079455D01*
X38203465Y-70069500D01*
X37996535Y-70069500D01*
X37956385Y-70077486D01*
X37793586Y-70109868D01*
X37793579Y-70109870D01*
X37602401Y-70189059D01*
X37430345Y-70304022D01*
X37430344Y-70304024D01*
X37284024Y-70450344D01*
X37284022Y-70450345D01*
X37169059Y-70622401D01*
X37089870Y-70813579D01*
X37089868Y-70813586D01*
X37049500Y-71016535D01*
X37049500Y-71223464D01*
X37089868Y-71426413D01*
X37089870Y-71426420D01*
X37169059Y-71617598D01*
X37278141Y-71780853D01*
X37284023Y-71789655D01*
X37430345Y-71935977D01*
X37602402Y-72050941D01*
X37793580Y-72130130D01*
X37996535Y-72170500D01*
X37996536Y-72170500D01*
X38203464Y-72170500D01*
X38203465Y-72170500D01*
X38406420Y-72130130D01*
X38597598Y-72050941D01*
X38769655Y-71935977D01*
X38915977Y-71789655D01*
X39030941Y-71617598D01*
X39110130Y-71426420D01*
X39150500Y-71223465D01*
X39150500Y-71016535D01*
X39110130Y-70813580D01*
X39047410Y-70662161D01*
X39047410Y-70605526D01*
X39063448Y-70581521D01*
X39752797Y-69892174D01*
X39805123Y-69870500D01*
X57795877Y-69870500D01*
X57848203Y-69892174D01*
X57869877Y-69944500D01*
X57848203Y-69996826D01*
X57688480Y-70156547D01*
X57636154Y-70178221D01*
X57607836Y-70172588D01*
X57456424Y-70109871D01*
X57456413Y-70109868D01*
X57303516Y-70079455D01*
X57253465Y-70069500D01*
X57046535Y-70069500D01*
X57006385Y-70077486D01*
X56843586Y-70109868D01*
X56843579Y-70109870D01*
X56652401Y-70189059D01*
X56480345Y-70304022D01*
X56480344Y-70304024D01*
X56334024Y-70450344D01*
X56334022Y-70450345D01*
X56219059Y-70622401D01*
X56139870Y-70813579D01*
X56139868Y-70813586D01*
X56099500Y-71016535D01*
X56099500Y-71223464D01*
X56139868Y-71426413D01*
X56139870Y-71426420D01*
X56219059Y-71617598D01*
X56328141Y-71780853D01*
X56334023Y-71789655D01*
X56480345Y-71935977D01*
X56652402Y-72050941D01*
X56843580Y-72130130D01*
X57046535Y-72170500D01*
X57046536Y-72170500D01*
X57253464Y-72170500D01*
X57253465Y-72170500D01*
X57456420Y-72130130D01*
X57647598Y-72050941D01*
X57819655Y-71935977D01*
X57965977Y-71789655D01*
X58080941Y-71617598D01*
X58160130Y-71426420D01*
X58200500Y-71223465D01*
X58200500Y-71016535D01*
X58160130Y-70813580D01*
X58097410Y-70662161D01*
X58097410Y-70605526D01*
X58113448Y-70581521D01*
X58402797Y-70292174D01*
X58455123Y-70270500D01*
X75385216Y-70270500D01*
X75437542Y-70292174D01*
X75459216Y-70344500D01*
X75437542Y-70396826D01*
X75384024Y-70450344D01*
X75384022Y-70450345D01*
X75269059Y-70622401D01*
X75189870Y-70813579D01*
X75189868Y-70813586D01*
X75149500Y-71016535D01*
X75149500Y-71223464D01*
X75189868Y-71426413D01*
X75189870Y-71426420D01*
X75269059Y-71617598D01*
X75378141Y-71780853D01*
X75384023Y-71789655D01*
X75530345Y-71935977D01*
X75702402Y-72050941D01*
X75893580Y-72130130D01*
X76096535Y-72170500D01*
X76096536Y-72170500D01*
X76303464Y-72170500D01*
X76303465Y-72170500D01*
X76506420Y-72130130D01*
X76657836Y-72067411D01*
X76714474Y-72067411D01*
X76738480Y-72083451D01*
X78639540Y-73984511D01*
X78695489Y-74040460D01*
X78764011Y-74080021D01*
X78764012Y-74080021D01*
X78764014Y-74080022D01*
X78767556Y-74080971D01*
X78840435Y-74100499D01*
X78840436Y-74100500D01*
X78840438Y-74100500D01*
X78919562Y-74100500D01*
X126794126Y-74100500D01*
X126846452Y-74122174D01*
X126854745Y-74132058D01*
X126856356Y-74134359D01*
X126869671Y-74147674D01*
X126891345Y-74200000D01*
X126869671Y-74252326D01*
X126856356Y-74265640D01*
X126854745Y-74267942D01*
X126852843Y-74269153D01*
X126851778Y-74270219D01*
X126851541Y-74269982D01*
X126806979Y-74298375D01*
X126794126Y-74299500D01*
X110780436Y-74299500D01*
X110704014Y-74319977D01*
X110704009Y-74319979D01*
X110680405Y-74333608D01*
X110635488Y-74359540D01*
X95788480Y-89206547D01*
X95736154Y-89228221D01*
X95707836Y-89222588D01*
X95556424Y-89159871D01*
X95556413Y-89159868D01*
X95403516Y-89129455D01*
X95353465Y-89119500D01*
X95146535Y-89119500D01*
X95106385Y-89127486D01*
X94943586Y-89159868D01*
X94943579Y-89159870D01*
X94752401Y-89239059D01*
X94580345Y-89354022D01*
X94580344Y-89354024D01*
X94526826Y-89407542D01*
X94474500Y-89429216D01*
X94422174Y-89407542D01*
X94400500Y-89355216D01*
X94400500Y-86395122D01*
X94422173Y-86342797D01*
X94711519Y-86053450D01*
X94763844Y-86031777D01*
X94792160Y-86037409D01*
X94943580Y-86100130D01*
X95146535Y-86140500D01*
X95146536Y-86140500D01*
X95353464Y-86140500D01*
X95353465Y-86140500D01*
X95556420Y-86100130D01*
X95747598Y-86020941D01*
X95919655Y-85905977D01*
X96065977Y-85759655D01*
X96180941Y-85587598D01*
X96260130Y-85396420D01*
X96300500Y-85193465D01*
X96300500Y-84986535D01*
X96260130Y-84783580D01*
X96180941Y-84592402D01*
X96065977Y-84420345D01*
X95919655Y-84274023D01*
X95876106Y-84244925D01*
X95747598Y-84159059D01*
X95556420Y-84079870D01*
X95556413Y-84079868D01*
X95403516Y-84049455D01*
X95353465Y-84039500D01*
X95146535Y-84039500D01*
X95106385Y-84047486D01*
X94943586Y-84079868D01*
X94943579Y-84079870D01*
X94752401Y-84159059D01*
X94580345Y-84274022D01*
X94580344Y-84274024D01*
X94434024Y-84420344D01*
X94434022Y-84420345D01*
X94319059Y-84592401D01*
X94239870Y-84783579D01*
X94239868Y-84783586D01*
X94199500Y-84986535D01*
X94199500Y-85193464D01*
X94239868Y-85396413D01*
X94239871Y-85396424D01*
X94302588Y-85547836D01*
X94302588Y-85604473D01*
X94286547Y-85628480D01*
X93915489Y-85999540D01*
X93859540Y-86055488D01*
X93819979Y-86124009D01*
X93819977Y-86124014D01*
X93799500Y-86200435D01*
X93799500Y-90685910D01*
X93819977Y-90762331D01*
X93819979Y-90762336D01*
X93859540Y-90830857D01*
X94589143Y-91560460D01*
X94657666Y-91600022D01*
X94734092Y-91620500D01*
X94734094Y-91620500D01*
X134519564Y-91620500D01*
X134519564Y-91620499D01*
X134595989Y-91600021D01*
X134664511Y-91560460D01*
X134720460Y-91504511D01*
X135899304Y-90325667D01*
X154280750Y-90325667D01*
X154280750Y-90649332D01*
X154316989Y-90970975D01*
X154389011Y-91286523D01*
X154389015Y-91286535D01*
X154495909Y-91592023D01*
X154495913Y-91592032D01*
X154495915Y-91592036D01*
X154499761Y-91600022D01*
X154636348Y-91883648D01*
X154636350Y-91883652D01*
X154636351Y-91883653D01*
X154808554Y-92157714D01*
X155010360Y-92410770D01*
X155239230Y-92639640D01*
X155492286Y-92841446D01*
X155766347Y-93013649D01*
X156057964Y-93154085D01*
X156057970Y-93154087D01*
X156057976Y-93154090D01*
X156302263Y-93239569D01*
X156363472Y-93260987D01*
X156679028Y-93333011D01*
X157000664Y-93369250D01*
X157000668Y-93369250D01*
X157324332Y-93369250D01*
X157324336Y-93369250D01*
X157645972Y-93333011D01*
X157961528Y-93260987D01*
X158129450Y-93202228D01*
X158267023Y-93154090D01*
X158267026Y-93154088D01*
X158267036Y-93154085D01*
X158558653Y-93013649D01*
X158832714Y-92841446D01*
X159085770Y-92639640D01*
X159314640Y-92410770D01*
X159516446Y-92157714D01*
X159688649Y-91883653D01*
X159829085Y-91592036D01*
X159840134Y-91560462D01*
X159877228Y-91454450D01*
X159935987Y-91286528D01*
X160008011Y-90970972D01*
X160044250Y-90649336D01*
X160044250Y-90325664D01*
X160008011Y-90004028D01*
X159935987Y-89688472D01*
X159887714Y-89550516D01*
X159829090Y-89382976D01*
X159829087Y-89382970D01*
X159829085Y-89382964D01*
X159688649Y-89091347D01*
X159516446Y-88817286D01*
X159314640Y-88564230D01*
X159085770Y-88335360D01*
X158832714Y-88133554D01*
X158558653Y-87961351D01*
X158558652Y-87961350D01*
X158558648Y-87961348D01*
X158383788Y-87877140D01*
X158267036Y-87820915D01*
X158267032Y-87820913D01*
X158267023Y-87820909D01*
X157961535Y-87714015D01*
X157961523Y-87714011D01*
X157645975Y-87641989D01*
X157508128Y-87626458D01*
X157324336Y-87605750D01*
X157000664Y-87605750D01*
X156839846Y-87623869D01*
X156679024Y-87641989D01*
X156363476Y-87714011D01*
X156363464Y-87714015D01*
X156057976Y-87820909D01*
X156057966Y-87820914D01*
X155766351Y-87961348D01*
X155492285Y-88133554D01*
X155239230Y-88335359D01*
X155010359Y-88564230D01*
X154808554Y-88817285D01*
X154636348Y-89091351D01*
X154495914Y-89382966D01*
X154495909Y-89382976D01*
X154389015Y-89688464D01*
X154389011Y-89688476D01*
X154316989Y-90004024D01*
X154296281Y-90187820D01*
X154286632Y-90273465D01*
X154280750Y-90325667D01*
X135899304Y-90325667D01*
X140640460Y-85584511D01*
X140649752Y-85568416D01*
X140680021Y-85515989D01*
X140700499Y-85439564D01*
X140700500Y-85439564D01*
X140700500Y-80760437D01*
X140684440Y-80700499D01*
X140684440Y-80700498D01*
X140680022Y-80684012D01*
X140680019Y-80684006D01*
X140640462Y-80615491D01*
X140640461Y-80615490D01*
X140640460Y-80615488D01*
X140045777Y-80020805D01*
X140024103Y-79968479D01*
X140045777Y-79916153D01*
X140078948Y-79897001D01*
X140193186Y-79866392D01*
X140307314Y-79800500D01*
X140385640Y-79722174D01*
X140437966Y-79700500D01*
X160524877Y-79700500D01*
X160577203Y-79722174D01*
X170486548Y-89631519D01*
X170508222Y-89683845D01*
X170502589Y-89712164D01*
X170439870Y-89863579D01*
X170439868Y-89863586D01*
X170399500Y-90066535D01*
X170399500Y-90273464D01*
X170439868Y-90476413D01*
X170439870Y-90476420D01*
X170519059Y-90667598D01*
X170634023Y-90839655D01*
X170780345Y-90985977D01*
X170952402Y-91100941D01*
X171143580Y-91180130D01*
X171346535Y-91220500D01*
X171346536Y-91220500D01*
X171553464Y-91220500D01*
X171553465Y-91220500D01*
X171756420Y-91180130D01*
X171947598Y-91100941D01*
X172119655Y-90985977D01*
X172265977Y-90839655D01*
X172380941Y-90667598D01*
X172460130Y-90476420D01*
X172500500Y-90273465D01*
X172500500Y-90066535D01*
X172460130Y-89863580D01*
X172380941Y-89672402D01*
X172265977Y-89500345D01*
X172119655Y-89354023D01*
X171947598Y-89239059D01*
X171756420Y-89159870D01*
X171756413Y-89159868D01*
X171603516Y-89129455D01*
X171553465Y-89119500D01*
X171346535Y-89119500D01*
X171306385Y-89127486D01*
X171143586Y-89159868D01*
X171143579Y-89159870D01*
X170992164Y-89222589D01*
X170935526Y-89222589D01*
X170911519Y-89206548D01*
X160864511Y-79159540D01*
X160810834Y-79128550D01*
X160810834Y-79128549D01*
X160810832Y-79128549D01*
X160795989Y-79119979D01*
X160795987Y-79119978D01*
X160795985Y-79119977D01*
X160719564Y-79099500D01*
X160719562Y-79099500D01*
X140437966Y-79099500D01*
X140385640Y-79077826D01*
X140307314Y-78999500D01*
X140193190Y-78933610D01*
X140193181Y-78933606D01*
X140065894Y-78899500D01*
X140065892Y-78899500D01*
X139934108Y-78899500D01*
X139934106Y-78899500D01*
X139806818Y-78933606D01*
X139806809Y-78933610D01*
X139692685Y-78999500D01*
X139599500Y-79092685D01*
X139533610Y-79206809D01*
X139533606Y-79206818D01*
X139502998Y-79321049D01*
X139468520Y-79365982D01*
X139412367Y-79373374D01*
X139379194Y-79354222D01*
X137651798Y-77626826D01*
X137630124Y-77574500D01*
X137651798Y-77522174D01*
X137704124Y-77500500D01*
X158762034Y-77500500D01*
X158814360Y-77522174D01*
X158892686Y-77600500D01*
X159006814Y-77666392D01*
X159134105Y-77700499D01*
X159134106Y-77700500D01*
X159134108Y-77700500D01*
X159265894Y-77700500D01*
X159265894Y-77700499D01*
X159393186Y-77666392D01*
X159507314Y-77600500D01*
X159600500Y-77507314D01*
X159666392Y-77393186D01*
X159700499Y-77265894D01*
X159700500Y-77265894D01*
X159700500Y-77134106D01*
X159700499Y-77134105D01*
X159666393Y-77006818D01*
X159666392Y-77006814D01*
X159600500Y-76892686D01*
X159507314Y-76799500D01*
X159503244Y-76797150D01*
X159393190Y-76733610D01*
X159393181Y-76733606D01*
X159265894Y-76699500D01*
X159265892Y-76699500D01*
X159134108Y-76699500D01*
X159134106Y-76699500D01*
X159006818Y-76733606D01*
X159006809Y-76733610D01*
X158892685Y-76799500D01*
X158814360Y-76877826D01*
X158762034Y-76899500D01*
X151901376Y-76899500D01*
X151849050Y-76877826D01*
X151827376Y-76825500D01*
X151833396Y-76798343D01*
X151833002Y-76798213D01*
X151834282Y-76794348D01*
X151834310Y-76794225D01*
X151834356Y-76794125D01*
X151889505Y-76627697D01*
X151899999Y-76524975D01*
X151900000Y-76524973D01*
X151900000Y-76250000D01*
X149900001Y-76250000D01*
X149900001Y-76524976D01*
X149910494Y-76627696D01*
X149965643Y-76794125D01*
X149965690Y-76794225D01*
X149965692Y-76794271D01*
X149966998Y-76798213D01*
X149965880Y-76798583D01*
X149968162Y-76850808D01*
X149929899Y-76892566D01*
X149898624Y-76899500D01*
X149643198Y-76899500D01*
X149590872Y-76877826D01*
X149569198Y-76825500D01*
X149583658Y-76781557D01*
X149619044Y-76733610D01*
X149652793Y-76687882D01*
X149697646Y-76559699D01*
X149700500Y-76529266D01*
X149700500Y-75470734D01*
X149697646Y-75440301D01*
X149652793Y-75312118D01*
X149583659Y-75218445D01*
X149570027Y-75163474D01*
X149599257Y-75114963D01*
X149643200Y-75100503D01*
X149898623Y-75100503D01*
X149950949Y-75122177D01*
X149972623Y-75174503D01*
X149966602Y-75201655D01*
X149966998Y-75201787D01*
X149965714Y-75205661D01*
X149965687Y-75205784D01*
X149965640Y-75205883D01*
X149910494Y-75372302D01*
X149900000Y-75475024D01*
X149900000Y-75750000D01*
X151899999Y-75750000D01*
X151899999Y-75475029D01*
X151899998Y-75475023D01*
X151889505Y-75372303D01*
X151834359Y-75205883D01*
X151834313Y-75205784D01*
X151834310Y-75205737D01*
X151833002Y-75201787D01*
X151834121Y-75201415D01*
X151831837Y-75149201D01*
X151870096Y-75107439D01*
X151901377Y-75100503D01*
X156162034Y-75100503D01*
X156214360Y-75122177D01*
X156292686Y-75200503D01*
X156406814Y-75266395D01*
X156534105Y-75300502D01*
X156534106Y-75300503D01*
X156534108Y-75300503D01*
X156665894Y-75300503D01*
X156665894Y-75300502D01*
X156793186Y-75266395D01*
X156907314Y-75200503D01*
X157000500Y-75107317D01*
X157066392Y-74993189D01*
X157100499Y-74865897D01*
X157100500Y-74865897D01*
X157100500Y-74734109D01*
X157100499Y-74734108D01*
X157100498Y-74734106D01*
X157066392Y-74606817D01*
X157000500Y-74492689D01*
X156960138Y-74452327D01*
X156938464Y-74400001D01*
X156960137Y-74347675D01*
X157000500Y-74307314D01*
X157066392Y-74193186D01*
X157100499Y-74065894D01*
X157100500Y-74065894D01*
X157100500Y-73934109D01*
X157097302Y-73922174D01*
X157066392Y-73806814D01*
X157066390Y-73806810D01*
X157064737Y-73802819D01*
X157064737Y-73746182D01*
X157104785Y-73706133D01*
X157133104Y-73700500D01*
X159604877Y-73700500D01*
X159657203Y-73722174D01*
X170486548Y-84551519D01*
X170508222Y-84603845D01*
X170502589Y-84632164D01*
X170439870Y-84783579D01*
X170439868Y-84783586D01*
X170399500Y-84986535D01*
X170399500Y-85193464D01*
X170439868Y-85396413D01*
X170439870Y-85396420D01*
X170519059Y-85587598D01*
X170592623Y-85697696D01*
X170634023Y-85759655D01*
X170780345Y-85905977D01*
X170952402Y-86020941D01*
X171143580Y-86100130D01*
X171346535Y-86140500D01*
X171346536Y-86140500D01*
X171553464Y-86140500D01*
X171553465Y-86140500D01*
X171756420Y-86100130D01*
X171947598Y-86020941D01*
X172119655Y-85905977D01*
X172265977Y-85759655D01*
X172380941Y-85587598D01*
X172391062Y-85563164D01*
X175712000Y-85563164D01*
X175712000Y-85601993D01*
X175712000Y-85886836D01*
X175725915Y-86010335D01*
X175748239Y-86208475D01*
X175820261Y-86524023D01*
X175820265Y-86524035D01*
X175927159Y-86829523D01*
X175927164Y-86829533D01*
X176067598Y-87121148D01*
X176067600Y-87121152D01*
X176067601Y-87121153D01*
X176239804Y-87395214D01*
X176441610Y-87648270D01*
X176670480Y-87877140D01*
X176923536Y-88078946D01*
X177197597Y-88251149D01*
X177489214Y-88391585D01*
X177489220Y-88391587D01*
X177489226Y-88391590D01*
X177733513Y-88477069D01*
X177794722Y-88498487D01*
X178110278Y-88570511D01*
X178431914Y-88606750D01*
X178431918Y-88606750D01*
X178755582Y-88606750D01*
X178755586Y-88606750D01*
X179077222Y-88570511D01*
X179392778Y-88498487D01*
X179560700Y-88439728D01*
X179698273Y-88391590D01*
X179698276Y-88391588D01*
X179698286Y-88391585D01*
X179989903Y-88251149D01*
X180263964Y-88078946D01*
X180517020Y-87877140D01*
X180745890Y-87648270D01*
X180947696Y-87395214D01*
X181119899Y-87121153D01*
X181260335Y-86829536D01*
X181270496Y-86800500D01*
X181327237Y-86638342D01*
X181367237Y-86524028D01*
X181439261Y-86208472D01*
X181475500Y-85886836D01*
X181475500Y-85563164D01*
X181439261Y-85241528D01*
X181367237Y-84925972D01*
X181317412Y-84783580D01*
X181260340Y-84620476D01*
X181260337Y-84620470D01*
X181260335Y-84620464D01*
X181119899Y-84328847D01*
X180947696Y-84054786D01*
X180745890Y-83801730D01*
X180517020Y-83572860D01*
X180491736Y-83552697D01*
X180263964Y-83371054D01*
X179989903Y-83198851D01*
X179989902Y-83198850D01*
X179989898Y-83198848D01*
X179725818Y-83071674D01*
X179698286Y-83058415D01*
X179698282Y-83058413D01*
X179698273Y-83058409D01*
X179392785Y-82951515D01*
X179392773Y-82951511D01*
X179077225Y-82879489D01*
X178906716Y-82860278D01*
X178755586Y-82843250D01*
X178431914Y-82843250D01*
X178280819Y-82860274D01*
X178110274Y-82879489D01*
X177794726Y-82951511D01*
X177794714Y-82951515D01*
X177489226Y-83058409D01*
X177489216Y-83058414D01*
X177197601Y-83198848D01*
X176923535Y-83371054D01*
X176670480Y-83572859D01*
X176441609Y-83801730D01*
X176239804Y-84054785D01*
X176067598Y-84328851D01*
X175927164Y-84620466D01*
X175927159Y-84620476D01*
X175820265Y-84925964D01*
X175820261Y-84925976D01*
X175748239Y-85241524D01*
X175730788Y-85396413D01*
X175712000Y-85563164D01*
X172391062Y-85563164D01*
X172460130Y-85396420D01*
X172500500Y-85193465D01*
X172500500Y-84986535D01*
X172460130Y-84783580D01*
X172380941Y-84592402D01*
X172265977Y-84420345D01*
X172119655Y-84274023D01*
X172076106Y-84244925D01*
X171947598Y-84159059D01*
X171756420Y-84079870D01*
X171756413Y-84079868D01*
X171603516Y-84049455D01*
X171553465Y-84039500D01*
X171346535Y-84039500D01*
X171306385Y-84047486D01*
X171143586Y-84079868D01*
X171143579Y-84079870D01*
X170992164Y-84142589D01*
X170935526Y-84142589D01*
X170911519Y-84126548D01*
X167011797Y-80226826D01*
X166990123Y-80174500D01*
X167011797Y-80122174D01*
X167064123Y-80100500D01*
X191277800Y-80100500D01*
X191277800Y-80100499D01*
X191354225Y-80080021D01*
X191422747Y-80040460D01*
X191478696Y-79984511D01*
X194941033Y-76522174D01*
X194993359Y-76500500D01*
X196362034Y-76500500D01*
X196414360Y-76522174D01*
X196492686Y-76600500D01*
X196606814Y-76666392D01*
X196734105Y-76700499D01*
X196734106Y-76700500D01*
X196734108Y-76700500D01*
X196865894Y-76700500D01*
X196865894Y-76700499D01*
X196993186Y-76666392D01*
X197107314Y-76600500D01*
X197200500Y-76507314D01*
X197266392Y-76393186D01*
X197300499Y-76265894D01*
X197300500Y-76265894D01*
X197300500Y-76134106D01*
X197294040Y-76109999D01*
X197289686Y-76093751D01*
X208200000Y-76093751D01*
X208200000Y-76306248D01*
X208233241Y-76516123D01*
X208233244Y-76516136D01*
X208298904Y-76718217D01*
X208298906Y-76718221D01*
X208395375Y-76907550D01*
X208395378Y-76907556D01*
X208434728Y-76961716D01*
X209067037Y-76329407D01*
X209084075Y-76392993D01*
X209149901Y-76507007D01*
X209242993Y-76600099D01*
X209357007Y-76665925D01*
X209420590Y-76682962D01*
X208788282Y-77315270D01*
X208842449Y-77354624D01*
X209031778Y-77451093D01*
X209031782Y-77451095D01*
X209233863Y-77516755D01*
X209233876Y-77516758D01*
X209443751Y-77550000D01*
X209656249Y-77550000D01*
X209866123Y-77516758D01*
X209866136Y-77516755D01*
X210068217Y-77451095D01*
X210068221Y-77451093D01*
X210257554Y-77354623D01*
X210257561Y-77354618D01*
X210311716Y-77315270D01*
X210311717Y-77315270D01*
X209679409Y-76682962D01*
X209742993Y-76665925D01*
X209857007Y-76600099D01*
X209950099Y-76507007D01*
X210015925Y-76392993D01*
X210032962Y-76329409D01*
X210665270Y-76961717D01*
X210665270Y-76961716D01*
X210704618Y-76907561D01*
X210704623Y-76907554D01*
X210801093Y-76718221D01*
X210801095Y-76718217D01*
X210866755Y-76516136D01*
X210866758Y-76516123D01*
X210900000Y-76306248D01*
X210900000Y-76093751D01*
X227250000Y-76093751D01*
X227250000Y-76306248D01*
X227283241Y-76516123D01*
X227283244Y-76516136D01*
X227348904Y-76718217D01*
X227348906Y-76718221D01*
X227445375Y-76907550D01*
X227445378Y-76907556D01*
X227484728Y-76961716D01*
X228117037Y-76329407D01*
X228134075Y-76392993D01*
X228199901Y-76507007D01*
X228292993Y-76600099D01*
X228407007Y-76665925D01*
X228470590Y-76682962D01*
X227838282Y-77315270D01*
X227892449Y-77354624D01*
X228081778Y-77451093D01*
X228081782Y-77451095D01*
X228283863Y-77516755D01*
X228283876Y-77516758D01*
X228493751Y-77550000D01*
X228706249Y-77550000D01*
X228916123Y-77516758D01*
X228916136Y-77516755D01*
X229118217Y-77451095D01*
X229118221Y-77451093D01*
X229307554Y-77354623D01*
X229307561Y-77354618D01*
X229361716Y-77315270D01*
X229361717Y-77315270D01*
X228729409Y-76682962D01*
X228792993Y-76665925D01*
X228907007Y-76600099D01*
X229000099Y-76507007D01*
X229065925Y-76392993D01*
X229082962Y-76329409D01*
X229715270Y-76961717D01*
X229715270Y-76961716D01*
X229754618Y-76907561D01*
X229754623Y-76907554D01*
X229851093Y-76718221D01*
X229851095Y-76718217D01*
X229916755Y-76516136D01*
X229916758Y-76516123D01*
X229950000Y-76306248D01*
X229950000Y-76093751D01*
X229916758Y-75883876D01*
X229916755Y-75883863D01*
X229851095Y-75681782D01*
X229851093Y-75681778D01*
X229754624Y-75492449D01*
X229754625Y-75492449D01*
X229715269Y-75438282D01*
X229082962Y-76070590D01*
X229065925Y-76007007D01*
X229000099Y-75892993D01*
X228907007Y-75799901D01*
X228792993Y-75734075D01*
X228729407Y-75717037D01*
X229361716Y-75084728D01*
X229307556Y-75045378D01*
X229307550Y-75045375D01*
X229118221Y-74948906D01*
X229118217Y-74948904D01*
X228916136Y-74883244D01*
X228916123Y-74883241D01*
X228706249Y-74850000D01*
X228493751Y-74850000D01*
X228283876Y-74883241D01*
X228283863Y-74883244D01*
X228081785Y-74948903D01*
X227892450Y-75045374D01*
X227838282Y-75084729D01*
X228470590Y-75717037D01*
X228407007Y-75734075D01*
X228292993Y-75799901D01*
X228199901Y-75892993D01*
X228134075Y-76007007D01*
X228117037Y-76070590D01*
X227484729Y-75438282D01*
X227445374Y-75492450D01*
X227348903Y-75681785D01*
X227283244Y-75883863D01*
X227283241Y-75883876D01*
X227250000Y-76093751D01*
X210900000Y-76093751D01*
X210866758Y-75883876D01*
X210866755Y-75883863D01*
X210801095Y-75681782D01*
X210801093Y-75681778D01*
X210704624Y-75492449D01*
X210704625Y-75492449D01*
X210665269Y-75438282D01*
X210032962Y-76070590D01*
X210015925Y-76007007D01*
X209950099Y-75892993D01*
X209857007Y-75799901D01*
X209742993Y-75734075D01*
X209679407Y-75717037D01*
X210311716Y-75084728D01*
X210257556Y-75045378D01*
X210257550Y-75045375D01*
X210068221Y-74948906D01*
X210068217Y-74948904D01*
X209866136Y-74883244D01*
X209866123Y-74883241D01*
X209656249Y-74850000D01*
X209443751Y-74850000D01*
X209233876Y-74883241D01*
X209233863Y-74883244D01*
X209031785Y-74948903D01*
X208842450Y-75045374D01*
X208788282Y-75084729D01*
X209420590Y-75717037D01*
X209357007Y-75734075D01*
X209242993Y-75799901D01*
X209149901Y-75892993D01*
X209084075Y-76007007D01*
X209067037Y-76070590D01*
X208434729Y-75438282D01*
X208395374Y-75492450D01*
X208298903Y-75681785D01*
X208233244Y-75883863D01*
X208233241Y-75883876D01*
X208200000Y-76093751D01*
X197289686Y-76093751D01*
X197266392Y-76006814D01*
X197200500Y-75892686D01*
X197107314Y-75799500D01*
X197007756Y-75742020D01*
X196993190Y-75733610D01*
X196993181Y-75733606D01*
X196865894Y-75699500D01*
X196865892Y-75699500D01*
X196734108Y-75699500D01*
X196734106Y-75699500D01*
X196606818Y-75733606D01*
X196606809Y-75733610D01*
X196492685Y-75799500D01*
X196414360Y-75877826D01*
X196362034Y-75899500D01*
X194798672Y-75899500D01*
X194722250Y-75919977D01*
X194722245Y-75919979D01*
X194669414Y-75950482D01*
X194653724Y-75959540D01*
X191135439Y-79477826D01*
X191083113Y-79499500D01*
X167163653Y-79499500D01*
X167111327Y-79477826D01*
X165326439Y-77692938D01*
X165304765Y-77640612D01*
X165304765Y-77529841D01*
X165304764Y-77529840D01*
X165296902Y-77500500D01*
X165270657Y-77402549D01*
X165204765Y-77288421D01*
X165111579Y-77195235D01*
X165049567Y-77159432D01*
X164997455Y-77129345D01*
X164997446Y-77129341D01*
X164870159Y-77095235D01*
X164870157Y-77095235D01*
X164738373Y-77095235D01*
X164738371Y-77095235D01*
X164611083Y-77129341D01*
X164611074Y-77129345D01*
X164496950Y-77195235D01*
X164403765Y-77288420D01*
X164337871Y-77402550D01*
X164336216Y-77406548D01*
X164296167Y-77446595D01*
X164239529Y-77446593D01*
X164215524Y-77430553D01*
X162878722Y-76093751D01*
X189150000Y-76093751D01*
X189150000Y-76306248D01*
X189183241Y-76516123D01*
X189183244Y-76516136D01*
X189248904Y-76718217D01*
X189248906Y-76718221D01*
X189345375Y-76907550D01*
X189345378Y-76907556D01*
X189384728Y-76961716D01*
X190017037Y-76329407D01*
X190034075Y-76392993D01*
X190099901Y-76507007D01*
X190192993Y-76600099D01*
X190307007Y-76665925D01*
X190370590Y-76682962D01*
X189738282Y-77315270D01*
X189792449Y-77354624D01*
X189981778Y-77451093D01*
X189981782Y-77451095D01*
X190183863Y-77516755D01*
X190183876Y-77516758D01*
X190393751Y-77550000D01*
X190606249Y-77550000D01*
X190816123Y-77516758D01*
X190816136Y-77516755D01*
X191018217Y-77451095D01*
X191018221Y-77451093D01*
X191207554Y-77354623D01*
X191207561Y-77354618D01*
X191261716Y-77315270D01*
X191261717Y-77315270D01*
X190629409Y-76682962D01*
X190692993Y-76665925D01*
X190807007Y-76600099D01*
X190900099Y-76507007D01*
X190965925Y-76392993D01*
X190982962Y-76329409D01*
X191615270Y-76961717D01*
X191615270Y-76961716D01*
X191654618Y-76907561D01*
X191654623Y-76907554D01*
X191751093Y-76718221D01*
X191751095Y-76718217D01*
X191816755Y-76516136D01*
X191816758Y-76516123D01*
X191850000Y-76306248D01*
X191850000Y-76093751D01*
X191816758Y-75883876D01*
X191816755Y-75883863D01*
X191751095Y-75681782D01*
X191751093Y-75681778D01*
X191654624Y-75492449D01*
X191654625Y-75492449D01*
X191615269Y-75438282D01*
X190982962Y-76070590D01*
X190965925Y-76007007D01*
X190900099Y-75892993D01*
X190807007Y-75799901D01*
X190692993Y-75734075D01*
X190629407Y-75717037D01*
X191261716Y-75084728D01*
X191207556Y-75045378D01*
X191207550Y-75045375D01*
X191018221Y-74948906D01*
X191018217Y-74948904D01*
X190816136Y-74883244D01*
X190816123Y-74883241D01*
X190606249Y-74850000D01*
X190393751Y-74850000D01*
X190183876Y-74883241D01*
X190183863Y-74883244D01*
X189981785Y-74948903D01*
X189792450Y-75045374D01*
X189738282Y-75084729D01*
X190370590Y-75717037D01*
X190307007Y-75734075D01*
X190192993Y-75799901D01*
X190099901Y-75892993D01*
X190034075Y-76007007D01*
X190017037Y-76070590D01*
X189384729Y-75438282D01*
X189345374Y-75492450D01*
X189248903Y-75681785D01*
X189183244Y-75883863D01*
X189183241Y-75883876D01*
X189150000Y-76093751D01*
X162878722Y-76093751D01*
X160989746Y-74204775D01*
X160968072Y-74152449D01*
X160989746Y-74100123D01*
X161042072Y-74078449D01*
X161061223Y-74080970D01*
X161134105Y-74100499D01*
X161134106Y-74100500D01*
X161134108Y-74100500D01*
X161265894Y-74100500D01*
X161265894Y-74100499D01*
X161393186Y-74066392D01*
X161507314Y-74000500D01*
X161585640Y-73922174D01*
X161637966Y-73900500D01*
X227785910Y-73900500D01*
X227785910Y-73900499D01*
X227862335Y-73880021D01*
X227930857Y-73840460D01*
X227986806Y-73784511D01*
X229990460Y-71780857D01*
X230030022Y-71712334D01*
X230050500Y-71635908D01*
X230050500Y-71556784D01*
X230050500Y-67110438D01*
X230046561Y-67095734D01*
X230045158Y-67090499D01*
X230045158Y-67090498D01*
X230030023Y-67034015D01*
X230030021Y-67034010D01*
X229990462Y-66965492D01*
X229990461Y-66965491D01*
X229990460Y-66965489D01*
X229575167Y-66550196D01*
X229553493Y-66497870D01*
X229559126Y-66469551D01*
X229567920Y-66448321D01*
X229610130Y-66346420D01*
X229650500Y-66143465D01*
X229650500Y-65936535D01*
X229610130Y-65733580D01*
X229530941Y-65542402D01*
X229415977Y-65370345D01*
X229269655Y-65224023D01*
X229233700Y-65199999D01*
X229097598Y-65109059D01*
X228906420Y-65029870D01*
X228906413Y-65029868D01*
X228753516Y-64999455D01*
X228703465Y-64989500D01*
X228496535Y-64989500D01*
X228456385Y-64997486D01*
X228293586Y-65029868D01*
X228293579Y-65029870D01*
X228102401Y-65109059D01*
X227930345Y-65224022D01*
X227930344Y-65224024D01*
X227784024Y-65370344D01*
X227784022Y-65370345D01*
X227669059Y-65542401D01*
X227589870Y-65733579D01*
X227589868Y-65733586D01*
X227549500Y-65936535D01*
X227549500Y-66143464D01*
X227589868Y-66346413D01*
X227589870Y-66346420D01*
X227669059Y-66537598D01*
X227779144Y-66702354D01*
X227784023Y-66709655D01*
X227930345Y-66855977D01*
X228102402Y-66970941D01*
X228293580Y-67050130D01*
X228496535Y-67090500D01*
X228496536Y-67090500D01*
X228703464Y-67090500D01*
X228703465Y-67090500D01*
X228906420Y-67050130D01*
X229086121Y-66975695D01*
X229142757Y-66975695D01*
X229166765Y-66991736D01*
X229427826Y-67252797D01*
X229449500Y-67305123D01*
X229449500Y-70305216D01*
X229427826Y-70357542D01*
X229375500Y-70379216D01*
X229323174Y-70357542D01*
X229269654Y-70304022D01*
X229097598Y-70189059D01*
X228906420Y-70109870D01*
X228906413Y-70109868D01*
X228753516Y-70079455D01*
X228703465Y-70069500D01*
X228496535Y-70069500D01*
X228456385Y-70077486D01*
X228293586Y-70109868D01*
X228293579Y-70109870D01*
X228102401Y-70189059D01*
X227930345Y-70304022D01*
X227930344Y-70304024D01*
X227784024Y-70450344D01*
X227784022Y-70450345D01*
X227669059Y-70622401D01*
X227589870Y-70813579D01*
X227589868Y-70813586D01*
X227549500Y-71016535D01*
X227549500Y-71223464D01*
X227589868Y-71426413D01*
X227589871Y-71426424D01*
X227652588Y-71577836D01*
X227652588Y-71634473D01*
X227636547Y-71658480D01*
X226694675Y-72600354D01*
X226642349Y-72622028D01*
X208651595Y-72622028D01*
X208599269Y-72600354D01*
X208577595Y-72548028D01*
X208599269Y-72495702D01*
X208690244Y-72404727D01*
X209011519Y-72083450D01*
X209063844Y-72061777D01*
X209092160Y-72067409D01*
X209243580Y-72130130D01*
X209446535Y-72170500D01*
X209446536Y-72170500D01*
X209653464Y-72170500D01*
X209653465Y-72170500D01*
X209856420Y-72130130D01*
X210047598Y-72050941D01*
X210219655Y-71935977D01*
X210365977Y-71789655D01*
X210480941Y-71617598D01*
X210560130Y-71426420D01*
X210600500Y-71223465D01*
X210600500Y-71016535D01*
X210560130Y-70813580D01*
X210480941Y-70622402D01*
X210365977Y-70450345D01*
X210219655Y-70304023D01*
X210208119Y-70296315D01*
X210047598Y-70189059D01*
X209856420Y-70109870D01*
X209856413Y-70109868D01*
X209703516Y-70079455D01*
X209653465Y-70069500D01*
X209446535Y-70069500D01*
X209406385Y-70077486D01*
X209243586Y-70109868D01*
X209243579Y-70109870D01*
X209052401Y-70189059D01*
X208880345Y-70304022D01*
X208880344Y-70304024D01*
X208734024Y-70450344D01*
X208734022Y-70450345D01*
X208619059Y-70622401D01*
X208539870Y-70813579D01*
X208539868Y-70813586D01*
X208499500Y-71016535D01*
X208499500Y-71223464D01*
X208539868Y-71426413D01*
X208539871Y-71426424D01*
X208602588Y-71577836D01*
X208602588Y-71634473D01*
X208586547Y-71658480D01*
X208044675Y-72200354D01*
X207992349Y-72222028D01*
X203971595Y-72222028D01*
X203919269Y-72200354D01*
X203897595Y-72148028D01*
X203919269Y-72095702D01*
X205546841Y-70468130D01*
X207120556Y-68894414D01*
X216193250Y-68894414D01*
X216193250Y-68933243D01*
X216193250Y-69218086D01*
X216205955Y-69330846D01*
X216229489Y-69539725D01*
X216301511Y-69855273D01*
X216301515Y-69855285D01*
X216408409Y-70160773D01*
X216408413Y-70160782D01*
X216408415Y-70160786D01*
X216455042Y-70257607D01*
X216548848Y-70452398D01*
X216548850Y-70452402D01*
X216548851Y-70452403D01*
X216579082Y-70500516D01*
X216721054Y-70726464D01*
X216897463Y-70947674D01*
X216922860Y-70979520D01*
X217151730Y-71208390D01*
X217404786Y-71410196D01*
X217678847Y-71582399D01*
X217970464Y-71722835D01*
X217970470Y-71722837D01*
X217970476Y-71722840D01*
X218214763Y-71808319D01*
X218275972Y-71829737D01*
X218275975Y-71829737D01*
X218275976Y-71829738D01*
X218433272Y-71865640D01*
X218591528Y-71901761D01*
X218913164Y-71938000D01*
X218913168Y-71938000D01*
X219236832Y-71938000D01*
X219236836Y-71938000D01*
X219558472Y-71901761D01*
X219874028Y-71829737D01*
X220041950Y-71770978D01*
X220179523Y-71722840D01*
X220179526Y-71722838D01*
X220179536Y-71722835D01*
X220471153Y-71582399D01*
X220745214Y-71410196D01*
X220998270Y-71208390D01*
X221227140Y-70979520D01*
X221428946Y-70726464D01*
X221601149Y-70452403D01*
X221741585Y-70160786D01*
X221743069Y-70156547D01*
X221817267Y-69944500D01*
X221848487Y-69855278D01*
X221920511Y-69539722D01*
X221956750Y-69218086D01*
X221956750Y-68894414D01*
X221920511Y-68572778D01*
X221848487Y-68257222D01*
X221804936Y-68132760D01*
X221741590Y-67951726D01*
X221741587Y-67951720D01*
X221741585Y-67951714D01*
X221601149Y-67660097D01*
X221428946Y-67386036D01*
X221227140Y-67132980D01*
X220998270Y-66904110D01*
X220968063Y-66880021D01*
X220745214Y-66702304D01*
X220548148Y-66578480D01*
X220471153Y-66530101D01*
X220471152Y-66530100D01*
X220471148Y-66530098D01*
X220273060Y-66434704D01*
X220179536Y-66389665D01*
X220179532Y-66389663D01*
X220179523Y-66389659D01*
X219874035Y-66282765D01*
X219874023Y-66282761D01*
X219558475Y-66210739D01*
X219420628Y-66195208D01*
X219236836Y-66174500D01*
X218913164Y-66174500D01*
X218762069Y-66191524D01*
X218591524Y-66210739D01*
X218275976Y-66282761D01*
X218275964Y-66282765D01*
X217970476Y-66389659D01*
X217970466Y-66389664D01*
X217678851Y-66530098D01*
X217404785Y-66702304D01*
X217151730Y-66904109D01*
X216922859Y-67132980D01*
X216721054Y-67386035D01*
X216548848Y-67660101D01*
X216408414Y-67951716D01*
X216408409Y-67951726D01*
X216301515Y-68257214D01*
X216301511Y-68257226D01*
X216229489Y-68572774D01*
X216212904Y-68719977D01*
X216193250Y-68894414D01*
X207120556Y-68894414D01*
X209011519Y-67003450D01*
X209063844Y-66981777D01*
X209092160Y-66987409D01*
X209243580Y-67050130D01*
X209446535Y-67090500D01*
X209446536Y-67090500D01*
X209653464Y-67090500D01*
X209653465Y-67090500D01*
X209856420Y-67050130D01*
X210047598Y-66970941D01*
X210219655Y-66855977D01*
X210365977Y-66709655D01*
X210480941Y-66537598D01*
X210560130Y-66346420D01*
X210600500Y-66143465D01*
X210600500Y-65936535D01*
X210560130Y-65733580D01*
X210480941Y-65542402D01*
X210365977Y-65370345D01*
X210219655Y-65224023D01*
X210183700Y-65199999D01*
X210047598Y-65109059D01*
X209856420Y-65029870D01*
X209856413Y-65029868D01*
X209703516Y-64999455D01*
X209653465Y-64989500D01*
X209446535Y-64989500D01*
X209406385Y-64997486D01*
X209243586Y-65029868D01*
X209243579Y-65029870D01*
X209052401Y-65109059D01*
X208880345Y-65224022D01*
X208880344Y-65224024D01*
X208734024Y-65370344D01*
X208734022Y-65370345D01*
X208619059Y-65542401D01*
X208539870Y-65733579D01*
X208539868Y-65733586D01*
X208499500Y-65936535D01*
X208499500Y-66143464D01*
X208539868Y-66346413D01*
X208539871Y-66346424D01*
X208602588Y-66497836D01*
X208602588Y-66554473D01*
X208586547Y-66578480D01*
X203564675Y-71600354D01*
X203512349Y-71622028D01*
X199237966Y-71622028D01*
X199185640Y-71600354D01*
X199107314Y-71522028D01*
X198993190Y-71456138D01*
X198993181Y-71456134D01*
X198865894Y-71422028D01*
X198865892Y-71422028D01*
X198734108Y-71422028D01*
X198734106Y-71422028D01*
X198606818Y-71456134D01*
X198606809Y-71456138D01*
X198492685Y-71522028D01*
X198399500Y-71615213D01*
X198333610Y-71729337D01*
X198333606Y-71729346D01*
X198299500Y-71856633D01*
X198299500Y-71856636D01*
X198299500Y-71988420D01*
X198324964Y-72083452D01*
X198333609Y-72115717D01*
X198335263Y-72119709D01*
X198335263Y-72176346D01*
X198295215Y-72216395D01*
X198266896Y-72222028D01*
X190956581Y-72222028D01*
X190904255Y-72200354D01*
X190882581Y-72148028D01*
X190904255Y-72095702D01*
X190928262Y-72079661D01*
X190997598Y-72050941D01*
X191169655Y-71935977D01*
X191315977Y-71789655D01*
X191430941Y-71617598D01*
X191510130Y-71426420D01*
X191550500Y-71223465D01*
X191550500Y-71016535D01*
X191510130Y-70813580D01*
X191430941Y-70622402D01*
X191315977Y-70450345D01*
X191169655Y-70304023D01*
X191158119Y-70296315D01*
X190997598Y-70189059D01*
X190806420Y-70109870D01*
X190806413Y-70109868D01*
X190653516Y-70079455D01*
X190603465Y-70069500D01*
X190396535Y-70069500D01*
X190356385Y-70077486D01*
X190193586Y-70109868D01*
X190193579Y-70109870D01*
X190042164Y-70172589D01*
X189985526Y-70172589D01*
X189961519Y-70156548D01*
X188564512Y-68759541D01*
X188564507Y-68759537D01*
X188559921Y-68756890D01*
X188559917Y-68756888D01*
X188495990Y-68719979D01*
X188495985Y-68719977D01*
X188419564Y-68699500D01*
X188419562Y-68699500D01*
X158533104Y-68699500D01*
X158480778Y-68677826D01*
X158459104Y-68625500D01*
X158464737Y-68597181D01*
X158466390Y-68593189D01*
X158466389Y-68593189D01*
X158466392Y-68593186D01*
X158500500Y-68465892D01*
X158500500Y-68355122D01*
X158522174Y-68302796D01*
X160462797Y-66362174D01*
X160515123Y-66340500D01*
X189437973Y-66340500D01*
X189490299Y-66362174D01*
X189506339Y-66386179D01*
X189526437Y-66434699D01*
X189569059Y-66537598D01*
X189679144Y-66702354D01*
X189684023Y-66709655D01*
X189830345Y-66855977D01*
X190002402Y-66970941D01*
X190193580Y-67050130D01*
X190396535Y-67090500D01*
X190396536Y-67090500D01*
X190603464Y-67090500D01*
X190603465Y-67090500D01*
X190806420Y-67050130D01*
X190997598Y-66970941D01*
X191169655Y-66855977D01*
X191315977Y-66709655D01*
X191430941Y-66537598D01*
X191441062Y-66513164D01*
X197143250Y-66513164D01*
X197143250Y-66551993D01*
X197143250Y-66836836D01*
X197157746Y-66965492D01*
X197179489Y-67158475D01*
X197251511Y-67474023D01*
X197251515Y-67474035D01*
X197358409Y-67779523D01*
X197358413Y-67779532D01*
X197358415Y-67779536D01*
X197401972Y-67869982D01*
X197498848Y-68071148D01*
X197498850Y-68071152D01*
X197498851Y-68071153D01*
X197593315Y-68221492D01*
X197671054Y-68345214D01*
X197871991Y-68597181D01*
X197872860Y-68598270D01*
X198101730Y-68827140D01*
X198354786Y-69028946D01*
X198628847Y-69201149D01*
X198920464Y-69341585D01*
X198920470Y-69341587D01*
X198920476Y-69341590D01*
X199153609Y-69423166D01*
X199225972Y-69448487D01*
X199225975Y-69448487D01*
X199225976Y-69448488D01*
X199301124Y-69465640D01*
X199541528Y-69520511D01*
X199863164Y-69556750D01*
X199863168Y-69556750D01*
X200186832Y-69556750D01*
X200186836Y-69556750D01*
X200508472Y-69520511D01*
X200824028Y-69448487D01*
X200991950Y-69389728D01*
X201129523Y-69341590D01*
X201129526Y-69341588D01*
X201129536Y-69341585D01*
X201421153Y-69201149D01*
X201695214Y-69028946D01*
X201948270Y-68827140D01*
X202177140Y-68598270D01*
X202378946Y-68345214D01*
X202551149Y-68071153D01*
X202691585Y-67779536D01*
X202700128Y-67755123D01*
X202783804Y-67515989D01*
X202798487Y-67474028D01*
X202870511Y-67158472D01*
X202906750Y-66836836D01*
X202906750Y-66513164D01*
X202870511Y-66191528D01*
X202798487Y-65875972D01*
X202770413Y-65795740D01*
X202691590Y-65570476D01*
X202691587Y-65570470D01*
X202691585Y-65570464D01*
X202551149Y-65278847D01*
X202378946Y-65004786D01*
X202177140Y-64751730D01*
X201948270Y-64522860D01*
X201919574Y-64499976D01*
X201695214Y-64321054D01*
X201421148Y-64148848D01*
X201229086Y-64056356D01*
X201129536Y-64008415D01*
X201129532Y-64008413D01*
X201129523Y-64008409D01*
X200824035Y-63901515D01*
X200824023Y-63901511D01*
X200508475Y-63829489D01*
X200370628Y-63813958D01*
X200186836Y-63793250D01*
X199863164Y-63793250D01*
X199702346Y-63811369D01*
X199541524Y-63829489D01*
X199225976Y-63901511D01*
X199225964Y-63901515D01*
X198920476Y-64008409D01*
X198920466Y-64008414D01*
X198628851Y-64148848D01*
X198354785Y-64321054D01*
X198101730Y-64522859D01*
X197872859Y-64751730D01*
X197671054Y-65004785D01*
X197498848Y-65278851D01*
X197358414Y-65570466D01*
X197358409Y-65570476D01*
X197251515Y-65875964D01*
X197251511Y-65875976D01*
X197179489Y-66191524D01*
X197162038Y-66346413D01*
X197143250Y-66513164D01*
X191441062Y-66513164D01*
X191510130Y-66346420D01*
X191550500Y-66143465D01*
X191550500Y-65936535D01*
X191510130Y-65733580D01*
X191430941Y-65542402D01*
X191315977Y-65370345D01*
X191169655Y-65224023D01*
X191133700Y-65199999D01*
X190997598Y-65109059D01*
X190806420Y-65029870D01*
X190806413Y-65029868D01*
X190653516Y-64999455D01*
X190603465Y-64989500D01*
X190396535Y-64989500D01*
X190356385Y-64997486D01*
X190193586Y-65029868D01*
X190193579Y-65029870D01*
X190002401Y-65109059D01*
X189830345Y-65224022D01*
X189830344Y-65224024D01*
X189684024Y-65370344D01*
X189684022Y-65370345D01*
X189569059Y-65542401D01*
X189506340Y-65693819D01*
X189466292Y-65733867D01*
X189437973Y-65739500D01*
X160320436Y-65739500D01*
X160244011Y-65759978D01*
X160182083Y-65795731D01*
X160182084Y-65795732D01*
X160175492Y-65799538D01*
X160175490Y-65799539D01*
X158097202Y-67877826D01*
X158044876Y-67899500D01*
X157934106Y-67899500D01*
X157806818Y-67933606D01*
X157806809Y-67933610D01*
X157692685Y-67999500D01*
X157599500Y-68092685D01*
X157533610Y-68206809D01*
X157533606Y-68206818D01*
X157499500Y-68334105D01*
X157499500Y-68334108D01*
X157499500Y-68465892D01*
X157522498Y-68551723D01*
X157533609Y-68593189D01*
X157535263Y-68597181D01*
X157535263Y-68653818D01*
X157495215Y-68693867D01*
X157466896Y-68699500D01*
X140005874Y-68699500D01*
X139953548Y-68677826D01*
X139945255Y-68667942D01*
X139943643Y-68665640D01*
X139930329Y-68652326D01*
X139908655Y-68600000D01*
X139930329Y-68547674D01*
X139943644Y-68534359D01*
X139994019Y-68426330D01*
X140000500Y-68377103D01*
X140000499Y-68022898D01*
X139994019Y-67973670D01*
X139943644Y-67865641D01*
X139930329Y-67852326D01*
X139908655Y-67800000D01*
X139930329Y-67747674D01*
X139943644Y-67734359D01*
X139994019Y-67626330D01*
X140000500Y-67577103D01*
X140000499Y-67222898D01*
X139994019Y-67173670D01*
X139943644Y-67065641D01*
X139930329Y-67052326D01*
X139908655Y-67000000D01*
X139930329Y-66947674D01*
X139943644Y-66934359D01*
X139943645Y-66934354D01*
X139945255Y-66932058D01*
X139947156Y-66930846D01*
X139948222Y-66929781D01*
X139948458Y-66930017D01*
X139993021Y-66901625D01*
X140005874Y-66900500D01*
X150377064Y-66900500D01*
X150377064Y-66900499D01*
X150453489Y-66880021D01*
X150522011Y-66840460D01*
X150577960Y-66784511D01*
X152264471Y-65097998D01*
X152316796Y-65076325D01*
X152341237Y-65080478D01*
X152390294Y-65097644D01*
X152390298Y-65097645D01*
X152390301Y-65097646D01*
X152420734Y-65100500D01*
X152420741Y-65100500D01*
X153054258Y-65100500D01*
X153054266Y-65100500D01*
X153084699Y-65097646D01*
X153212882Y-65052793D01*
X153322150Y-64972150D01*
X153324386Y-64969121D01*
X153379782Y-64894061D01*
X153402793Y-64862882D01*
X153422279Y-64807193D01*
X153460018Y-64764964D01*
X153516566Y-64761787D01*
X153558797Y-64799527D01*
X153562370Y-64808358D01*
X153615642Y-64969121D01*
X153707683Y-65118343D01*
X153707686Y-65118347D01*
X153831653Y-65242314D01*
X153831656Y-65242316D01*
X153980878Y-65334357D01*
X154147302Y-65389505D01*
X154250025Y-65399999D01*
X154312499Y-65399999D01*
X154812500Y-65399999D01*
X154874971Y-65399999D01*
X154874976Y-65399998D01*
X154977696Y-65389505D01*
X155144121Y-65334357D01*
X155293343Y-65242316D01*
X155293347Y-65242314D01*
X155417314Y-65118347D01*
X155417316Y-65118343D01*
X155509357Y-64969121D01*
X155564505Y-64802697D01*
X155574999Y-64699975D01*
X155575000Y-64699973D01*
X155575000Y-64450000D01*
X154812500Y-64450000D01*
X154812500Y-65399999D01*
X154312499Y-65399999D01*
X154312500Y-65399998D01*
X154312500Y-63950000D01*
X154812500Y-63950000D01*
X155574999Y-63950000D01*
X155574999Y-63700029D01*
X155574998Y-63700023D01*
X155564505Y-63597303D01*
X155509357Y-63430878D01*
X155417316Y-63281656D01*
X155417314Y-63281653D01*
X155293347Y-63157686D01*
X155293343Y-63157683D01*
X155144121Y-63065642D01*
X154977697Y-63010494D01*
X154874975Y-63000000D01*
X154812500Y-63000000D01*
X154812500Y-63950000D01*
X154312500Y-63950000D01*
X154312500Y-63000000D01*
X154250028Y-63000000D01*
X154250022Y-63000001D01*
X154147303Y-63010494D01*
X153980878Y-63065642D01*
X153831656Y-63157683D01*
X153707683Y-63281656D01*
X153615642Y-63430878D01*
X153562370Y-63591641D01*
X153525337Y-63634493D01*
X153468849Y-63638608D01*
X153425997Y-63601575D01*
X153422279Y-63592804D01*
X153402794Y-63537119D01*
X153402792Y-63537116D01*
X153322153Y-63427853D01*
X153322146Y-63427846D01*
X153212883Y-63347207D01*
X153212881Y-63347206D01*
X153084704Y-63302355D01*
X153084705Y-63302355D01*
X153084700Y-63302354D01*
X153084699Y-63302354D01*
X153054266Y-63299500D01*
X152420734Y-63299500D01*
X152390301Y-63302354D01*
X152390299Y-63302354D01*
X152390295Y-63302355D01*
X152262118Y-63347206D01*
X152262116Y-63347207D01*
X152152853Y-63427846D01*
X152152846Y-63427853D01*
X152072207Y-63537116D01*
X152072206Y-63537118D01*
X152027355Y-63665295D01*
X152027354Y-63665299D01*
X152027354Y-63665301D01*
X152024500Y-63695734D01*
X152024500Y-63695740D01*
X152024500Y-64457377D01*
X152002826Y-64509703D01*
X150234703Y-66277826D01*
X150182377Y-66299500D01*
X140005874Y-66299500D01*
X139953548Y-66277826D01*
X139945255Y-66267942D01*
X139943643Y-66265640D01*
X139859359Y-66181356D01*
X139844656Y-66174500D01*
X139751330Y-66130981D01*
X139751328Y-66130980D01*
X139711529Y-66125741D01*
X139702103Y-66124500D01*
X139702101Y-66124500D01*
X138422898Y-66124500D01*
X138373671Y-66130980D01*
X138373669Y-66130981D01*
X138265640Y-66181356D01*
X138181356Y-66265640D01*
X138130980Y-66373671D01*
X138124500Y-66422898D01*
X138124500Y-66777101D01*
X138130980Y-66826328D01*
X138130981Y-66826330D01*
X138181356Y-66934359D01*
X138194671Y-66947674D01*
X138216345Y-67000000D01*
X138194671Y-67052326D01*
X138181356Y-67065640D01*
X138130980Y-67173671D01*
X138124500Y-67222898D01*
X138124500Y-67577101D01*
X138130980Y-67626328D01*
X138130981Y-67626330D01*
X138181356Y-67734359D01*
X138194671Y-67747674D01*
X138216345Y-67800000D01*
X138194671Y-67852326D01*
X138181356Y-67865640D01*
X138130980Y-67973671D01*
X138124500Y-68022898D01*
X138124500Y-68377101D01*
X138130980Y-68426328D01*
X138130981Y-68426330D01*
X138181356Y-68534359D01*
X138194671Y-68547674D01*
X138216345Y-68600000D01*
X138194671Y-68652326D01*
X138181356Y-68665640D01*
X138130980Y-68773671D01*
X138124500Y-68822898D01*
X138124500Y-69177101D01*
X138130980Y-69226328D01*
X138130981Y-69226330D01*
X138181356Y-69334359D01*
X138194671Y-69347674D01*
X138216345Y-69400000D01*
X138194671Y-69452326D01*
X138181356Y-69465640D01*
X138130980Y-69573671D01*
X138124500Y-69622898D01*
X138124500Y-69977101D01*
X138130980Y-70026328D01*
X138130981Y-70026330D01*
X138181356Y-70134359D01*
X138194671Y-70147674D01*
X138216345Y-70200000D01*
X138194671Y-70252326D01*
X138181356Y-70265640D01*
X138130980Y-70373671D01*
X138124500Y-70422898D01*
X138124500Y-70777101D01*
X138130980Y-70826328D01*
X138130981Y-70826330D01*
X138181356Y-70934359D01*
X138194671Y-70947674D01*
X138216345Y-71000000D01*
X138194671Y-71052326D01*
X138181356Y-71065640D01*
X138130980Y-71173671D01*
X138124500Y-71222898D01*
X138124500Y-71577101D01*
X138130980Y-71626328D01*
X138130981Y-71626330D01*
X138181356Y-71734359D01*
X138194671Y-71747674D01*
X138216345Y-71800000D01*
X138194671Y-71852326D01*
X138181356Y-71865640D01*
X138130980Y-71973671D01*
X138124500Y-72022898D01*
X138124500Y-72377101D01*
X138130980Y-72426328D01*
X138130981Y-72426330D01*
X138181356Y-72534359D01*
X138194671Y-72547674D01*
X138216345Y-72600000D01*
X138194671Y-72652326D01*
X138181356Y-72665640D01*
X138130980Y-72773671D01*
X138124500Y-72822898D01*
X138124500Y-72995876D01*
X138102826Y-73048202D01*
X138050500Y-73069876D01*
X137998174Y-73048202D01*
X137722174Y-72772202D01*
X137700500Y-72719876D01*
X137700500Y-65880874D01*
X137722174Y-65828548D01*
X137732058Y-65820255D01*
X137734354Y-65818645D01*
X137734359Y-65818644D01*
X137818644Y-65734359D01*
X137869019Y-65626330D01*
X137875500Y-65577103D01*
X137875499Y-64917621D01*
X137897172Y-64865297D01*
X143640297Y-59122174D01*
X143692623Y-59100500D01*
X151875500Y-59100500D01*
X151927826Y-59122174D01*
X151949500Y-59174500D01*
X151949500Y-59329266D01*
X151952354Y-59359699D01*
X151952354Y-59359701D01*
X151952355Y-59359704D01*
X151997206Y-59487881D01*
X151997207Y-59487883D01*
X152077846Y-59597146D01*
X152077853Y-59597153D01*
X152187116Y-59677792D01*
X152187118Y-59677793D01*
X152315295Y-59722644D01*
X152315301Y-59722646D01*
X152345734Y-59725500D01*
X152345741Y-59725500D01*
X152954258Y-59725500D01*
X152954266Y-59725500D01*
X152984699Y-59722646D01*
X153112882Y-59677793D01*
X153222150Y-59597150D01*
X153224386Y-59594121D01*
X153302792Y-59487883D01*
X153302793Y-59487882D01*
X153347646Y-59359699D01*
X153350500Y-59329266D01*
X153350500Y-59324976D01*
X153550001Y-59324976D01*
X153560494Y-59427696D01*
X153615642Y-59594121D01*
X153707683Y-59743343D01*
X153707686Y-59743347D01*
X153831653Y-59867314D01*
X153831656Y-59867316D01*
X153980878Y-59959357D01*
X154147302Y-60014505D01*
X154250025Y-60024999D01*
X154250026Y-60024999D01*
X154800000Y-60024999D01*
X154849971Y-60024999D01*
X154849976Y-60024998D01*
X154952696Y-60014505D01*
X155119121Y-59959357D01*
X155268343Y-59867316D01*
X155268347Y-59867314D01*
X155392314Y-59743347D01*
X155392316Y-59743343D01*
X155484357Y-59594121D01*
X155539505Y-59427697D01*
X155549999Y-59324975D01*
X155550000Y-59324973D01*
X155550000Y-59050000D01*
X154800000Y-59050000D01*
X154800000Y-60024999D01*
X154250026Y-60024999D01*
X154299999Y-60024998D01*
X154300000Y-60024998D01*
X154300000Y-59050000D01*
X153550001Y-59050000D01*
X153550001Y-59324976D01*
X153350500Y-59324976D01*
X153350500Y-58275024D01*
X153550000Y-58275024D01*
X153550000Y-58550000D01*
X154300000Y-58550000D01*
X154800000Y-58550000D01*
X155549999Y-58550000D01*
X155549999Y-58275029D01*
X155549998Y-58275023D01*
X155539505Y-58172303D01*
X155484357Y-58005878D01*
X155392316Y-57856656D01*
X155392314Y-57856653D01*
X155268347Y-57732686D01*
X155268343Y-57732683D01*
X155119121Y-57640642D01*
X154952697Y-57585494D01*
X154849975Y-57575000D01*
X154800000Y-57575000D01*
X154800000Y-58550000D01*
X154300000Y-58550000D01*
X154300000Y-57575000D01*
X154299999Y-57574999D01*
X154250028Y-57575000D01*
X154250022Y-57575001D01*
X154147303Y-57585494D01*
X153980878Y-57640642D01*
X153831656Y-57732683D01*
X153707683Y-57856656D01*
X153615642Y-58005878D01*
X153560494Y-58172302D01*
X153550000Y-58275024D01*
X153350500Y-58275024D01*
X153350500Y-58270734D01*
X153347646Y-58240301D01*
X153302793Y-58112118D01*
X153302792Y-58112116D01*
X153222153Y-58002853D01*
X153222146Y-58002846D01*
X153112883Y-57922207D01*
X153112881Y-57922206D01*
X152984704Y-57877355D01*
X152984705Y-57877355D01*
X152984700Y-57877354D01*
X152984699Y-57877354D01*
X152954266Y-57874500D01*
X152345734Y-57874500D01*
X152315301Y-57877354D01*
X152315299Y-57877354D01*
X152315295Y-57877355D01*
X152187118Y-57922206D01*
X152187116Y-57922207D01*
X152077853Y-58002846D01*
X152077846Y-58002853D01*
X151997207Y-58112116D01*
X151997206Y-58112118D01*
X151952355Y-58240295D01*
X151952354Y-58240299D01*
X151952354Y-58240301D01*
X151949500Y-58270734D01*
X151949500Y-58270740D01*
X151949500Y-58425500D01*
X151927826Y-58477826D01*
X151875500Y-58499500D01*
X143577062Y-58499500D01*
X143497938Y-58499500D01*
X143421512Y-58519978D01*
X143421511Y-58519978D01*
X143421509Y-58519979D01*
X143421507Y-58519980D01*
X143352992Y-58559537D01*
X137847592Y-64064937D01*
X137795266Y-64086611D01*
X137742940Y-64064937D01*
X137734359Y-64056356D01*
X137626330Y-64005981D01*
X137626328Y-64005980D01*
X137590063Y-64001206D01*
X137577103Y-63999500D01*
X137577101Y-63999500D01*
X137320457Y-63999500D01*
X137268131Y-63977826D01*
X137256762Y-63963170D01*
X137245225Y-63943663D01*
X137131334Y-63829772D01*
X136992695Y-63747781D01*
X136850000Y-63706324D01*
X136850000Y-66168675D01*
X136992693Y-66127219D01*
X136996109Y-66125741D01*
X137052739Y-66124850D01*
X137093413Y-66164263D01*
X137099500Y-66193654D01*
X137099500Y-72719876D01*
X137077826Y-72772202D01*
X136247201Y-73602827D01*
X136194875Y-73624501D01*
X131155123Y-73624501D01*
X131102797Y-73602827D01*
X130862470Y-73362500D01*
X130622011Y-73122040D01*
X129914797Y-72414826D01*
X129893123Y-72362500D01*
X129914797Y-72310174D01*
X130372645Y-71852326D01*
X130840460Y-71384511D01*
X130856504Y-71356721D01*
X130880021Y-71315989D01*
X130900499Y-71239564D01*
X130900500Y-71239564D01*
X130900500Y-67560438D01*
X130888590Y-67515989D01*
X130888590Y-67515988D01*
X130880023Y-67484016D01*
X130880022Y-67484012D01*
X130840460Y-67415489D01*
X129722174Y-66297203D01*
X129700500Y-66244877D01*
X129700500Y-66193654D01*
X129722174Y-66141328D01*
X129774500Y-66119654D01*
X129803891Y-66125741D01*
X129807306Y-66127219D01*
X129949999Y-66168675D01*
X129950000Y-66168675D01*
X129950000Y-63706324D01*
X130450000Y-63706324D01*
X130450000Y-66168675D01*
X130592695Y-66127218D01*
X130731334Y-66045227D01*
X130845228Y-65931333D01*
X130845228Y-65931332D01*
X130856762Y-65911831D01*
X130902053Y-65877824D01*
X130920451Y-65875499D01*
X131177102Y-65875499D01*
X131226330Y-65869019D01*
X131334359Y-65818644D01*
X131347674Y-65805329D01*
X131400000Y-65783655D01*
X131452326Y-65805329D01*
X131465641Y-65818644D01*
X131573670Y-65869019D01*
X131622897Y-65875500D01*
X131977102Y-65875499D01*
X132026330Y-65869019D01*
X132134359Y-65818644D01*
X132147674Y-65805329D01*
X132200000Y-65783655D01*
X132252326Y-65805329D01*
X132265641Y-65818644D01*
X132373670Y-65869019D01*
X132422897Y-65875500D01*
X132777102Y-65875499D01*
X132826330Y-65869019D01*
X132934359Y-65818644D01*
X132947674Y-65805329D01*
X133000000Y-65783655D01*
X133052326Y-65805329D01*
X133065641Y-65818644D01*
X133173670Y-65869019D01*
X133222897Y-65875500D01*
X133577102Y-65875499D01*
X133626330Y-65869019D01*
X133734359Y-65818644D01*
X133747674Y-65805329D01*
X133800000Y-65783655D01*
X133852326Y-65805329D01*
X133865641Y-65818644D01*
X133973670Y-65869019D01*
X134022897Y-65875500D01*
X134377102Y-65875499D01*
X134426330Y-65869019D01*
X134534359Y-65818644D01*
X134547674Y-65805329D01*
X134600000Y-65783655D01*
X134652326Y-65805329D01*
X134665641Y-65818644D01*
X134773670Y-65869019D01*
X134822897Y-65875500D01*
X135177102Y-65875499D01*
X135226330Y-65869019D01*
X135334359Y-65818644D01*
X135347674Y-65805329D01*
X135400000Y-65783655D01*
X135452326Y-65805329D01*
X135465641Y-65818644D01*
X135573670Y-65869019D01*
X135622897Y-65875500D01*
X135879542Y-65875499D01*
X135931868Y-65897173D01*
X135943237Y-65911830D01*
X135954771Y-65931333D01*
X136068665Y-66045227D01*
X136207304Y-66127218D01*
X136349999Y-66168675D01*
X136350000Y-66168675D01*
X136350000Y-63706324D01*
X136207304Y-63747781D01*
X136068665Y-63829772D01*
X135954769Y-63943668D01*
X135943236Y-63963170D01*
X135897944Y-63997176D01*
X135879542Y-63999500D01*
X135622898Y-63999500D01*
X135573671Y-64005980D01*
X135573669Y-64005981D01*
X135465640Y-64056356D01*
X135452326Y-64069671D01*
X135400000Y-64091345D01*
X135347674Y-64069671D01*
X135334359Y-64056356D01*
X135226330Y-64005981D01*
X135226328Y-64005980D01*
X135190063Y-64001206D01*
X135177103Y-63999500D01*
X135177101Y-63999500D01*
X134822898Y-63999500D01*
X134773671Y-64005980D01*
X134773669Y-64005981D01*
X134665640Y-64056356D01*
X134652326Y-64069671D01*
X134600000Y-64091345D01*
X134547674Y-64069671D01*
X134534359Y-64056356D01*
X134426330Y-64005981D01*
X134426328Y-64005980D01*
X134390063Y-64001206D01*
X134377103Y-63999500D01*
X134377101Y-63999500D01*
X134022898Y-63999500D01*
X133973671Y-64005980D01*
X133973669Y-64005981D01*
X133865640Y-64056356D01*
X133852326Y-64069671D01*
X133800000Y-64091345D01*
X133747674Y-64069671D01*
X133734359Y-64056356D01*
X133626330Y-64005981D01*
X133626328Y-64005980D01*
X133590063Y-64001206D01*
X133577103Y-63999500D01*
X133577101Y-63999500D01*
X133222898Y-63999500D01*
X133173671Y-64005980D01*
X133173669Y-64005981D01*
X133065640Y-64056356D01*
X133052326Y-64069671D01*
X133000000Y-64091345D01*
X132947674Y-64069671D01*
X132934359Y-64056356D01*
X132826330Y-64005981D01*
X132826328Y-64005980D01*
X132790063Y-64001206D01*
X132777103Y-63999500D01*
X132777101Y-63999500D01*
X132422898Y-63999500D01*
X132373671Y-64005980D01*
X132373669Y-64005981D01*
X132265640Y-64056356D01*
X132252326Y-64069671D01*
X132200000Y-64091345D01*
X132147674Y-64069671D01*
X132134359Y-64056356D01*
X132026330Y-64005981D01*
X132026328Y-64005980D01*
X131990063Y-64001206D01*
X131977103Y-63999500D01*
X131977101Y-63999500D01*
X131622898Y-63999500D01*
X131573671Y-64005980D01*
X131573669Y-64005981D01*
X131465640Y-64056356D01*
X131452326Y-64069671D01*
X131400000Y-64091345D01*
X131347674Y-64069671D01*
X131334359Y-64056356D01*
X131226330Y-64005981D01*
X131226328Y-64005980D01*
X131190063Y-64001206D01*
X131177103Y-63999500D01*
X131177101Y-63999500D01*
X130920457Y-63999500D01*
X130868131Y-63977826D01*
X130856762Y-63963170D01*
X130845225Y-63943663D01*
X130731334Y-63829772D01*
X130592695Y-63747781D01*
X130450000Y-63706324D01*
X129950000Y-63706324D01*
X129807304Y-63747781D01*
X129668665Y-63829772D01*
X129554769Y-63943668D01*
X129543236Y-63963170D01*
X129497944Y-63997176D01*
X129479542Y-63999500D01*
X129222898Y-63999500D01*
X129173671Y-64005980D01*
X129173669Y-64005981D01*
X129065640Y-64056356D01*
X128981356Y-64140640D01*
X128930980Y-64248671D01*
X128924500Y-64297898D01*
X128924500Y-65577101D01*
X128930980Y-65626328D01*
X128930981Y-65626330D01*
X128981356Y-65734359D01*
X129065640Y-65818643D01*
X129067942Y-65820255D01*
X129069153Y-65822156D01*
X129070219Y-65823222D01*
X129069982Y-65823458D01*
X129098375Y-65868021D01*
X129099500Y-65880874D01*
X129099500Y-66319875D01*
X129077826Y-66372201D01*
X128801825Y-66648202D01*
X128749499Y-66669876D01*
X128697173Y-66648202D01*
X128675499Y-66595876D01*
X128675499Y-66422898D01*
X128673046Y-66404260D01*
X128669019Y-66373670D01*
X128618644Y-66265641D01*
X128534359Y-66181356D01*
X128426330Y-66130981D01*
X128426328Y-66130980D01*
X128386529Y-66125741D01*
X128377103Y-66124500D01*
X128377101Y-66124500D01*
X127097898Y-66124500D01*
X127048671Y-66130980D01*
X127048669Y-66130981D01*
X126940640Y-66181356D01*
X126856356Y-66265640D01*
X126856356Y-66265641D01*
X126841567Y-66297356D01*
X126799809Y-66335619D01*
X126743226Y-66333149D01*
X126704963Y-66291391D01*
X126700500Y-66266082D01*
X126700500Y-66155123D01*
X126722174Y-66102797D01*
X132302797Y-60522174D01*
X132355123Y-60500500D01*
X139364564Y-60500500D01*
X139364564Y-60500499D01*
X139440989Y-60480021D01*
X139509511Y-60440460D01*
X139565460Y-60384511D01*
X143490340Y-56459629D01*
X143542665Y-56437956D01*
X143581875Y-56450857D01*
X143582221Y-56450204D01*
X143586065Y-56452236D01*
X143586603Y-56452413D01*
X143587118Y-56452793D01*
X143587121Y-56452794D01*
X143587122Y-56452795D01*
X143715295Y-56497644D01*
X143715301Y-56497646D01*
X143745734Y-56500500D01*
X143745741Y-56500500D01*
X144504258Y-56500500D01*
X144504266Y-56500500D01*
X144534699Y-56497646D01*
X144662882Y-56452793D01*
X144772150Y-56372150D01*
X144774386Y-56369121D01*
X144852792Y-56262883D01*
X144852793Y-56262882D01*
X144897646Y-56134699D01*
X144900500Y-56104266D01*
X144900500Y-56099976D01*
X146000001Y-56099976D01*
X146010494Y-56202696D01*
X146065642Y-56369121D01*
X146157683Y-56518343D01*
X146157686Y-56518347D01*
X146281653Y-56642314D01*
X146281656Y-56642316D01*
X146430878Y-56734357D01*
X146597302Y-56789505D01*
X146700025Y-56799999D01*
X146825000Y-56799999D01*
X147325000Y-56799999D01*
X147449971Y-56799999D01*
X147449976Y-56799998D01*
X147552696Y-56789505D01*
X147719121Y-56734357D01*
X147868343Y-56642316D01*
X147868347Y-56642314D01*
X147992314Y-56518347D01*
X147992316Y-56518343D01*
X148084357Y-56369121D01*
X148139505Y-56202697D01*
X148149999Y-56099975D01*
X148150000Y-56099973D01*
X148150000Y-55650000D01*
X147325000Y-55650000D01*
X147325000Y-56799999D01*
X146825000Y-56799999D01*
X146825000Y-55650000D01*
X146000001Y-55650000D01*
X146000001Y-56099976D01*
X144900500Y-56099976D01*
X144900500Y-54700024D01*
X146000000Y-54700024D01*
X146000000Y-55150000D01*
X146825000Y-55150000D01*
X147325000Y-55150000D01*
X148149999Y-55150000D01*
X148149999Y-54700029D01*
X148149998Y-54700025D01*
X148141043Y-54612359D01*
X148141043Y-54612356D01*
X148140487Y-54606917D01*
X163805750Y-54606917D01*
X163805750Y-54930582D01*
X163841989Y-55252225D01*
X163914011Y-55567773D01*
X163914015Y-55567785D01*
X164020909Y-55873273D01*
X164020914Y-55873283D01*
X164161348Y-56164898D01*
X164161350Y-56164902D01*
X164161351Y-56164903D01*
X164333554Y-56438964D01*
X164535360Y-56692020D01*
X164764230Y-56920890D01*
X165017286Y-57122696D01*
X165291347Y-57294899D01*
X165582964Y-57435335D01*
X165582970Y-57435337D01*
X165582976Y-57435340D01*
X165827263Y-57520819D01*
X165888472Y-57542237D01*
X166204028Y-57614261D01*
X166525664Y-57650500D01*
X166525668Y-57650500D01*
X166849332Y-57650500D01*
X166849336Y-57650500D01*
X167170972Y-57614261D01*
X167486528Y-57542237D01*
X167654450Y-57483478D01*
X167792023Y-57435340D01*
X167792026Y-57435338D01*
X167792036Y-57435335D01*
X168083653Y-57294899D01*
X168357714Y-57122696D01*
X168610770Y-56920890D01*
X168839640Y-56692020D01*
X169041446Y-56438964D01*
X169213649Y-56164903D01*
X169354085Y-55873286D01*
X169374957Y-55813639D01*
X169432216Y-55650000D01*
X169460987Y-55567778D01*
X169533011Y-55252222D01*
X169569250Y-54930586D01*
X169569250Y-54606914D01*
X169533011Y-54285278D01*
X169460987Y-53969722D01*
X169439569Y-53908513D01*
X169354090Y-53664226D01*
X169354087Y-53664220D01*
X169354085Y-53664214D01*
X169213649Y-53372597D01*
X169041446Y-53098536D01*
X168839640Y-52845480D01*
X168610770Y-52616610D01*
X168610762Y-52616604D01*
X168357714Y-52414804D01*
X168083648Y-52242598D01*
X167845261Y-52127797D01*
X167792036Y-52102165D01*
X167792032Y-52102163D01*
X167792023Y-52102159D01*
X167486535Y-51995265D01*
X167486523Y-51995261D01*
X167170975Y-51923239D01*
X167033128Y-51907708D01*
X166849336Y-51887000D01*
X166525664Y-51887000D01*
X166364846Y-51905119D01*
X166204024Y-51923239D01*
X165888476Y-51995261D01*
X165888464Y-51995265D01*
X165582976Y-52102159D01*
X165582966Y-52102164D01*
X165291351Y-52242598D01*
X165017285Y-52414804D01*
X164764230Y-52616609D01*
X164535359Y-52845480D01*
X164333554Y-53098535D01*
X164161348Y-53372601D01*
X164020914Y-53664216D01*
X164020909Y-53664226D01*
X163914015Y-53969714D01*
X163914011Y-53969726D01*
X163841989Y-54285274D01*
X163805750Y-54606917D01*
X148140487Y-54606917D01*
X148139505Y-54597303D01*
X148084357Y-54430878D01*
X147992316Y-54281656D01*
X147992314Y-54281653D01*
X147868347Y-54157686D01*
X147868343Y-54157683D01*
X147719121Y-54065642D01*
X147552697Y-54010494D01*
X147449975Y-54000000D01*
X147325000Y-54000000D01*
X147325000Y-55150000D01*
X146825000Y-55150000D01*
X146825000Y-54000000D01*
X146700029Y-54000000D01*
X146700023Y-54000001D01*
X146597303Y-54010494D01*
X146430878Y-54065642D01*
X146281656Y-54157683D01*
X146157683Y-54281656D01*
X146065642Y-54430878D01*
X146010494Y-54597302D01*
X146000000Y-54700024D01*
X144900500Y-54700024D01*
X144900500Y-54695734D01*
X144897646Y-54665301D01*
X144852793Y-54537118D01*
X144852792Y-54537116D01*
X144772153Y-54427853D01*
X144772146Y-54427846D01*
X144662883Y-54347207D01*
X144662881Y-54347206D01*
X144534704Y-54302355D01*
X144534705Y-54302355D01*
X144534700Y-54302354D01*
X144534699Y-54302354D01*
X144504266Y-54299500D01*
X144504260Y-54299500D01*
X144499500Y-54299500D01*
X144447174Y-54277826D01*
X144425500Y-54225500D01*
X144425500Y-51985436D01*
X144425499Y-51985435D01*
X144405022Y-51909014D01*
X144405020Y-51909009D01*
X144365459Y-51840488D01*
X141451296Y-48926325D01*
X141429622Y-48873999D01*
X141451296Y-48821673D01*
X141503622Y-48799999D01*
X141624971Y-48799999D01*
X141624976Y-48799998D01*
X141727696Y-48789505D01*
X141894121Y-48734357D01*
X142043343Y-48642316D01*
X142043347Y-48642314D01*
X142167314Y-48518347D01*
X142167316Y-48518343D01*
X142259357Y-48369121D01*
X142314505Y-48202697D01*
X142324999Y-48099975D01*
X142325000Y-48099973D01*
X142325000Y-47850000D01*
X141386500Y-47850000D01*
X141334174Y-47828326D01*
X141312500Y-47776000D01*
X141312500Y-47600000D01*
X141136500Y-47600000D01*
X141084174Y-47578326D01*
X141062500Y-47526000D01*
X141062500Y-47453031D01*
X215574500Y-47453031D01*
X215574500Y-47796968D01*
X215608211Y-48139254D01*
X215675308Y-48476573D01*
X215704302Y-48572153D01*
X215772539Y-48797099D01*
X215775150Y-48805704D01*
X215775155Y-48805718D01*
X215885199Y-49071389D01*
X215906769Y-49123462D01*
X215965895Y-49234078D01*
X216068892Y-49426774D01*
X216068900Y-49426787D01*
X216259976Y-49712754D01*
X216259981Y-49712760D01*
X216478172Y-49978627D01*
X216721373Y-50221828D01*
X216987240Y-50440019D01*
X216987245Y-50440023D01*
X217177453Y-50567115D01*
X217273213Y-50631100D01*
X217273217Y-50631102D01*
X217273225Y-50631107D01*
X217380602Y-50688501D01*
X217576538Y-50793231D01*
X217894295Y-50924850D01*
X218223422Y-51024690D01*
X218223424Y-51024690D01*
X218223426Y-51024691D01*
X218537876Y-51087239D01*
X218560750Y-51091789D01*
X218903031Y-51125500D01*
X218903032Y-51125500D01*
X219246968Y-51125500D01*
X219246969Y-51125500D01*
X219589250Y-51091789D01*
X219926578Y-51024690D01*
X220255705Y-50924850D01*
X220573462Y-50793231D01*
X220876787Y-50631100D01*
X221162760Y-50440019D01*
X221428627Y-50221828D01*
X221671828Y-49978627D01*
X221890019Y-49712760D01*
X222081100Y-49426787D01*
X222243231Y-49123462D01*
X222374850Y-48805705D01*
X222474690Y-48476578D01*
X222541789Y-48139250D01*
X222575500Y-47796969D01*
X222575500Y-47453031D01*
X222541789Y-47110750D01*
X222506442Y-46933050D01*
X222474691Y-46773426D01*
X222474690Y-46773422D01*
X222374850Y-46444295D01*
X222243231Y-46126538D01*
X222138501Y-45930602D01*
X222081107Y-45823225D01*
X222081099Y-45823212D01*
X221890023Y-45537245D01*
X221808065Y-45437379D01*
X221671828Y-45271373D01*
X221428627Y-45028172D01*
X221162760Y-44809981D01*
X221162754Y-44809976D01*
X220876787Y-44618900D01*
X220876774Y-44618892D01*
X220676535Y-44511863D01*
X220573462Y-44456769D01*
X220573456Y-44456766D01*
X220573451Y-44456764D01*
X220255718Y-44325155D01*
X220255711Y-44325152D01*
X220255705Y-44325150D01*
X220090314Y-44274979D01*
X219926573Y-44225308D01*
X219589254Y-44158211D01*
X219315425Y-44131242D01*
X219246969Y-44124500D01*
X218903031Y-44124500D01*
X218845984Y-44130118D01*
X218560745Y-44158211D01*
X218223426Y-44225308D01*
X217894295Y-44325150D01*
X217894281Y-44325155D01*
X217576548Y-44456764D01*
X217576540Y-44456768D01*
X217273225Y-44618892D01*
X217273212Y-44618900D01*
X216987245Y-44809976D01*
X216721374Y-45028171D01*
X216478171Y-45271374D01*
X216259976Y-45537245D01*
X216068900Y-45823212D01*
X216068892Y-45823225D01*
X215906768Y-46126540D01*
X215906764Y-46126548D01*
X215775155Y-46444281D01*
X215775150Y-46444295D01*
X215675308Y-46773426D01*
X215608211Y-47110745D01*
X215574500Y-47453031D01*
X141062500Y-47453031D01*
X141062500Y-47350000D01*
X141562500Y-47350000D01*
X142324999Y-47350000D01*
X142324999Y-47100029D01*
X142324998Y-47100023D01*
X142314505Y-46997303D01*
X142259357Y-46830878D01*
X142167316Y-46681656D01*
X142167314Y-46681653D01*
X142043347Y-46557686D01*
X142043343Y-46557683D01*
X141894121Y-46465642D01*
X141727697Y-46410494D01*
X141624975Y-46400000D01*
X141562500Y-46400000D01*
X141562500Y-47350000D01*
X141062500Y-47350000D01*
X141062500Y-46400000D01*
X141000028Y-46400000D01*
X141000022Y-46400001D01*
X140897303Y-46410494D01*
X140730878Y-46465642D01*
X140581656Y-46557683D01*
X140526853Y-46612486D01*
X140474527Y-46634160D01*
X140422201Y-46612486D01*
X138541040Y-44731325D01*
X138519366Y-44678999D01*
X138541040Y-44626673D01*
X138593366Y-44604999D01*
X139599971Y-44604999D01*
X139599976Y-44604998D01*
X139702697Y-44594505D01*
X139702699Y-44594505D01*
X139810297Y-44558850D01*
X138356446Y-43104999D01*
X139063553Y-43104999D01*
X139063553Y-43105000D01*
X140195566Y-44237013D01*
X140195566Y-44237012D01*
X140234357Y-44174121D01*
X140289505Y-44007697D01*
X140299999Y-43904975D01*
X140299999Y-42305029D01*
X140299998Y-42305023D01*
X140289505Y-42202303D01*
X140234357Y-42035878D01*
X140195565Y-41972986D01*
X139063553Y-43104999D01*
X138356446Y-43104999D01*
X137224433Y-41972986D01*
X137224431Y-41972986D01*
X137185644Y-42035873D01*
X137130494Y-42202302D01*
X137122415Y-42281386D01*
X137095535Y-42331238D01*
X137041277Y-42347482D01*
X136991425Y-42320602D01*
X136984712Y-42310866D01*
X136981339Y-42305024D01*
X136950515Y-42251635D01*
X136843365Y-42144485D01*
X136843362Y-42144483D01*
X136712139Y-42068721D01*
X136712130Y-42068717D01*
X136565768Y-42029500D01*
X136565766Y-42029500D01*
X136414234Y-42029500D01*
X136414232Y-42029500D01*
X136267869Y-42068717D01*
X136267860Y-42068721D01*
X136136637Y-42144483D01*
X136029483Y-42251637D01*
X135953721Y-42382860D01*
X135953717Y-42382869D01*
X135933874Y-42456927D01*
X135899396Y-42501860D01*
X135843243Y-42509252D01*
X135810070Y-42490100D01*
X134971118Y-41651148D01*
X137609701Y-41651148D01*
X138709999Y-42751446D01*
X139810297Y-41651148D01*
X139702698Y-41615494D01*
X139599974Y-41605000D01*
X137820029Y-41605000D01*
X137820023Y-41605001D01*
X137717301Y-41615494D01*
X137609701Y-41651148D01*
X134971118Y-41651148D01*
X134279510Y-40959540D01*
X134210989Y-40919979D01*
X134210984Y-40919977D01*
X134134563Y-40899500D01*
X134134561Y-40899500D01*
X133160438Y-40899500D01*
X133160436Y-40899500D01*
X133084014Y-40919977D01*
X133084009Y-40919979D01*
X133015488Y-40959540D01*
X131410005Y-42565022D01*
X131357679Y-42586696D01*
X131305353Y-42565022D01*
X131286200Y-42531849D01*
X131285500Y-42529236D01*
X131285500Y-42529234D01*
X131246281Y-42382865D01*
X131170515Y-42251635D01*
X131063365Y-42144485D01*
X131063362Y-42144483D01*
X130932139Y-42068721D01*
X130932130Y-42068717D01*
X130785768Y-42029500D01*
X130785766Y-42029500D01*
X130634234Y-42029500D01*
X130634232Y-42029500D01*
X130487869Y-42068717D01*
X130487860Y-42068721D01*
X130356637Y-42144483D01*
X130249483Y-42251637D01*
X130215287Y-42310867D01*
X130170353Y-42345346D01*
X130114201Y-42337953D01*
X130079722Y-42293019D01*
X130077584Y-42281387D01*
X130069505Y-42202303D01*
X130014357Y-42035878D01*
X129975565Y-41972986D01*
X128843553Y-43105000D01*
X127389701Y-44558850D01*
X127497301Y-44594505D01*
X127600025Y-44604999D01*
X129379970Y-44604999D01*
X129379976Y-44604998D01*
X129482696Y-44594505D01*
X129649121Y-44539357D01*
X129671063Y-44525823D01*
X129726977Y-44516798D01*
X129762240Y-44536478D01*
X129848443Y-44622682D01*
X129989800Y-44706281D01*
X130147508Y-44752099D01*
X130147505Y-44752099D01*
X130184359Y-44755000D01*
X130615641Y-44755000D01*
X130652491Y-44752099D01*
X130763950Y-44719717D01*
X130820245Y-44725932D01*
X130855658Y-44770133D01*
X130849443Y-44826428D01*
X130836922Y-44843105D01*
X128202202Y-47477826D01*
X128149876Y-47499500D01*
X126699500Y-47499500D01*
X126647174Y-47477826D01*
X126625500Y-47425500D01*
X126625500Y-47295740D01*
X126625500Y-47295734D01*
X126622646Y-47265301D01*
X126577793Y-47137118D01*
X126558333Y-47110750D01*
X126497153Y-47027853D01*
X126497146Y-47027846D01*
X126387883Y-46947207D01*
X126387881Y-46947206D01*
X126259704Y-46902355D01*
X126259705Y-46902355D01*
X126259700Y-46902354D01*
X126259699Y-46902354D01*
X126229266Y-46899500D01*
X125595734Y-46899500D01*
X125565301Y-46902354D01*
X125565299Y-46902354D01*
X125565295Y-46902355D01*
X125437118Y-46947206D01*
X125437116Y-46947207D01*
X125327853Y-47027846D01*
X125327846Y-47027853D01*
X125247207Y-47137116D01*
X125247206Y-47137118D01*
X125227720Y-47192805D01*
X125189980Y-47235036D01*
X125133432Y-47238211D01*
X125091201Y-47200471D01*
X125087629Y-47191640D01*
X125034358Y-47030879D01*
X124942316Y-46881656D01*
X124942314Y-46881653D01*
X124818347Y-46757686D01*
X124818343Y-46757683D01*
X124669121Y-46665642D01*
X124502697Y-46610494D01*
X124399975Y-46600000D01*
X124337500Y-46600000D01*
X124337500Y-48999999D01*
X124399971Y-48999999D01*
X124399976Y-48999998D01*
X124502696Y-48989505D01*
X124669121Y-48934357D01*
X124818343Y-48842316D01*
X124818347Y-48842314D01*
X124942314Y-48718347D01*
X124942316Y-48718343D01*
X125034358Y-48569120D01*
X125087629Y-48408359D01*
X125124662Y-48365506D01*
X125181149Y-48361391D01*
X125224002Y-48398424D01*
X125227720Y-48407194D01*
X125247206Y-48462881D01*
X125247207Y-48462883D01*
X125327846Y-48572146D01*
X125327853Y-48572153D01*
X125437116Y-48652792D01*
X125437118Y-48652793D01*
X125565295Y-48697644D01*
X125565301Y-48697646D01*
X125595734Y-48700500D01*
X125595741Y-48700500D01*
X126229258Y-48700500D01*
X126229266Y-48700500D01*
X126259699Y-48697646D01*
X126387882Y-48652793D01*
X126497150Y-48572150D01*
X126499386Y-48569121D01*
X126550030Y-48500500D01*
X126577793Y-48462882D01*
X126622646Y-48334699D01*
X126625500Y-48304266D01*
X126625500Y-48215641D01*
X130895000Y-48215641D01*
X130897900Y-48252493D01*
X130943718Y-48410199D01*
X131027317Y-48551556D01*
X131143443Y-48667682D01*
X131284800Y-48751281D01*
X131442506Y-48797099D01*
X131445000Y-48797295D01*
X131445000Y-47575000D01*
X130895000Y-47575000D01*
X130895000Y-48215641D01*
X126625500Y-48215641D01*
X126625500Y-48174500D01*
X126647174Y-48122174D01*
X126699500Y-48100500D01*
X128344563Y-48100500D01*
X128344563Y-48100499D01*
X128420988Y-48080021D01*
X128489510Y-48040460D01*
X128545459Y-47984511D01*
X130095612Y-46434358D01*
X130895000Y-46434358D01*
X130895000Y-47075000D01*
X131445000Y-47075000D01*
X131445000Y-45852703D01*
X131444999Y-45852703D01*
X131442506Y-45852900D01*
X131284800Y-45898718D01*
X131143443Y-45982317D01*
X131027317Y-46098443D01*
X130943718Y-46239800D01*
X130897900Y-46397506D01*
X130895000Y-46434358D01*
X130095612Y-46434358D01*
X132078376Y-44451593D01*
X132130699Y-44429921D01*
X132159918Y-44438784D01*
X132160771Y-44436726D01*
X132167503Y-44439514D01*
X132167505Y-44439515D01*
X132247867Y-44455500D01*
X132452132Y-44455499D01*
X132461064Y-44453722D01*
X132516612Y-44464771D01*
X132548078Y-44511863D01*
X132549500Y-44526300D01*
X132549500Y-46143835D01*
X132527826Y-46196161D01*
X132475500Y-46217835D01*
X132423174Y-46196161D01*
X132411805Y-46181504D01*
X132362682Y-46098443D01*
X132246556Y-45982317D01*
X132105199Y-45898718D01*
X131947493Y-45852900D01*
X131945000Y-45852703D01*
X131945000Y-48797295D01*
X131947493Y-48797099D01*
X132105199Y-48751281D01*
X132246556Y-48667682D01*
X132362682Y-48551556D01*
X132447232Y-48408591D01*
X132492524Y-48374585D01*
X132548596Y-48382565D01*
X132563253Y-48393934D01*
X132608517Y-48439198D01*
X132713607Y-48490573D01*
X132781740Y-48500500D01*
X132781746Y-48500500D01*
X133148254Y-48500500D01*
X133148260Y-48500500D01*
X133216393Y-48490573D01*
X133321483Y-48439198D01*
X133404198Y-48356483D01*
X133455573Y-48251393D01*
X133465500Y-48183260D01*
X133465500Y-46466740D01*
X133455573Y-46398607D01*
X133404198Y-46293517D01*
X133321483Y-46210802D01*
X133321482Y-46210801D01*
X133216395Y-46159427D01*
X133215378Y-46159279D01*
X133213829Y-46159053D01*
X133212368Y-46158183D01*
X133210905Y-46157731D01*
X133211014Y-46157376D01*
X133165176Y-46130061D01*
X133150500Y-46085827D01*
X133150500Y-44691533D01*
X133172174Y-44639207D01*
X133224500Y-44617533D01*
X133276826Y-44639207D01*
X133377130Y-44739511D01*
X133433079Y-44795460D01*
X133483239Y-44824420D01*
X133501597Y-44835019D01*
X133501601Y-44835021D01*
X133501602Y-44835021D01*
X133501604Y-44835022D01*
X133531770Y-44843105D01*
X133578025Y-44855499D01*
X133578026Y-44855500D01*
X133578028Y-44855500D01*
X133657152Y-44855500D01*
X133799878Y-44855500D01*
X133852202Y-44877173D01*
X133912826Y-44937797D01*
X133934500Y-44990122D01*
X133934500Y-46137239D01*
X133912826Y-46189565D01*
X133893003Y-46203719D01*
X133878517Y-46210801D01*
X133795801Y-46293517D01*
X133744427Y-46398605D01*
X133744427Y-46398606D01*
X133734500Y-46466735D01*
X133734500Y-48183264D01*
X133744427Y-48251393D01*
X133744427Y-48251394D01*
X133795801Y-48356482D01*
X133795802Y-48356483D01*
X133878517Y-48439198D01*
X133983607Y-48490573D01*
X134051740Y-48500500D01*
X134051746Y-48500500D01*
X134418254Y-48500500D01*
X134418260Y-48500500D01*
X134486393Y-48490573D01*
X134591483Y-48439198D01*
X134674198Y-48356483D01*
X134725573Y-48251393D01*
X134735500Y-48183260D01*
X134735500Y-46466740D01*
X134725573Y-46398607D01*
X134674198Y-46293517D01*
X134591483Y-46210802D01*
X134591482Y-46210801D01*
X134576997Y-46203719D01*
X134539509Y-46161264D01*
X134535500Y-46137239D01*
X134535500Y-44795436D01*
X134535499Y-44795435D01*
X134515022Y-44719014D01*
X134515020Y-44719009D01*
X134480583Y-44659363D01*
X134473190Y-44603211D01*
X134492341Y-44570039D01*
X134547675Y-44514705D01*
X134600000Y-44493032D01*
X134652324Y-44514705D01*
X137978079Y-47840460D01*
X137978081Y-47840461D01*
X137978082Y-47840462D01*
X138026243Y-47868268D01*
X138046602Y-47880022D01*
X138123028Y-47900500D01*
X138700500Y-47900500D01*
X138752826Y-47922174D01*
X138774500Y-47974500D01*
X138774500Y-48104266D01*
X138777354Y-48134699D01*
X138777354Y-48134701D01*
X138777355Y-48134704D01*
X138822206Y-48262881D01*
X138822207Y-48262883D01*
X138902846Y-48372146D01*
X138902853Y-48372153D01*
X139012116Y-48452792D01*
X139012118Y-48452793D01*
X139140295Y-48497644D01*
X139140301Y-48497646D01*
X139170734Y-48500500D01*
X139495877Y-48500500D01*
X139548203Y-48522174D01*
X139569877Y-48574500D01*
X139548203Y-48626826D01*
X136222203Y-51952826D01*
X136169877Y-51974500D01*
X136079500Y-51974500D01*
X136027174Y-51952826D01*
X136005500Y-51900500D01*
X136005500Y-51416746D01*
X136005500Y-51416740D01*
X135995573Y-51348607D01*
X135944198Y-51243517D01*
X135861483Y-51160802D01*
X135861482Y-51160801D01*
X135846997Y-51153719D01*
X135809509Y-51111264D01*
X135805500Y-51087239D01*
X135805500Y-48512759D01*
X135827174Y-48460433D01*
X135846997Y-48446279D01*
X135861483Y-48439198D01*
X135944198Y-48356483D01*
X135995573Y-48251393D01*
X136005500Y-48183260D01*
X136005500Y-46466740D01*
X135995573Y-46398607D01*
X135944198Y-46293517D01*
X135861483Y-46210802D01*
X135861482Y-46210801D01*
X135756394Y-46159427D01*
X135688264Y-46149500D01*
X135688260Y-46149500D01*
X135321740Y-46149500D01*
X135321735Y-46149500D01*
X135253606Y-46159427D01*
X135253605Y-46159427D01*
X135148517Y-46210801D01*
X135065801Y-46293517D01*
X135014427Y-46398605D01*
X135014427Y-46398606D01*
X135004500Y-46466735D01*
X135004500Y-48183264D01*
X135014427Y-48251393D01*
X135014427Y-48251394D01*
X135065801Y-48356482D01*
X135065802Y-48356483D01*
X135148517Y-48439198D01*
X135163000Y-48446278D01*
X135200490Y-48488730D01*
X135204500Y-48512759D01*
X135204500Y-51087239D01*
X135182826Y-51139565D01*
X135163003Y-51153719D01*
X135148517Y-51160801D01*
X135065801Y-51243517D01*
X135014427Y-51348605D01*
X135014427Y-51348606D01*
X135004500Y-51416735D01*
X135004500Y-53133264D01*
X135014427Y-53201393D01*
X135014427Y-53201394D01*
X135065801Y-53306482D01*
X135065802Y-53306483D01*
X135148517Y-53389198D01*
X135253607Y-53440573D01*
X135321740Y-53450500D01*
X135321746Y-53450500D01*
X135688254Y-53450500D01*
X135688260Y-53450500D01*
X135756393Y-53440573D01*
X135861483Y-53389198D01*
X135944198Y-53306483D01*
X135995573Y-53201393D01*
X136005500Y-53133260D01*
X136005500Y-52649500D01*
X136027174Y-52597174D01*
X136079500Y-52575500D01*
X136364564Y-52575500D01*
X136364564Y-52575499D01*
X136440989Y-52555021D01*
X136509511Y-52515460D01*
X136565460Y-52459511D01*
X140297674Y-48727297D01*
X140350000Y-48705623D01*
X140402326Y-48727297D01*
X143802826Y-52127797D01*
X143824500Y-52180123D01*
X143824500Y-54225500D01*
X143802826Y-54277826D01*
X143750500Y-54299500D01*
X143745734Y-54299500D01*
X143715301Y-54302354D01*
X143715299Y-54302354D01*
X143715295Y-54302355D01*
X143587118Y-54347206D01*
X143587116Y-54347207D01*
X143477853Y-54427846D01*
X143477846Y-54427853D01*
X143397207Y-54537116D01*
X143397206Y-54537118D01*
X143352355Y-54665295D01*
X143352354Y-54665299D01*
X143352354Y-54665301D01*
X143349500Y-54695734D01*
X143349500Y-54695740D01*
X143349500Y-55719877D01*
X143327826Y-55772203D01*
X139222203Y-59877826D01*
X139169877Y-59899500D01*
X132239562Y-59899500D01*
X132160438Y-59899500D01*
X132084012Y-59919978D01*
X132084011Y-59919978D01*
X132084009Y-59919979D01*
X132084007Y-59919980D01*
X132015492Y-59959537D01*
X126215489Y-65759540D01*
X126159540Y-65815488D01*
X126119979Y-65884009D01*
X126119977Y-65884014D01*
X126099500Y-65960435D01*
X126099500Y-66839563D01*
X126119978Y-66915987D01*
X126139349Y-66949540D01*
X126139350Y-66949540D01*
X126159540Y-66984510D01*
X126800791Y-67625761D01*
X126815532Y-67646813D01*
X126856355Y-67734358D01*
X126869671Y-67747674D01*
X126891345Y-67800000D01*
X126869671Y-67852326D01*
X126856356Y-67865640D01*
X126854745Y-67867942D01*
X126852843Y-67869153D01*
X126851778Y-67870219D01*
X126851541Y-67869982D01*
X126806979Y-67898375D01*
X126794126Y-67899500D01*
X125787000Y-67899500D01*
X125734674Y-67877826D01*
X125713000Y-67825500D01*
X125713000Y-67095740D01*
X125713000Y-67095734D01*
X125710146Y-67065301D01*
X125704837Y-67050130D01*
X125665293Y-66937118D01*
X125665292Y-66937116D01*
X125584653Y-66827853D01*
X125584646Y-66827846D01*
X125475383Y-66747207D01*
X125475381Y-66747206D01*
X125347204Y-66702355D01*
X125347205Y-66702355D01*
X125347200Y-66702354D01*
X125347199Y-66702354D01*
X125316766Y-66699500D01*
X124683234Y-66699500D01*
X124652801Y-66702354D01*
X124652799Y-66702354D01*
X124652795Y-66702355D01*
X124524618Y-66747206D01*
X124524616Y-66747207D01*
X124415353Y-66827846D01*
X124415346Y-66827853D01*
X124334707Y-66937116D01*
X124334706Y-66937118D01*
X124289855Y-67065295D01*
X124289854Y-67065299D01*
X124289854Y-67065301D01*
X124287000Y-67095734D01*
X124287000Y-68104266D01*
X124289854Y-68134699D01*
X124289854Y-68134701D01*
X124289855Y-68134704D01*
X124334706Y-68262881D01*
X124334707Y-68262883D01*
X124415346Y-68372146D01*
X124415353Y-68372153D01*
X124524616Y-68452792D01*
X124524618Y-68452793D01*
X124652795Y-68497644D01*
X124652801Y-68497646D01*
X124683234Y-68500500D01*
X124683241Y-68500500D01*
X125316760Y-68500500D01*
X125316766Y-68500500D01*
X125347199Y-68497646D01*
X125419348Y-68472399D01*
X125432040Y-68473111D01*
X125443787Y-68468246D01*
X125469873Y-68475235D01*
X125475894Y-68475574D01*
X125477392Y-68477250D01*
X125480788Y-68478160D01*
X125484011Y-68480021D01*
X125484013Y-68480021D01*
X125484014Y-68480022D01*
X125522224Y-68490260D01*
X125560435Y-68500499D01*
X125560436Y-68500500D01*
X125560438Y-68500500D01*
X125639562Y-68500500D01*
X126794126Y-68500500D01*
X126846452Y-68522174D01*
X126854745Y-68532058D01*
X126856356Y-68534359D01*
X126869671Y-68547674D01*
X126891345Y-68600000D01*
X126869671Y-68652326D01*
X126856356Y-68665640D01*
X126854745Y-68667942D01*
X126852843Y-68669153D01*
X126851778Y-68670219D01*
X126851541Y-68669982D01*
X126806979Y-68698375D01*
X126794126Y-68699500D01*
X125560436Y-68699500D01*
X125484011Y-68719978D01*
X125484008Y-68719979D01*
X125480778Y-68721844D01*
X125461631Y-68724361D01*
X125443790Y-68731752D01*
X125434544Y-68727922D01*
X125424624Y-68729227D01*
X125419348Y-68727599D01*
X125347204Y-68702355D01*
X125347205Y-68702355D01*
X125347200Y-68702354D01*
X125347199Y-68702354D01*
X125316766Y-68699500D01*
X124683234Y-68699500D01*
X124652801Y-68702354D01*
X124652799Y-68702354D01*
X124652795Y-68702355D01*
X124524618Y-68747206D01*
X124524616Y-68747207D01*
X124415353Y-68827846D01*
X124415346Y-68827853D01*
X124334707Y-68937116D01*
X124334706Y-68937118D01*
X124289855Y-69065295D01*
X124289854Y-69065299D01*
X124289854Y-69065301D01*
X124287000Y-69095734D01*
X124287000Y-70104266D01*
X124289854Y-70134699D01*
X124289854Y-70134701D01*
X124289855Y-70134704D01*
X124313074Y-70201059D01*
X124309899Y-70257607D01*
X124267668Y-70295347D01*
X124243227Y-70299500D01*
X123931773Y-70299500D01*
X123879447Y-70277826D01*
X123857773Y-70225500D01*
X123861926Y-70201059D01*
X123885144Y-70134704D01*
X123885143Y-70134704D01*
X123885146Y-70134699D01*
X123888000Y-70104266D01*
X123888000Y-69095734D01*
X123885146Y-69065301D01*
X123870298Y-69022869D01*
X123840293Y-68937118D01*
X123840292Y-68937116D01*
X123759653Y-68827853D01*
X123759646Y-68827846D01*
X123650383Y-68747207D01*
X123650381Y-68747206D01*
X123522204Y-68702355D01*
X123522205Y-68702355D01*
X123522200Y-68702354D01*
X123522199Y-68702354D01*
X123491766Y-68699500D01*
X122858234Y-68699500D01*
X122827801Y-68702354D01*
X122827799Y-68702354D01*
X122827795Y-68702355D01*
X122699619Y-68747205D01*
X122647246Y-68785858D01*
X122592273Y-68799490D01*
X122543763Y-68770259D01*
X122530131Y-68715286D01*
X122550976Y-68673994D01*
X122720491Y-68504478D01*
X122772816Y-68482805D01*
X122797254Y-68486957D01*
X122827801Y-68497646D01*
X122858234Y-68500500D01*
X122858240Y-68500500D01*
X123491758Y-68500500D01*
X123491766Y-68500500D01*
X123522199Y-68497646D01*
X123650382Y-68452793D01*
X123759650Y-68372150D01*
X123840293Y-68262882D01*
X123885146Y-68134699D01*
X123888000Y-68104266D01*
X123888000Y-67095734D01*
X123885146Y-67065301D01*
X123879837Y-67050130D01*
X123840293Y-66937118D01*
X123840292Y-66937116D01*
X123759653Y-66827853D01*
X123759646Y-66827846D01*
X123650383Y-66747207D01*
X123650381Y-66747206D01*
X123522204Y-66702355D01*
X123522205Y-66702355D01*
X123522200Y-66702354D01*
X123522199Y-66702354D01*
X123491766Y-66699500D01*
X122858234Y-66699500D01*
X122827801Y-66702354D01*
X122827799Y-66702354D01*
X122827795Y-66702355D01*
X122699618Y-66747206D01*
X122699616Y-66747207D01*
X122590353Y-66827846D01*
X122590346Y-66827853D01*
X122509707Y-66937116D01*
X122509706Y-66937118D01*
X122464855Y-67065295D01*
X122464854Y-67065299D01*
X122464854Y-67065301D01*
X122462000Y-67095734D01*
X122462000Y-67095740D01*
X122462000Y-67882377D01*
X122440326Y-67934703D01*
X122211425Y-68163604D01*
X122159099Y-68185278D01*
X122106773Y-68163604D01*
X121747174Y-67804005D01*
X121725500Y-67751679D01*
X121725500Y-66448321D01*
X121747174Y-66395995D01*
X127758658Y-60384511D01*
X134065460Y-54077709D01*
X134105021Y-54009187D01*
X134125499Y-53932762D01*
X134125500Y-53932762D01*
X134125500Y-53524500D01*
X134147174Y-53472174D01*
X134199500Y-53450500D01*
X134418254Y-53450500D01*
X134418260Y-53450500D01*
X134486393Y-53440573D01*
X134591483Y-53389198D01*
X134674198Y-53306483D01*
X134725573Y-53201393D01*
X134735500Y-53133260D01*
X134735500Y-51416740D01*
X134725573Y-51348607D01*
X134674198Y-51243517D01*
X134591483Y-51160802D01*
X134591482Y-51160801D01*
X134486394Y-51109427D01*
X134418264Y-51099500D01*
X134418260Y-51099500D01*
X134051740Y-51099500D01*
X134051735Y-51099500D01*
X133983606Y-51109427D01*
X133983605Y-51109427D01*
X133878517Y-51160801D01*
X133795801Y-51243517D01*
X133744427Y-51348605D01*
X133744427Y-51348606D01*
X133734500Y-51416735D01*
X133734500Y-52994877D01*
X133712826Y-53047203D01*
X133652326Y-53107703D01*
X133600000Y-53129377D01*
X133547674Y-53107703D01*
X133487174Y-53047203D01*
X133465500Y-52994877D01*
X133465500Y-51416746D01*
X133465500Y-51416740D01*
X133455573Y-51348607D01*
X133404198Y-51243517D01*
X133321483Y-51160802D01*
X133321482Y-51160801D01*
X133216394Y-51109427D01*
X133148264Y-51099500D01*
X133148260Y-51099500D01*
X132781740Y-51099500D01*
X132781735Y-51099500D01*
X132713606Y-51109427D01*
X132713605Y-51109427D01*
X132608517Y-51160801D01*
X132608513Y-51160804D01*
X132563252Y-51206065D01*
X132510926Y-51227739D01*
X132458601Y-51206064D01*
X132447232Y-51191408D01*
X132362682Y-51048443D01*
X132246556Y-50932317D01*
X132105199Y-50848718D01*
X131947493Y-50802900D01*
X131945000Y-50802703D01*
X131945000Y-53747295D01*
X131947493Y-53747099D01*
X132105199Y-53701281D01*
X132246556Y-53617682D01*
X132362682Y-53501556D01*
X132447232Y-53358591D01*
X132492524Y-53324585D01*
X132548596Y-53332565D01*
X132563253Y-53343934D01*
X132608517Y-53389198D01*
X132713607Y-53440573D01*
X132781740Y-53450500D01*
X133000500Y-53450500D01*
X133052826Y-53472174D01*
X133074500Y-53524500D01*
X133074500Y-53551679D01*
X133052826Y-53604005D01*
X120734540Y-65922290D01*
X120694979Y-65990811D01*
X120694977Y-65990816D01*
X120674500Y-66067237D01*
X120674500Y-68132762D01*
X120694977Y-68209183D01*
X120694979Y-68209188D01*
X120702082Y-68221490D01*
X120712068Y-68238786D01*
X120734540Y-68277709D01*
X122241342Y-69784511D01*
X122297291Y-69840460D01*
X122365813Y-69880021D01*
X122407153Y-69891098D01*
X122452086Y-69925576D01*
X122462000Y-69962576D01*
X122462000Y-70104266D01*
X122464854Y-70134699D01*
X122464854Y-70134701D01*
X122464855Y-70134704D01*
X122468214Y-70144304D01*
X122465037Y-70200852D01*
X122422805Y-70238591D01*
X122366257Y-70235414D01*
X122346040Y-70221069D01*
X118713278Y-66588307D01*
X118691604Y-66535981D01*
X118695756Y-66511543D01*
X118722646Y-66434699D01*
X118725500Y-66404266D01*
X118725500Y-65795734D01*
X118722646Y-65765301D01*
X118720783Y-65759978D01*
X118677793Y-65637118D01*
X118677792Y-65637116D01*
X118597153Y-65527853D01*
X118597146Y-65527846D01*
X118487883Y-65447207D01*
X118487881Y-65447206D01*
X118359704Y-65402355D01*
X118359705Y-65402355D01*
X118359700Y-65402354D01*
X118359699Y-65402354D01*
X118329266Y-65399500D01*
X117270734Y-65399500D01*
X117240301Y-65402354D01*
X117240299Y-65402354D01*
X117240295Y-65402355D01*
X117112118Y-65447206D01*
X117112116Y-65447207D01*
X117002853Y-65527846D01*
X117002846Y-65527853D01*
X116922207Y-65637116D01*
X116922206Y-65637118D01*
X116877355Y-65765295D01*
X116877354Y-65765299D01*
X116877354Y-65765301D01*
X116874500Y-65795734D01*
X116874500Y-66404266D01*
X116877354Y-66434699D01*
X116877354Y-66434701D01*
X116877355Y-66434704D01*
X116922206Y-66562881D01*
X116922207Y-66562883D01*
X117002846Y-66672146D01*
X117002853Y-66672153D01*
X117112116Y-66752792D01*
X117112118Y-66752793D01*
X117240295Y-66797644D01*
X117240301Y-66797646D01*
X117270734Y-66800500D01*
X118044877Y-66800500D01*
X118097203Y-66822174D01*
X122059540Y-70784511D01*
X122115489Y-70840460D01*
X122184011Y-70880021D01*
X122184012Y-70880021D01*
X122184014Y-70880022D01*
X122222224Y-70890260D01*
X122260435Y-70900499D01*
X122260436Y-70900500D01*
X122260438Y-70900500D01*
X122339562Y-70900500D01*
X126794126Y-70900500D01*
X126846452Y-70922174D01*
X126854745Y-70932058D01*
X126856356Y-70934359D01*
X126869671Y-70947674D01*
X126891345Y-71000000D01*
X126869671Y-71052326D01*
X126856356Y-71065640D01*
X126805980Y-71173671D01*
X126799500Y-71222898D01*
X126799500Y-71577101D01*
X126805980Y-71626328D01*
X126805981Y-71626330D01*
X126856356Y-71734359D01*
X126869671Y-71747674D01*
X126891345Y-71800000D01*
X126869671Y-71852326D01*
X126856356Y-71865640D01*
X126854745Y-71867942D01*
X126852843Y-71869153D01*
X126851778Y-71870219D01*
X126851541Y-71869982D01*
X126806979Y-71898375D01*
X126794126Y-71899500D01*
X120533104Y-71899500D01*
X120480778Y-71877826D01*
X120459104Y-71825500D01*
X120464737Y-71797181D01*
X120466390Y-71793189D01*
X120466389Y-71793189D01*
X120466392Y-71793186D01*
X120500500Y-71665892D01*
X120500500Y-71534108D01*
X120500500Y-71534106D01*
X120500499Y-71534105D01*
X120470468Y-71422028D01*
X120466392Y-71406814D01*
X120400500Y-71292686D01*
X120307314Y-71199500D01*
X120193190Y-71133610D01*
X120193181Y-71133606D01*
X120065894Y-71099500D01*
X120065892Y-71099500D01*
X119955123Y-71099500D01*
X119902797Y-71077826D01*
X117276674Y-68451703D01*
X114624511Y-65799540D01*
X114620974Y-65797498D01*
X114617916Y-65795732D01*
X114617916Y-65795731D01*
X114555987Y-65759978D01*
X114555988Y-65759978D01*
X114479564Y-65739500D01*
X114479562Y-65739500D01*
X77262027Y-65739500D01*
X77209701Y-65717826D01*
X77193660Y-65693819D01*
X77130941Y-65542402D01*
X77015977Y-65370345D01*
X76869655Y-65224023D01*
X76833700Y-65199999D01*
X76697598Y-65109059D01*
X76506420Y-65029870D01*
X76506413Y-65029868D01*
X76353516Y-64999455D01*
X76303465Y-64989500D01*
X76096535Y-64989500D01*
X76056385Y-64997486D01*
X75893586Y-65029868D01*
X75893579Y-65029870D01*
X75702401Y-65109059D01*
X75530345Y-65224022D01*
X75530344Y-65224024D01*
X75384024Y-65370344D01*
X75384022Y-65370345D01*
X75269059Y-65542401D01*
X75189870Y-65733579D01*
X75189868Y-65733586D01*
X75149500Y-65936535D01*
X75149500Y-66143464D01*
X75189868Y-66346413D01*
X75189870Y-66346420D01*
X75269059Y-66537598D01*
X75384022Y-66709654D01*
X75437542Y-66763174D01*
X75459216Y-66815500D01*
X75437542Y-66867826D01*
X75385216Y-66889500D01*
X58455123Y-66889500D01*
X58402797Y-66867826D01*
X58113452Y-66578481D01*
X58091778Y-66526155D01*
X58097411Y-66497836D01*
X58123563Y-66434699D01*
X58160130Y-66346420D01*
X58200500Y-66143465D01*
X58200500Y-65936535D01*
X58160130Y-65733580D01*
X58080941Y-65542402D01*
X57965977Y-65370345D01*
X57819655Y-65224023D01*
X57783700Y-65199999D01*
X57647598Y-65109059D01*
X57456420Y-65029870D01*
X57456413Y-65029868D01*
X57303516Y-64999455D01*
X57253465Y-64989500D01*
X57046535Y-64989500D01*
X57006385Y-64997486D01*
X56843586Y-65029868D01*
X56843579Y-65029870D01*
X56652401Y-65109059D01*
X56480345Y-65224022D01*
X56480344Y-65224024D01*
X56334024Y-65370344D01*
X56334022Y-65370345D01*
X56219059Y-65542401D01*
X56139870Y-65733579D01*
X56139868Y-65733586D01*
X56099500Y-65936535D01*
X56099500Y-66143464D01*
X56139868Y-66346413D01*
X56139870Y-66346420D01*
X56219059Y-66537598D01*
X56329144Y-66702354D01*
X56334023Y-66709655D01*
X56480345Y-66855977D01*
X56652402Y-66970941D01*
X56843580Y-67050130D01*
X57046535Y-67090500D01*
X57046536Y-67090500D01*
X57253464Y-67090500D01*
X57253465Y-67090500D01*
X57456420Y-67050130D01*
X57607836Y-66987411D01*
X57664474Y-66987411D01*
X57688480Y-67003451D01*
X58115489Y-67430460D01*
X58184012Y-67470022D01*
X58260438Y-67490500D01*
X114869191Y-67490500D01*
X114921517Y-67512174D01*
X118382517Y-70973174D01*
X118404191Y-71025500D01*
X118382517Y-71077826D01*
X118330191Y-71099500D01*
X118306593Y-71099500D01*
X118254267Y-71077826D01*
X114877451Y-67701010D01*
X114877449Y-67701009D01*
X114876573Y-67700502D01*
X114876573Y-67700503D01*
X114876568Y-67700500D01*
X114808929Y-67661449D01*
X114808926Y-67661447D01*
X114732504Y-67640970D01*
X114732502Y-67640970D01*
X40156593Y-67640970D01*
X40104267Y-67619296D01*
X39063452Y-66578481D01*
X39041778Y-66526155D01*
X39047411Y-66497836D01*
X39073563Y-66434699D01*
X39110130Y-66346420D01*
X39150500Y-66143465D01*
X39150500Y-65936535D01*
X39110130Y-65733580D01*
X39030941Y-65542402D01*
X38915977Y-65370345D01*
X38769655Y-65224023D01*
X38733700Y-65199999D01*
X38597598Y-65109059D01*
X38406420Y-65029870D01*
X38406413Y-65029868D01*
X38253516Y-64999455D01*
X38203465Y-64989500D01*
X37996535Y-64989500D01*
X37956385Y-64997486D01*
X37793586Y-65029868D01*
X37793579Y-65029870D01*
X37602401Y-65109059D01*
X37430345Y-65224022D01*
X37430344Y-65224024D01*
X37284024Y-65370344D01*
X37284022Y-65370345D01*
X37169059Y-65542401D01*
X37089870Y-65733579D01*
X37089868Y-65733586D01*
X37049500Y-65936535D01*
X31456750Y-65936535D01*
X31456750Y-64499976D01*
X116575001Y-64499976D01*
X116585494Y-64602696D01*
X116640642Y-64769121D01*
X116732683Y-64918343D01*
X116732686Y-64918347D01*
X116856653Y-65042314D01*
X116856656Y-65042316D01*
X117005878Y-65134357D01*
X117172302Y-65189505D01*
X117275025Y-65199999D01*
X117550000Y-65199999D01*
X118050000Y-65199999D01*
X118324971Y-65199999D01*
X118324976Y-65199998D01*
X118427696Y-65189505D01*
X118594121Y-65134357D01*
X118743343Y-65042316D01*
X118743347Y-65042314D01*
X118867314Y-64918347D01*
X118867316Y-64918343D01*
X118959357Y-64769121D01*
X119014505Y-64602697D01*
X119024999Y-64499975D01*
X119025000Y-64499973D01*
X119025000Y-64450000D01*
X118050000Y-64450000D01*
X118050000Y-65199999D01*
X117550000Y-65199999D01*
X117550000Y-64450000D01*
X116575001Y-64450000D01*
X116575001Y-64499976D01*
X31456750Y-64499976D01*
X31456750Y-63900024D01*
X116575000Y-63900024D01*
X116575000Y-63950000D01*
X117550000Y-63950000D01*
X118050000Y-63950000D01*
X119024999Y-63950000D01*
X119024999Y-63900029D01*
X119024998Y-63900023D01*
X119014505Y-63797303D01*
X118959357Y-63630878D01*
X118867316Y-63481656D01*
X118867314Y-63481653D01*
X118743347Y-63357686D01*
X118743343Y-63357683D01*
X118594121Y-63265642D01*
X118427697Y-63210494D01*
X118324975Y-63200000D01*
X118050000Y-63200000D01*
X118050000Y-63950000D01*
X117550000Y-63950000D01*
X117550000Y-63200000D01*
X117275029Y-63200000D01*
X117275023Y-63200001D01*
X117172303Y-63210494D01*
X117005878Y-63265642D01*
X116856656Y-63357683D01*
X116732683Y-63481656D01*
X116640642Y-63630878D01*
X116585494Y-63797302D01*
X116575000Y-63900024D01*
X31456750Y-63900024D01*
X31456750Y-54606917D01*
X99512000Y-54606917D01*
X99512000Y-54930582D01*
X99548239Y-55252225D01*
X99620261Y-55567773D01*
X99620265Y-55567785D01*
X99727159Y-55873273D01*
X99727164Y-55873283D01*
X99867598Y-56164898D01*
X99867600Y-56164902D01*
X99867601Y-56164903D01*
X100039804Y-56438964D01*
X100241610Y-56692020D01*
X100470480Y-56920890D01*
X100723536Y-57122696D01*
X100997597Y-57294899D01*
X101289214Y-57435335D01*
X101289220Y-57435337D01*
X101289226Y-57435340D01*
X101533513Y-57520819D01*
X101594722Y-57542237D01*
X101910278Y-57614261D01*
X102231914Y-57650500D01*
X102231918Y-57650500D01*
X102555582Y-57650500D01*
X102555586Y-57650500D01*
X102877222Y-57614261D01*
X103192778Y-57542237D01*
X103360700Y-57483478D01*
X103498273Y-57435340D01*
X103498276Y-57435338D01*
X103498286Y-57435335D01*
X103789903Y-57294899D01*
X104063964Y-57122696D01*
X104317020Y-56920890D01*
X104545890Y-56692020D01*
X104747696Y-56438964D01*
X104919899Y-56164903D01*
X105060335Y-55873286D01*
X105081207Y-55813639D01*
X105138466Y-55650000D01*
X105167237Y-55567778D01*
X105239261Y-55252222D01*
X105275500Y-54930586D01*
X105275500Y-54606914D01*
X105239261Y-54285278D01*
X105167237Y-53969722D01*
X105145819Y-53908513D01*
X105060340Y-53664226D01*
X105060337Y-53664220D01*
X105060335Y-53664214D01*
X104919899Y-53372597D01*
X104789861Y-53165641D01*
X130895000Y-53165641D01*
X130897900Y-53202493D01*
X130943718Y-53360199D01*
X131027317Y-53501556D01*
X131143443Y-53617682D01*
X131284800Y-53701281D01*
X131442506Y-53747099D01*
X131445000Y-53747295D01*
X131445000Y-52525000D01*
X130895000Y-52525000D01*
X130895000Y-53165641D01*
X104789861Y-53165641D01*
X104747696Y-53098536D01*
X104545890Y-52845480D01*
X104317020Y-52616610D01*
X104317019Y-52616609D01*
X104317014Y-52616604D01*
X104236260Y-52552204D01*
X104236258Y-52552204D01*
X104063964Y-52414804D01*
X103789898Y-52242598D01*
X103551511Y-52127797D01*
X103498286Y-52102165D01*
X103498282Y-52102163D01*
X103498273Y-52102159D01*
X103192785Y-51995265D01*
X103192773Y-51995261D01*
X102877225Y-51923239D01*
X102739378Y-51907708D01*
X102555586Y-51887000D01*
X102231914Y-51887000D01*
X102071096Y-51905119D01*
X101910274Y-51923239D01*
X101594726Y-51995261D01*
X101594714Y-51995265D01*
X101289226Y-52102159D01*
X101289216Y-52102164D01*
X100997601Y-52242598D01*
X100723535Y-52414804D01*
X100470480Y-52616609D01*
X100241609Y-52845480D01*
X100039804Y-53098535D01*
X99867598Y-53372601D01*
X99727164Y-53664216D01*
X99727159Y-53664226D01*
X99620265Y-53969714D01*
X99620261Y-53969726D01*
X99548239Y-54285274D01*
X99512000Y-54606917D01*
X31456750Y-54606917D01*
X31456750Y-51384358D01*
X130895000Y-51384358D01*
X130895000Y-52025000D01*
X131445000Y-52025000D01*
X131445000Y-50802703D01*
X131442506Y-50802900D01*
X131284800Y-50848718D01*
X131143443Y-50932317D01*
X131027317Y-51048443D01*
X130943718Y-51189800D01*
X130897900Y-51347506D01*
X130895000Y-51384358D01*
X31456750Y-51384358D01*
X31456750Y-47453031D01*
X44124500Y-47453031D01*
X44124500Y-47796968D01*
X44158211Y-48139254D01*
X44225308Y-48476573D01*
X44254302Y-48572153D01*
X44322539Y-48797099D01*
X44325150Y-48805704D01*
X44325155Y-48805718D01*
X44435199Y-49071389D01*
X44456769Y-49123462D01*
X44515895Y-49234078D01*
X44618892Y-49426774D01*
X44618900Y-49426787D01*
X44809976Y-49712754D01*
X44809981Y-49712760D01*
X45028172Y-49978627D01*
X45271373Y-50221828D01*
X45537240Y-50440019D01*
X45537245Y-50440023D01*
X45727453Y-50567115D01*
X45823213Y-50631100D01*
X45823217Y-50631102D01*
X45823225Y-50631107D01*
X45930602Y-50688501D01*
X46126538Y-50793231D01*
X46444295Y-50924850D01*
X46773422Y-51024690D01*
X46773424Y-51024690D01*
X46773426Y-51024691D01*
X47087876Y-51087239D01*
X47110750Y-51091789D01*
X47453031Y-51125500D01*
X47453032Y-51125500D01*
X47796968Y-51125500D01*
X47796969Y-51125500D01*
X48139250Y-51091789D01*
X48476578Y-51024690D01*
X48805705Y-50924850D01*
X49123462Y-50793231D01*
X49426787Y-50631100D01*
X49712760Y-50440019D01*
X49978627Y-50221828D01*
X50221828Y-49978627D01*
X50440019Y-49712760D01*
X50631100Y-49426787D01*
X50793231Y-49123462D01*
X50924850Y-48805705D01*
X51024690Y-48476578D01*
X51059818Y-48299976D01*
X123075001Y-48299976D01*
X123085494Y-48402696D01*
X123140642Y-48569121D01*
X123232683Y-48718343D01*
X123232686Y-48718347D01*
X123356653Y-48842314D01*
X123356656Y-48842316D01*
X123505878Y-48934357D01*
X123672302Y-48989505D01*
X123775025Y-48999999D01*
X123837499Y-48999999D01*
X123837500Y-48999998D01*
X123837500Y-48050000D01*
X123075001Y-48050000D01*
X123075001Y-48299976D01*
X51059818Y-48299976D01*
X51091789Y-48139250D01*
X51125500Y-47796969D01*
X51125500Y-47453031D01*
X51110959Y-47305390D01*
X51110430Y-47300024D01*
X123075000Y-47300024D01*
X123075000Y-47550000D01*
X123837500Y-47550000D01*
X123837500Y-46600000D01*
X123775028Y-46600000D01*
X123775022Y-46600001D01*
X123672303Y-46610494D01*
X123505878Y-46665642D01*
X123356656Y-46757683D01*
X123232683Y-46881656D01*
X123140642Y-47030878D01*
X123085494Y-47197302D01*
X123075000Y-47300024D01*
X51110430Y-47300024D01*
X51107010Y-47265295D01*
X51091789Y-47110750D01*
X51056442Y-46933050D01*
X51024691Y-46773426D01*
X51024690Y-46773422D01*
X50924850Y-46444295D01*
X50793231Y-46126538D01*
X50688501Y-45930602D01*
X50631107Y-45823225D01*
X50631099Y-45823212D01*
X50440023Y-45537245D01*
X50358065Y-45437379D01*
X50221828Y-45271373D01*
X49978627Y-45028172D01*
X49712760Y-44809981D01*
X49712754Y-44809976D01*
X49426787Y-44618900D01*
X49426774Y-44618892D01*
X49226535Y-44511863D01*
X49123462Y-44456769D01*
X49123456Y-44456766D01*
X49123451Y-44456764D01*
X48805718Y-44325155D01*
X48805711Y-44325152D01*
X48805705Y-44325150D01*
X48640314Y-44274979D01*
X48476573Y-44225308D01*
X48139254Y-44158211D01*
X47865425Y-44131242D01*
X47796969Y-44124500D01*
X47453031Y-44124500D01*
X47395984Y-44130118D01*
X47110745Y-44158211D01*
X46773426Y-44225308D01*
X46444295Y-44325150D01*
X46444281Y-44325155D01*
X46126548Y-44456764D01*
X46126540Y-44456768D01*
X45823225Y-44618892D01*
X45823212Y-44618900D01*
X45537245Y-44809976D01*
X45271374Y-45028171D01*
X45028171Y-45271374D01*
X44809976Y-45537245D01*
X44618900Y-45823212D01*
X44618892Y-45823225D01*
X44456768Y-46126540D01*
X44456764Y-46126548D01*
X44325155Y-46444281D01*
X44325150Y-46444295D01*
X44225308Y-46773426D01*
X44158211Y-47110745D01*
X44124500Y-47453031D01*
X31456750Y-47453031D01*
X31456750Y-42305024D01*
X126900000Y-42305024D01*
X126900000Y-43904970D01*
X126900001Y-43904976D01*
X126910494Y-44007696D01*
X126965642Y-44174121D01*
X127004433Y-44237012D01*
X128136446Y-43104999D01*
X127004433Y-41972986D01*
X127004431Y-41972986D01*
X126965644Y-42035873D01*
X126910494Y-42202302D01*
X126900000Y-42305024D01*
X31456750Y-42305024D01*
X31456750Y-41651148D01*
X127389701Y-41651148D01*
X128489999Y-42751446D01*
X129590297Y-41651148D01*
X129482698Y-41615494D01*
X129379974Y-41605000D01*
X127600029Y-41605000D01*
X127600023Y-41605001D01*
X127497301Y-41615494D01*
X127389701Y-41651148D01*
X31456750Y-41651148D01*
X31456750Y-40628850D01*
X127389701Y-40628850D01*
X127497301Y-40664505D01*
X127600025Y-40674999D01*
X129379970Y-40674999D01*
X129379976Y-40674998D01*
X129482697Y-40664505D01*
X129482699Y-40664505D01*
X129590297Y-40628850D01*
X137609701Y-40628850D01*
X137717301Y-40664505D01*
X137820025Y-40674999D01*
X139599970Y-40674999D01*
X139599976Y-40674998D01*
X139702697Y-40664505D01*
X139702699Y-40664505D01*
X139810297Y-40628850D01*
X138710000Y-39528553D01*
X137609701Y-40628850D01*
X129590297Y-40628850D01*
X128490000Y-39528553D01*
X127389701Y-40628850D01*
X31456750Y-40628850D01*
X31456750Y-39783679D01*
X31456908Y-39778839D01*
X31472523Y-39540598D01*
X31473787Y-39531001D01*
X31519888Y-39299235D01*
X31522393Y-39289885D01*
X31554034Y-39196674D01*
X31598358Y-39066101D01*
X31602055Y-39057175D01*
X31706585Y-38845208D01*
X31711407Y-38836856D01*
X31842714Y-38640342D01*
X31848588Y-38632687D01*
X32004415Y-38455000D01*
X32011250Y-38448165D01*
X32188937Y-38292338D01*
X32196592Y-38286464D01*
X32393106Y-38155157D01*
X32401458Y-38150335D01*
X32613425Y-38045805D01*
X32622351Y-38042108D01*
X32846141Y-37966141D01*
X32855479Y-37963639D01*
X33087254Y-37917536D01*
X33096846Y-37916273D01*
X33335089Y-37900657D01*
X33339929Y-37900500D01*
X33403392Y-37900500D01*
X126959733Y-37900500D01*
X127012059Y-37922174D01*
G37*
%TD.AperFunction*%
%TD*%
M02*
